<svg width="66" height="25" viewBox="0 0 66 25" fill="none" xmlns="http://www.w3.org/2000/svg">
<path d="M28.9531 10.7976H30.7563V5.88237H33.1366V4.19531H28.9611V10.7976H28.9531Z" fill="#8654CC"/>
<path d="M25.2349 9.32149C25.0345 9.3296 24.8422 9.29716 24.6578 9.22416C24.4735 9.15116 24.3052 9.04572 24.169 8.89973C24.0327 8.76184 23.9205 8.59151 23.8484 8.40496C23.7763 8.21841 23.7442 8.02375 23.7522 7.82098H28.1921C28.1921 7.82098 28.2242 7.48032 28.2242 7.13156C28.2242 5.13628 27.0541 4.0332 25.2269 4.0332C23.2954 4.0332 21.957 5.45261 21.957 7.48844C21.957 9.52426 23.2794 10.9842 25.2108 10.9842C26.998 10.9842 28.2082 9.93792 28.2402 8.39685H26.4771C26.421 8.68073 26.2687 8.93217 26.0363 9.1025C25.8039 9.28094 25.5154 9.36205 25.2349 9.32149ZM25.2349 5.55805C25.3871 5.53371 25.5314 5.54994 25.6757 5.58238C25.8199 5.62293 25.9562 5.68782 26.0764 5.78515C26.1966 5.87437 26.2928 5.99603 26.3649 6.12581C26.437 6.25558 26.4851 6.40158 26.5011 6.55568H23.8564C23.9446 6.25558 24.1289 5.99603 24.3854 5.80948C24.6418 5.63105 24.9464 5.54183 25.2589 5.55805H25.2349Z" fill="#8654CC"/>
<path d="M18.8232 4.19531L17.5809 8.24264L16.3788 4.19531H14.3913L13.3574 10.7976H15.0084L15.6335 6.68535L16.8516 10.7976H18.2702L19.5364 6.61235L20.1375 10.7976H21.8125L20.7786 4.19531H18.8232Z" fill="#8654CC"/>
<path d="M36.4306 4.0332C34.5152 4.0332 33.4253 4.99029 33.4734 6.61246H35.3407C35.3407 5.92304 35.6933 5.61482 36.4386 5.61482C36.9676 5.61482 37.3042 5.84193 37.3042 6.18258C37.3042 6.40158 37.224 6.4908 36.8955 6.58002L35.4128 6.99367C33.9702 7.3911 33.3291 7.99131 33.3291 8.98895C33.3291 10.1731 34.1786 10.9599 35.4288 10.9599C35.8296 11.0004 36.2303 10.9112 36.5749 10.7085C36.9195 10.5057 37.192 10.1975 37.3523 9.82437V10.822H39.0753V6.40969C39.0513 4.81996 38.0575 4.0332 36.4306 4.0332ZM35.7895 9.41882C35.3327 9.41882 35.1083 9.19172 35.1083 8.86728C35.1083 8.53474 35.2686 8.36441 35.7574 8.2103L37.3202 7.7642V7.88587C37.3282 8.08864 37.2882 8.29141 37.216 8.47796C37.1439 8.66451 37.0317 8.83484 36.8874 8.98084C36.7432 9.12683 36.5749 9.24038 36.3825 9.31338C36.1902 9.39449 35.9898 9.42693 35.7895 9.41882Z" fill="#8654CC"/>
<path d="M47.8994 12.5566V14.2437H49.7667V19.1589H51.57V14.2437H53.4293V12.5566H47.8994Z" fill="#8654CC"/>
<path d="M41.4151 12.5566H39.4356L38.0331 15.0061H37.3198V12.5566H35.5166V19.1589H37.3198V16.6283H38.0251L39.5318 19.1589H41.5674L39.5718 15.7929L41.4151 12.5566Z" fill="#8654CC"/>
<path d="M25.3466 12.3945C23.4312 12.3945 22.3333 13.3516 22.3894 14.9738H24.2567C24.2567 14.2844 24.6093 13.9762 25.3547 13.9762C25.8836 13.9762 26.2202 14.2033 26.2202 14.5439C26.2202 14.7548 26.1401 14.844 25.8035 14.9413L24.3208 15.355C22.8863 15.7524 22.2451 16.3526 22.2451 17.3503C22.2451 18.5264 23.0946 19.3212 24.3449 19.3212C24.7456 19.3618 25.1463 19.2807 25.4909 19.0698C25.8355 18.867 26.108 18.5507 26.2603 18.1776V19.1752H27.9833V14.7548C27.9673 13.1813 26.9735 12.3945 25.3466 12.3945ZM24.6975 17.7883C24.2487 17.7883 24.0243 17.5612 24.0243 17.2286C24.0243 16.8961 24.1846 16.7257 24.6815 16.5879L26.2362 16.1418V16.2553C26.2442 16.4581 26.2042 16.6609 26.132 16.8555C26.0599 17.0421 25.9397 17.2205 25.8035 17.3584C25.6592 17.5044 25.4909 17.6179 25.2986 17.6909C25.0982 17.7558 24.8978 17.7964 24.6975 17.7883Z" fill="#8654CC"/>
<path d="M32.3671 12.404C31.9905 12.3797 31.6138 12.477 31.3012 12.6879C30.9807 12.8907 30.7402 13.1989 30.604 13.5558V12.55H28.8008V20.9691H30.604V18.1952C30.7402 18.544 30.9887 18.8441 31.3012 19.0469C31.6138 19.2496 31.9905 19.347 32.3591 19.3226C33.8418 19.3226 34.8275 18.1547 34.8275 15.8674C34.8355 13.572 33.8578 12.404 32.3671 12.404ZM31.8703 17.6275C31.0448 17.6275 30.5559 17.0597 30.5559 15.8593C30.5559 14.6589 31.0528 14.0911 31.8622 14.0911C32.6797 14.0911 33.0804 14.667 33.0804 15.8593C33.0804 17.0597 32.6637 17.6275 31.8622 17.6275H31.8703Z" fill="#8654CC"/>
<path d="M18.8232 12.5566L17.5809 16.604L16.3788 12.5566H14.3913L13.3574 19.1589H15.0084L15.6335 15.0467L16.8516 19.1589H18.2702L19.5364 14.9818L20.1375 19.167H21.8125L20.7786 12.5648H18.8232V12.5566Z" fill="#8654CC"/>
<path d="M44.4849 17.6926C44.2845 17.7007 44.0922 17.6683 43.9078 17.5953C43.7235 17.5223 43.5552 17.4168 43.419 17.2708C43.2827 17.1329 43.1705 16.9626 43.0984 16.7761C43.0263 16.5895 42.9942 16.3948 43.0022 16.1921H47.4421C47.4421 16.1921 47.4742 15.8514 47.4742 15.5027C47.4742 13.5074 46.3121 12.4043 44.4769 12.4043C42.5454 12.4043 41.207 13.8237 41.207 15.8514C41.207 17.8791 42.5294 19.3472 44.4608 19.3472C46.248 19.3472 47.4582 18.3009 47.4982 16.7598H45.7351C45.687 17.0437 45.5267 17.3033 45.2943 17.4736C45.0619 17.652 44.7734 17.725 44.4849 17.6926ZM44.4849 13.9291C44.6371 13.9129 44.7814 13.921 44.9257 13.9616C45.0699 14.0021 45.2062 14.067 45.3264 14.1644C45.4466 14.2536 45.5428 14.3752 45.6149 14.505C45.687 14.6348 45.7351 14.7808 45.7511 14.9349H43.0984C43.1866 14.6348 43.3709 14.3671 43.6273 14.1887C43.8838 14.0102 44.1883 13.921 44.5009 13.9373H44.4849V13.9291Z" fill="#8654CC"/>
</svg>
