<svg width="66" height="25" viewBox="0 0 66 25" fill="none" xmlns="http://www.w3.org/2000/svg">
<path d="M53.9401 7.90314C53.9812 7.29621 53.9401 7.14509 53.7147 7.14509C53.5914 7.14509 53.4893 7.27515 53.3249 7.77308L50.7786 15.1628C50.4499 16.0942 50.08 16.5277 49.4637 16.5067C48.8274 16.4856 48.3954 15.9865 48.2522 14.946L47.3693 8.44566C47.2871 7.90437 47.2261 7.73097 47.0617 7.73097C46.8774 7.73097 46.8363 7.86102 46.733 8.44566L45.7058 14.6859L43.7546 14.2957L45.9523 2.83217C46.3632 0.730207 46.8152 0.0799239 47.8213 0.0799239C48.6842 0.0799239 49.2383 0.860263 49.4027 2.54976L50.2244 10.6108C50.2444 10.6975 50.2855 10.7186 50.3477 10.7186C50.4099 10.7186 50.4499 10.6752 50.471 10.6318L52.833 3.82803C53.5316 1.83507 54.25 1.03243 55.174 1.11914C56.2423 1.2269 56.571 1.98618 56.571 4.2182V17.697L53.2439 18.3684L53.9425 7.9019L53.9401 7.90314ZM14.999 11.5001C15.019 10.9588 15.1423 10.6987 15.3066 10.6987C15.4909 10.6987 15.5942 10.8498 15.7175 11.4791L17.1146 18.3696C17.6276 20.9484 18.3061 22.0533 19.3533 22.0533C20.4628 22.0533 21.1613 20.9918 21.9208 18.1739L26.5416 1.18602C26.6027 0.925911 26.6649 0.688093 26.6649 0.514684C26.6649 0.124515 26.4395 -0.0922462 25.802 0.0378103L21.7354 0.81815L20.7293 15.8564C20.6882 16.3977 20.586 16.6578 20.4005 16.6578C20.1951 16.6578 20.093 16.441 20.0108 15.8775L18.4083 3.93827C18.1207 1.83631 17.5254 0.81815 16.5393 0.81815C15.4299 0.81815 14.7936 1.72855 14.3416 4.04727L10.2139 25L14.3216 24.1763L14.999 11.5001ZM26.7671 11.3267C26.7671 14.9237 28.0608 16.8746 30.2996 16.8746C32.8049 16.8746 34.5717 14.318 34.5717 7.96878C34.5717 6.47375 34.5517 4.76196 34.4696 3.39699C33.9354 3.98162 33.0937 4.76196 32.4362 5.21778C32.5184 6.01917 32.5595 7.3408 32.5595 8.94483C32.5595 11.7615 32.293 14.8816 31.3069 14.8816C30.7316 14.8816 30.5473 13.4733 30.5473 11.6314C30.5473 9.335 30.8349 6.60381 31.0192 5.82347C30.3829 6.04023 28.4106 6.38705 26.9737 6.47375C26.8504 7.75202 26.7682 9.72393 26.7682 11.328L26.7671 11.3267ZM39.2547 14.8593C41.4524 14.8593 42.664 12.6929 42.664 8.90024C42.664 7.49191 42.6229 6.60381 42.6029 6.14799C42.2331 5.95353 41.4935 5.58441 40.775 5.06419C40.795 5.64882 40.8572 6.92833 40.8572 8.70453C40.8572 11.5212 40.5085 13.1029 39.9533 13.1029C39.358 13.1029 39.1315 12.0625 39.1315 8.81229C39.1315 6.51587 39.2336 4.43496 39.2547 3.87138C38.0631 2.98328 36.4618 1.59601 36.092 1.16249C35.8866 4.71613 35.8455 6.86144 35.8455 8.81229C35.8455 12.4526 37.2014 14.8581 39.2547 14.8581V14.8593Z" fill="#131313"/>
</svg>
