<svg width="103" height="54" viewBox="0 0 103 54" fill="none" xmlns="http://www.w3.org/2000/svg">
<g clip-path="url(#clip0_2484_746)">
<mask id="mask0_2484_746" style="mask-type:luminance" maskUnits="userSpaceOnUse" x="0" y="16" width="104" height="21">
<path d="M103.28 16.2H0V36.5847H103.28V16.2Z" fill="white"/>
</mask>
<g mask="url(#mask0_2484_746)">
<path d="M55.1396 33.1659V19.619H63.1611V22.7655H58.4844V33.1659H55.1396Z" fill="#131313"/>
<path d="M73.2531 33.1659V27.8603H68.2842V33.1659H64.9395V19.619H68.2842V24.6746H73.2531V19.619H76.5979V33.1659H73.2531Z" fill="#131313"/>
<path d="M96.0081 33.1659V22.7655H92.1016V19.619H103.28V22.7655H99.3546V33.1659H96.0081Z" fill="#131313"/>
<path d="M87.1797 33.1641V25.4453L81.8554 33.1641H79.0586V19.6208H82.4033V27.2593L87.6383 19.6208H90.5262V33.1641H87.1797Z" fill="#131313"/>
<path d="M35.9192 33.1659V25.1151L32.5797 29.3682L29.2403 25.1151V33.1659H25.8955V19.619H29.1965L32.5797 24.2771L35.963 19.619H39.2639V33.1659H35.9192Z" fill="#131313"/>
<path d="M45.6136 28.4012H48.722L47.1678 24.1537L45.6136 28.4012ZM50.4653 33.1639L49.7652 31.2658H44.5652L43.8651 33.1639H40.5029L45.6469 19.6188H48.7396L53.8853 33.1639H50.4653Z" fill="#131313"/>
<path d="M-0.00390625 22.3716C-0.000667712 20.7355 0.610427 19.1674 1.69558 18.0107C2.78073 16.854 4.25151 16.2029 5.78591 16.2H19.1526V19.3371H5.78942C5.03546 19.3405 4.31329 19.6613 3.77999 20.2295C3.24671 20.7978 2.94545 21.5676 2.94176 22.3716L2.92426 27.6381C2.86325 28.3128 2.59437 28.947 2.15961 29.4417C1.72486 29.9363 1.14872 30.2634 0.521168 30.3721L-0.00390625 30.4579V22.3716Z" fill="#131313"/>
<path d="M-0.00292969 36.5848V33.4476H13.3637C14.1179 33.4437 14.84 33.1225 15.3733 32.554C15.9065 31.9853 16.2077 31.2153 16.2114 30.4113V25.4135C16.2151 24.6884 16.4604 23.9884 16.9035 23.4383C17.3466 22.8883 17.9586 22.5241 18.6302 22.4108L19.1553 22.3268V30.4113C19.152 32.0476 18.541 33.6158 17.4559 34.7728C16.3708 35.9298 14.9 36.5812 13.3655 36.5848H-0.00292969Z" fill="#131313"/>
<path d="M11.3207 30.4691V26.4138L9.57742 28.6327L7.83593 26.4138V30.4691H5.52734V22.4891H7.71341L9.57742 25.0552L11.4415 22.4891H13.6275V30.4691H11.3207Z" fill="#131313"/>
</g>
</g>
<defs>
<clipPath id="clip0_2484_746">
<rect width="103" height="54" fill="white"/>
</clipPath>
</defs>
</svg>
