<svg width="103" height="55" viewBox="0 0 103 55" fill="none" xmlns="http://www.w3.org/2000/svg">
<path d="M57.6249 20.9866C55.9124 19.3495 53.6006 18.3333 51.0033 18.3333C45.8089 18.3333 41.6133 22.4544 41.6133 27.5071C41.6133 32.5597 45.8089 36.6808 51.0033 36.6808C53.5721 36.6808 55.9124 35.6646 57.6249 34.0275V36.2009H61.0498V18.7849H57.6249V20.9584V20.9866ZM51.3173 33.7734C47.8352 33.7734 45.0097 30.979 45.0097 27.5353C45.0097 24.0916 47.8352 21.2971 51.3173 21.2971C54.7993 21.2971 57.6249 24.0916 57.6249 27.5353C57.6249 30.979 54.7993 33.7734 51.3173 33.7734Z" fill="#131313"/>
<path d="M39.6726 23.8655C39.6726 21.071 37.3608 18.7846 34.5352 18.7846H22.0342V36.2006H25.4591V28.9463H30.7392L36.7329 36.2006H41.0997L34.9348 28.9463C37.5891 28.7487 39.6726 26.547 39.6726 23.8937V23.8655ZM25.4591 21.692H34.0215C35.2487 21.692 36.2191 22.6799 36.2191 23.8655C36.2191 25.051 35.2202 26.0389 34.0215 26.0389H25.4591V21.692Z" fill="#131313"/>
<path d="M76.918 18.7846H64.417V36.2006H67.8419V28.9463H76.918C79.7436 28.9463 82.0554 26.6599 82.0554 23.8655C82.0554 21.071 79.7436 18.7846 76.918 18.7846ZM76.4328 26.0389H67.8704V21.692H76.4328C77.6601 21.692 78.6305 22.6799 78.6305 23.8655C78.6305 25.051 77.6315 26.0389 76.4328 26.0389Z" fill="#131313"/>
<path d="M8.1057 26.0675V28.9748H15.8403C15.1839 31.7128 12.6723 33.7734 9.704 33.7734C6.22198 33.7734 3.3964 30.9789 3.3964 27.5353C3.3964 24.0916 6.22198 21.2971 9.704 21.2971C11.816 21.2971 13.6998 22.3415 14.8414 23.9222H18.6088C17.1247 20.6479 13.6998 18.3615 9.704 18.3615C4.33826 18.3615 0 22.4826 0 27.5353C0 32.5879 4.33826 36.709 9.704 36.709C15.0697 36.709 19.408 32.5879 19.408 27.5353C19.408 27.0554 19.3794 26.5473 19.2938 26.0957H8.13425L8.1057 26.0675Z" fill="#131313"/>
<path d="M102.72 27.5071C102.72 22.4262 98.3812 18.3333 93.0155 18.3333C87.6498 18.3333 83.3115 22.4544 83.3115 27.5071C83.3115 32.5597 87.6498 36.6808 93.0155 36.6808C97.0113 36.6808 100.436 34.3944 101.92 31.1201H98.1529C97.0113 32.7008 95.1275 33.7452 93.0155 33.7452C90.0187 33.7452 87.5356 31.7129 86.8792 28.9466H102.605C102.691 28.4668 102.72 27.9869 102.72 27.5071ZM86.8792 26.0675C87.5356 23.3295 90.0472 21.2689 93.0155 21.2689C95.9838 21.2689 98.4954 23.3012 99.1519 26.0675H86.8792Z" fill="#131313"/>
</svg>
