<svg width="130" height="91" viewBox="0 0 130 91" fill="none" xmlns="http://www.w3.org/2000/svg">
<path d="M129.012 89.3901L1.06445 0.516113" stroke="#13FF00" stroke-miterlimit="10"/>
<path d="M129.522 30.2507L35.3916 0.5" stroke="#13FF00" stroke-miterlimit="10"/>
<path d="M1 24.4358L43.9028 89.8728" stroke="#13FF00" stroke-miterlimit="10"/>
<path d="M129.256 30.2749H43.9844V89.7119H129.256V30.2749Z" stroke="#13FF00" stroke-miterlimit="10"/>
<path d="M35.1081 0.516113H1.06445V24.2427H35.1081V0.516113Z" stroke="#13FF00" stroke-miterlimit="10"/>
<path d="M53.3203 39.4919H56.8429C59.5152 39.4919 60.7218 39.9263 60.7218 41.7198C60.7218 43.5134 59.3695 43.4088 58.3896 43.4973V44.0925C59.7744 44.1568 61.3939 44.1086 61.3939 46.1675C61.3939 48.2265 59.2804 48.5724 56.8348 48.5724H53.3203V39.5V39.4919ZM57.1992 42.7654C57.7823 42.7654 58.252 42.8539 58.252 42.2104C58.252 41.6153 57.7823 41.6555 57.1992 41.6555H55.7983V42.7654H57.1992ZM57.183 46.4088C58.2843 46.4088 58.916 46.5134 58.916 45.6769C58.916 44.7922 58.2843 44.9289 57.183 44.9289H55.7983V46.4088H57.183Z" fill="white"/>
<path d="M66.6421 41.6555V46.4088H68.7314V48.5724H62.083V46.4088H64.1723V41.6555H62.083V39.4919H68.7314V41.6555H66.6421Z" fill="white"/>
<path d="M73.7436 39.3633C76.0353 39.3633 78.0112 40.7547 78.2784 42.7333H75.8004C75.5899 41.8325 74.942 41.5268 73.7436 41.5268C72.3588 41.5268 71.5004 42.122 71.5004 44.0282C71.5004 45.9343 72.205 46.5375 73.4682 46.5375C74.4805 46.5375 75.2012 46.1032 75.2174 45.2507H73.533V43.4249H78.4161C79.1935 43.4249 79.6469 43.8753 79.6469 44.6716V48.5724H77.1609V45.5483L77.6387 44.0282H77.0313C77.0151 46.7467 75.93 48.7011 73.363 48.7011C70.6016 48.7011 69.0225 46.8512 69.0225 44.0282C69.0225 41.2051 71.0955 39.3713 73.7436 39.3713V39.3633Z" fill="white"/>
<path d="M61.0703 54.0254C61.0703 56.9209 59.1916 57.2989 56.8837 57.2989H55.7905V59.8324H53.3125V50.76H56.8756C59.1835 50.76 61.0622 51.13 61.0622 54.0335L61.0703 54.0254ZM58.5924 54.0254C58.5924 52.9798 58.1389 52.9155 57.0456 52.9155H55.7905V55.1273H57.0456C58.1389 55.1273 58.5924 55.063 58.5924 54.0174V54.0254Z" fill="white"/>
<path d="M66.0181 52.9155V57.6688H68.1074V59.8324H61.459V57.6688H63.5483V52.9155H61.459V50.752H68.1074V52.9155H66.0181Z" fill="white"/>
<path d="M73.266 50.6233C75.8978 50.6233 77.647 52.0147 77.9223 54.2506H75.4443C75.2338 53.2694 74.343 52.7788 73.2903 52.7788C71.9055 52.7788 70.8771 53.5348 70.8771 55.2801C70.8771 57.0254 71.8974 57.7895 73.2903 57.7895C74.343 57.7895 75.2338 57.2909 75.4443 56.3096H77.9223C77.647 58.5616 75.8978 59.9531 73.266 59.9531C70.2698 59.9531 68.4072 57.9343 68.4072 55.2801C68.4072 52.626 70.2778 50.6233 73.266 50.6233Z" fill="white"/>
<path d="M86.3524 52.9155H83.4372V59.8324H80.9592V52.9155H78.0439V50.752H86.3524V52.9155Z" fill="white"/>
<path d="M87.1133 50.752H89.5912V55.2479C89.5912 56.7761 89.5265 57.7975 91.4295 57.7975C93.3325 57.7975 93.3001 56.7841 93.3001 55.2479V50.752H95.7781V56.4544C95.7781 58.7225 94.2395 59.953 91.4376 59.953C88.6357 59.953 87.1214 58.7144 87.1214 56.4544V50.752H87.1133Z" fill="white"/>
<path d="M96.7659 50.752H100.499C102.677 50.752 104.775 51.2506 104.775 53.2855C104.775 54.8297 103.35 55.1675 102.208 55.2801V55.8753H103.633C104.427 55.8753 104.888 56.3418 104.888 57.138V59.8324H102.41V56.8163H99.2358V59.8324H96.7578V50.76L96.7659 50.752ZM100.499 54.6528C101.6 54.6528 102.297 54.7171 102.297 53.7922C102.297 52.8672 101.6 52.9155 100.499 52.9155H99.2439V54.6528H100.499Z" fill="white"/>
<path d="M106.014 50.752H112.873V52.9155H108.492V54.2024H112.225V56.3659H108.492V57.6688H112.873V59.8324H106.014V50.76V50.752Z" fill="white"/>
<path d="M53.3203 62.012H60.0497V64.1755H55.7983V66.3873L59.8796 66.1299V68.3176L55.7983 68.575V71.0843H53.3203V62.012Z" fill="white"/>
<path d="M60.916 62.012H67.775V64.1755H63.394V65.4624H67.1271V67.6259H63.394V68.9289H67.775V71.0924H60.916V62.02V62.012Z" fill="white"/>
<path d="M72.9658 71.2211C69.6375 71.2211 68.2852 69.9101 68.2852 67.5536H70.7631C70.7631 68.6474 71.2652 69.0576 73.0548 69.0576C74.3019 69.0576 74.5611 68.8806 74.5611 68.583C74.5611 68.1487 73.6379 67.8753 72.3584 67.4249C70.3744 66.7412 68.7062 66.2184 68.7062 64.3605C68.7062 62.7519 70.0262 61.8914 72.4394 61.8914C75.2818 61.8914 76.6665 63.2184 76.6665 65.1487H74.1885C74.1885 64.2238 73.4516 64.0549 72.4394 64.0549C71.6377 64.0549 71.1842 64.1675 71.1842 64.4651C71.1842 64.7225 71.168 64.7707 72.6256 65.2774C74.2695 65.8485 77.0471 66.6045 77.0471 68.5107C77.0471 70.1595 75.8324 71.2292 72.9739 71.2292L72.9658 71.2211Z" fill="white"/>
<path d="M85.0809 64.1755H82.1657V71.0924H79.6877V64.1755H76.7725V62.012H85.0809V64.1755Z" fill="white"/>
<path d="M90.5308 64.1755V68.9289H92.6201V71.0924H85.9717V68.9289H88.0609V64.1755H85.9717V62.012H92.6201V64.1755H90.5308Z" fill="white"/>
<path d="M95.9078 62.012L98.1509 70.4811H98.7583L101.018 62.012H103.536L101.018 71.0843H95.8997L93.3975 62.012H95.9078Z" fill="white"/>
<path d="M109.156 68.4382H105.447L104.743 71.0924H102.232L104.735 62.02H109.853L112.371 71.0924H109.853L109.156 68.4382ZM108.573 66.2747L107.601 62.6152H106.994L106.022 66.2747H108.573Z" fill="white"/>
<path d="M113.14 70.0066V62.012H115.618V69.0495L119.999 68.9208V71.0843L114.387 71.213C113.585 71.2291 113.14 70.8028 113.14 70.0066Z" fill="white"/>
<path d="M82.0117 76.2158H83.0887V77.567L82.8782 78.1461H83.1454C83.2993 77.8003 83.526 77.4303 84.2548 77.4303C85.097 77.4303 85.4614 78.122 85.4614 78.9021C85.4614 79.6823 85.097 80.3901 84.2548 80.3901C83.526 80.3901 83.2993 80.0281 83.1454 79.6743H82.8782L83.0887 80.2614V80.3418H82.0117V76.2239V76.2158ZM83.7204 79.4491C84.182 79.4491 84.3844 79.2802 84.3844 78.9021C84.3844 78.5241 84.182 78.3713 83.7204 78.3713C83.2588 78.3713 83.0887 78.5322 83.0887 78.9021C83.0887 79.2721 83.2669 79.4491 83.7204 79.4491Z" fill="white"/>
<path d="M89.0406 77.4866L87.7045 80.1086V81.0254C87.7045 81.3793 87.5101 81.5643 87.1781 81.5563L85.6557 81.5241V80.5831H86.6194V80.1166L85.2832 77.4946H86.506L87.0324 78.8137V79.3606H87.2915V78.8137L87.8098 77.4946H89.0406V77.4866Z" fill="white"/>
<path d="M107.059 76.0793C106.573 75.6128 105.917 75.3232 105.18 75.3232C103.706 75.3232 102.516 76.4975 102.516 77.9372C102.516 79.3769 103.706 80.5511 105.18 80.5511C105.909 80.5511 106.573 80.2616 107.059 79.7951V80.4144H108.03V75.4519H107.059V76.0712V76.0793ZM105.269 79.7227C104.281 79.7227 103.479 78.9265 103.479 77.9452C103.479 76.964 104.281 76.1677 105.269 76.1677C106.257 76.1677 107.059 76.964 107.059 77.9452C107.059 78.9265 106.257 79.7227 105.269 79.7227Z" fill="white"/>
<path d="M101.965 76.8996C101.965 76.1034 101.31 75.4519 100.508 75.4519H96.9609V80.4144H97.9327V78.3473H99.4308L101.131 80.4144H102.37L100.621 78.3473C101.374 78.291 101.965 77.6637 101.965 76.9077V76.8996ZM97.9327 76.2803H100.362C100.71 76.2803 100.986 76.5618 100.986 76.8996C100.986 77.2374 100.702 77.5189 100.362 77.5189H97.9327V76.2803Z" fill="white"/>
<path d="M112.533 75.4519H108.986V80.4144H109.958V78.3473H112.533C113.335 78.3473 113.991 77.6959 113.991 76.8996C113.991 76.1034 113.335 75.4519 112.533 75.4519ZM112.396 77.5189H109.966V76.2803H112.396C112.744 76.2803 113.019 76.5618 113.019 76.8996C113.019 77.2374 112.736 77.5189 112.396 77.5189Z" fill="white"/>
<path d="M93.0088 77.5273V78.3557H95.2033C95.0171 79.1358 94.3045 79.723 93.4623 79.723C92.4743 79.723 91.6726 78.9267 91.6726 77.9455C91.6726 76.9643 92.4743 76.168 93.4623 76.168C94.0615 76.168 94.596 76.4656 94.9199 76.916H95.9888C95.5677 75.983 94.596 75.3315 93.4623 75.3315C91.9399 75.3315 90.709 76.5058 90.709 77.9455C90.709 79.3852 91.9399 80.5594 93.4623 80.5594C94.9847 80.5594 96.2156 79.3852 96.2156 77.9455C96.2156 77.8088 96.2075 77.664 96.1832 77.5353H93.0169L93.0088 77.5273Z" fill="white"/>
<path d="M119.853 77.9372C119.853 76.4895 118.622 75.3232 117.1 75.3232C115.578 75.3232 114.347 76.4975 114.347 77.9372C114.347 79.3769 115.578 80.5511 117.1 80.5511C118.234 80.5511 119.205 79.8996 119.627 78.9667H118.558C118.234 79.4171 117.699 79.7147 117.1 79.7147C116.25 79.7147 115.545 79.1356 115.359 78.3474H119.821C119.845 78.2106 119.853 78.0739 119.853 77.9372ZM115.359 77.527C115.545 76.7468 116.258 76.1597 117.1 76.1597C117.942 76.1597 118.655 76.7388 118.841 77.527H115.359Z" fill="white"/>
</svg>
