<svg width="130" height="91" viewBox="0 0 130 91" fill="none" xmlns="http://www.w3.org/2000/svg">
<path d="M129.012 89.8901L1.06445 1.01611" stroke="#13FF00" stroke-miterlimit="10"/>
<path d="M129.522 30.7507L35.3916 1" stroke="#13FF00" stroke-miterlimit="10"/>
<path d="M1 24.9358L43.9028 90.3728" stroke="#13FF00" stroke-miterlimit="10"/>
<path d="M129.256 30.7749H43.9844V90.2119H129.256V30.7749Z" stroke="#13FF00" stroke-miterlimit="10"/>
<path d="M35.1081 1.01611H1.06445V24.7427H35.1081V1.01611Z" stroke="#13FF00" stroke-miterlimit="10"/>
<path d="M53.3203 39.9919H56.8429C59.5152 39.9919 60.7218 40.4263 60.7218 42.2198C60.7218 44.0134 59.3695 43.9088 58.3896 43.9973V44.5925C59.7744 44.6568 61.3939 44.6086 61.3939 46.6675C61.3939 48.7265 59.2804 49.0724 56.8348 49.0724H53.3203V40V39.9919ZM57.1992 43.2654C57.7823 43.2654 58.252 43.3539 58.252 42.7104C58.252 42.1153 57.7823 42.1555 57.1992 42.1555H55.7983V43.2654H57.1992ZM57.183 46.9088C58.2843 46.9088 58.916 47.0134 58.916 46.1769C58.916 45.2922 58.2843 45.4289 57.183 45.4289H55.7983V46.9088H57.183Z" fill="#131313"/>
<path d="M66.6421 42.1555V46.9088H68.7314V49.0724H62.083V46.9088H64.1723V42.1555H62.083V39.9919H68.7314V42.1555H66.6421Z" fill="#131313"/>
<path d="M73.7436 39.8633C76.0353 39.8633 78.0112 41.2547 78.2784 43.2333H75.8004C75.5899 42.3325 74.942 42.0268 73.7436 42.0268C72.3588 42.0268 71.5004 42.622 71.5004 44.5282C71.5004 46.4343 72.205 47.0375 73.4682 47.0375C74.4805 47.0375 75.2012 46.6032 75.2174 45.7507H73.533V43.9249H78.4161C79.1935 43.9249 79.6469 44.3753 79.6469 45.1716V49.0724H77.1609V46.0483L77.6387 44.5282H77.0313C77.0151 47.2467 75.93 49.2011 73.363 49.2011C70.6016 49.2011 69.0225 47.3512 69.0225 44.5282C69.0225 41.7051 71.0955 39.8713 73.7436 39.8713V39.8633Z" fill="#131313"/>
<path d="M61.0703 54.5255C61.0703 57.4209 59.1916 57.7989 56.8837 57.7989H55.7905V60.3325H53.3125V51.2601H56.8756C59.1835 51.2601 61.0622 51.63 61.0622 54.5335L61.0703 54.5255ZM58.5924 54.5255C58.5924 53.4799 58.1389 53.4156 57.0456 53.4156H55.7905V55.6274H57.0456C58.1389 55.6274 58.5924 55.563 58.5924 54.5174V54.5255Z" fill="#131313"/>
<path d="M66.0181 53.4156V58.1689H68.1074V60.3324H61.459V58.1689H63.5483V53.4156H61.459V51.252H68.1074V53.4156H66.0181Z" fill="#131313"/>
<path d="M73.266 51.1234C75.8978 51.1234 77.647 52.5148 77.9223 54.7507H75.4443C75.2338 53.7695 74.343 53.2789 73.2903 53.2789C71.9055 53.2789 70.8771 54.0349 70.8771 55.7802C70.8771 57.5255 71.8974 58.2896 73.2903 58.2896C74.343 58.2896 75.2338 57.7909 75.4443 56.8097H77.9223C77.647 59.0617 75.8978 60.4531 73.266 60.4531C70.2698 60.4531 68.4072 58.4343 68.4072 55.7802C68.4072 53.126 70.2778 51.1234 73.266 51.1234Z" fill="#131313"/>
<path d="M86.3524 53.4156H83.4372V60.3324H80.9592V53.4156H78.0439V51.252H86.3524V53.4156Z" fill="#131313"/>
<path d="M87.1133 51.252H89.5912V55.748C89.5912 57.2761 89.5265 58.2976 91.4295 58.2976C93.3325 58.2976 93.3001 57.2842 93.3001 55.748V51.252H95.7781V56.9544C95.7781 59.2225 94.2395 60.4531 91.4376 60.4531C88.6357 60.4531 87.1214 59.2145 87.1214 56.9544V51.252H87.1133Z" fill="#131313"/>
<path d="M96.7659 51.252H100.499C102.677 51.252 104.775 51.7507 104.775 53.7855C104.775 55.3298 103.35 55.6676 102.208 55.7802V56.3753H103.633C104.427 56.3753 104.888 56.8418 104.888 57.6381V60.3324H102.41V57.3164H99.2358V60.3324H96.7578V51.2601L96.7659 51.252ZM100.499 55.1528C101.6 55.1528 102.297 55.2172 102.297 54.2922C102.297 53.3673 101.6 53.4156 100.499 53.4156H99.2439V55.1528H100.499Z" fill="#131313"/>
<path d="M106.014 51.252H112.873V53.4156H108.492V54.7024H112.225V56.866H108.492V58.1689H112.873V60.3324H106.014V51.2601V51.252Z" fill="#131313"/>
<path d="M53.3203 62.5121H60.0497V64.6756H55.7983V66.8874L59.8796 66.63V68.8177L55.7983 69.0751V71.5845H53.3203V62.5121Z" fill="#131313"/>
<path d="M60.916 62.5121H67.775V64.6756H63.394V65.9625H67.1271V68.126H63.394V69.429H67.775V71.5925H60.916V62.5201V62.5121Z" fill="#131313"/>
<path d="M72.9658 71.7212C69.6375 71.7212 68.2852 70.4102 68.2852 68.0536H70.7631C70.7631 69.1475 71.2652 69.5576 73.0548 69.5576C74.3019 69.5576 74.5611 69.3807 74.5611 69.0831C74.5611 68.6488 73.6379 68.3753 72.3584 67.9249C70.3744 67.2413 68.7062 66.7185 68.7062 64.8606C68.7062 63.252 70.0262 62.3914 72.4394 62.3914C75.2818 62.3914 76.6665 63.7185 76.6665 65.6488H74.1885C74.1885 64.7239 73.4516 64.555 72.4394 64.555C71.6377 64.555 71.1842 64.6676 71.1842 64.9651C71.1842 65.2225 71.168 65.2708 72.6256 65.7775C74.2695 66.3485 77.0471 67.1046 77.0471 69.0107C77.0471 70.6595 75.8324 71.7292 72.9739 71.7292L72.9658 71.7212Z" fill="#131313"/>
<path d="M85.0809 64.6756H82.1657V71.5925H79.6877V64.6756H76.7725V62.5121H85.0809V64.6756Z" fill="#131313"/>
<path d="M90.5308 64.6756V69.429H92.6201V71.5925H85.9717V69.429H88.0609V64.6756H85.9717V62.5121H92.6201V64.6756H90.5308Z" fill="#131313"/>
<path d="M95.9078 62.5121L98.1509 70.9813H98.7583L101.018 62.5121H103.536L101.018 71.5845H95.8997L93.3975 62.5121H95.9078Z" fill="#131313"/>
<path d="M109.156 68.9384H105.447L104.743 71.5925H102.232L104.735 62.5201H109.853L112.371 71.5925H109.853L109.156 68.9384ZM108.573 66.7748L107.601 63.1153H106.994L106.022 66.7748H108.573Z" fill="#131313"/>
<path d="M113.14 70.5067V62.5121H115.618V69.5496L119.999 69.4209V71.5845L114.387 71.7132C113.585 71.7292 113.14 71.303 113.14 70.5067Z" fill="#131313"/>
<path d="M82.0117 76.7158H83.0887V78.067L82.8782 78.6461H83.1454C83.2993 78.3003 83.526 77.9303 84.2548 77.9303C85.097 77.9303 85.4614 78.622 85.4614 79.4021C85.4614 80.1823 85.097 80.8901 84.2548 80.8901C83.526 80.8901 83.2993 80.5281 83.1454 80.1743H82.8782L83.0887 80.7614V80.8418H82.0117V76.7239V76.7158ZM83.7204 79.9491C84.182 79.9491 84.3844 79.7802 84.3844 79.4021C84.3844 79.0241 84.182 78.8713 83.7204 78.8713C83.2588 78.8713 83.0887 79.0322 83.0887 79.4021C83.0887 79.7721 83.2669 79.9491 83.7204 79.9491Z" fill="#131313"/>
<path d="M89.0406 77.9866L87.7045 80.6086V81.5254C87.7045 81.8793 87.5101 82.0643 87.1781 82.0563L85.6557 82.0241V81.0831H86.6194V80.6166L85.2832 77.9946H86.506L87.0324 79.3137V79.8606H87.2915V79.3137L87.8098 77.9946H89.0406V77.9866Z" fill="#131313"/>
<path d="M107.059 76.5793C106.573 76.1128 105.917 75.8232 105.18 75.8232C103.706 75.8232 102.516 76.9975 102.516 78.4372C102.516 79.8769 103.706 81.0511 105.18 81.0511C105.909 81.0511 106.573 80.7616 107.059 80.2951V80.9144H108.03V75.9519H107.059V76.5712V76.5793ZM105.269 80.2227C104.281 80.2227 103.479 79.4265 103.479 78.4452C103.479 77.464 104.281 76.6677 105.269 76.6677C106.257 76.6677 107.059 77.464 107.059 78.4452C107.059 79.4265 106.257 80.2227 105.269 80.2227Z" fill="#131313"/>
<path d="M101.965 77.3996C101.965 76.6034 101.31 75.9519 100.508 75.9519H96.9609V80.9144H97.9327V78.8473H99.4308L101.131 80.9144H102.37L100.621 78.8473C101.374 78.791 101.965 78.1637 101.965 77.4077V77.3996ZM97.9327 76.7803H100.362C100.71 76.7803 100.986 77.0618 100.986 77.3996C100.986 77.7374 100.702 78.0189 100.362 78.0189H97.9327V76.7803Z" fill="#131313"/>
<path d="M112.533 75.9519H108.986V80.9144H109.958V78.8473H112.533C113.335 78.8473 113.991 78.1959 113.991 77.3996C113.991 76.6034 113.335 75.9519 112.533 75.9519ZM112.396 78.0189H109.966V76.7803H112.396C112.744 76.7803 113.019 77.0618 113.019 77.3996C113.019 77.7374 112.736 78.0189 112.396 78.0189Z" fill="#131313"/>
<path d="M93.0088 78.0271V78.8556H95.2033C95.0171 79.6357 94.3045 80.2228 93.4623 80.2228C92.4743 80.2228 91.6726 79.4266 91.6726 78.4454C91.6726 77.4641 92.4743 76.6679 93.4623 76.6679C94.0615 76.6679 94.596 76.9655 94.9199 77.4159H95.9888C95.5677 76.4829 94.596 75.8314 93.4623 75.8314C91.9399 75.8314 90.709 77.0057 90.709 78.4454C90.709 79.885 91.9399 81.0593 93.4623 81.0593C94.9847 81.0593 96.2156 79.885 96.2156 78.4454C96.2156 78.3086 96.2075 78.1639 96.1832 78.0352H93.0169L93.0088 78.0271Z" fill="#131313"/>
<path d="M119.853 78.4372C119.853 76.9895 118.622 75.8232 117.1 75.8232C115.578 75.8232 114.347 76.9975 114.347 78.4372C114.347 79.8769 115.578 81.0511 117.1 81.0511C118.234 81.0511 119.205 80.3996 119.627 79.4667H118.558C118.234 79.9171 117.699 80.2147 117.1 80.2147C116.25 80.2147 115.545 79.6356 115.359 78.8474H119.821C119.845 78.7106 119.853 78.5739 119.853 78.4372ZM115.359 78.027C115.545 77.2468 116.258 76.6597 117.1 76.6597C117.942 76.6597 118.655 77.2388 118.841 78.027H115.359Z" fill="#131313"/>
</svg>
