<svg width="35" height="18" viewBox="0 0 35 18" fill="none" xmlns="http://www.w3.org/2000/svg">
<path d="M32.5704 5.69026C32.6005 5.25327 32.5704 5.14447 32.4051 5.14447C32.3147 5.14447 32.2398 5.23811 32.1192 5.59662L30.2516 10.9172C30.0105 11.5878 29.7393 11.9 29.2872 11.8848C28.8206 11.8697 28.5037 11.5103 28.3987 10.7611L27.7511 6.08087C27.6909 5.69115 27.6461 5.5663 27.5256 5.5663C27.3904 5.5663 27.3602 5.65994 27.2845 6.08087L26.531 10.5738L25.1 10.2929L26.7119 2.03916C27.0132 0.525749 27.3447 0.0575452 28.0826 0.0575452C28.7155 0.0575452 29.1219 0.61939 29.2425 1.83583L29.8452 7.63977C29.8598 7.7022 29.89 7.71736 29.9356 7.71736C29.9812 7.71736 30.0105 7.68614 30.026 7.65493L31.7584 2.75618C32.2708 1.32125 32.7977 0.743352 33.4754 0.805779C34.2589 0.883367 34.5 1.43005 34.5 3.0371V12.7419L32.0598 13.2252L32.5721 5.68937L32.5704 5.69026ZM4.00961 8.28009C4.02425 7.89037 4.11466 7.70309 4.2352 7.70309C4.37039 7.70309 4.44616 7.81189 4.53657 8.26493L5.56121 13.2261C5.93749 15.0829 6.43517 15.8784 7.20322 15.8784C8.0169 15.8784 8.52923 15.1141 9.08632 13.0852L12.4754 0.853937C12.5202 0.666656 12.5658 0.495427 12.5658 0.370573C12.5658 0.0896506 12.4005 -0.0664173 11.9329 0.0272234L8.95027 0.589068L8.21236 11.4166C8.18222 11.8063 8.10731 11.9936 7.97127 11.9936C7.82059 11.9936 7.74568 11.8375 7.6854 11.4318L6.51008 2.83555C6.29912 1.32214 5.86258 0.589068 5.1393 0.589068C4.32561 0.589068 3.85893 1.24455 3.52743 2.91403L0.5 18L3.51279 17.4069L4.00961 8.28009ZM12.6407 8.15524C12.6407 10.7451 13.5896 12.1497 15.2316 12.1497C17.069 12.1497 18.3649 10.309 18.3649 5.73752C18.3649 4.6611 18.3503 3.42861 18.29 2.44583C17.8982 2.86677 17.2809 3.42861 16.7987 3.7568C16.859 4.33381 16.8891 5.28537 16.8891 6.44028C16.8891 8.46827 16.6936 10.7148 15.9704 10.7148C15.5484 10.7148 15.4133 9.70076 15.4133 8.37463C15.4133 6.7212 15.6242 4.75474 15.7594 4.1929C15.2927 4.34897 13.8462 4.59867 12.7922 4.6611C12.7018 5.58146 12.6416 7.00123 12.6416 8.15613L12.6407 8.15524ZM21.7996 10.6987C23.4115 10.6987 24.3001 9.13891 24.3001 6.40817C24.3001 5.39417 24.27 4.75474 24.2553 4.42655C23.9841 4.28654 23.4416 4.02078 22.9147 3.64621C22.9293 4.06715 22.9749 4.9884 22.9749 6.26726C22.9749 8.29525 22.7192 9.4341 22.3119 9.4341C21.8754 9.4341 21.7092 8.68498 21.7092 6.34485C21.7092 4.69142 21.7841 3.19317 21.7996 2.7874C20.9257 2.14796 19.7512 1.14913 19.48 0.836993C19.3293 3.39561 19.2991 4.94024 19.2991 6.34485C19.2991 8.9659 20.2937 10.6978 21.7996 10.6978V10.6987Z" />
</svg>
