<svg width="111" height="47" viewBox="0 0 111 47" fill="none" xmlns="http://www.w3.org/2000/svg">
<path d="M43.2998 19.1585H48.2539V5.75333H54.7933V1.15222H43.3218V19.1585H43.2998Z" fill="#8654CC"/>
<path d="M33.0831 15.1324C32.5326 15.1545 32.0042 15.066 31.4978 14.8669C30.9914 14.6678 30.529 14.3803 30.1547 13.9821C29.7804 13.606 29.4721 13.1415 29.2739 12.6327C29.0758 12.124 28.9877 11.5931 29.0097 11.04H41.2078C41.2078 11.04 41.2959 10.111 41.2959 9.15977C41.2959 3.71807 38.0812 0.709656 33.0611 0.709656C27.7547 0.709656 24.0776 4.58078 24.0776 10.1331C24.0776 15.6854 27.7106 19.6671 33.017 19.6671C37.9271 19.6671 41.2519 16.8135 41.3399 12.6106H36.4959C36.3418 13.3848 35.9234 14.0706 35.2849 14.5351C34.6464 15.0218 33.8537 15.243 33.0831 15.1324ZM33.0831 4.86835C33.5014 4.80199 33.8978 4.84623 34.2941 4.93471C34.6904 5.04532 35.0647 5.22228 35.395 5.48773C35.7253 5.73106 35.9895 6.06287 36.1877 6.4168C36.3858 6.77073 36.5179 7.16891 36.562 7.5892H29.296C29.5382 6.77073 30.0446 6.06287 30.7492 5.55409C31.4537 5.06744 32.2904 4.82411 33.1491 4.86835H33.0831Z" fill="#8654CC"/>
<path d="M15.4686 1.15222L12.0558 12.1905L8.75302 1.15222H3.2925L0.452148 19.1585H4.9879L6.70532 7.94328L10.0521 19.1585H13.9493L17.4282 7.7442L19.0796 19.1585H23.6814L20.841 1.15222H15.4686Z" fill="#8654CC"/>
<path d="M63.8428 0.709656C58.5805 0.709656 55.586 3.3199 55.7181 7.74405H60.8484C60.8484 5.86378 61.8172 5.0232 63.8648 5.0232C65.3181 5.0232 66.2428 5.64258 66.2428 6.57165C66.2428 7.16891 66.0226 7.41224 65.1199 7.65556L61.0465 8.78372C57.0832 9.86764 55.3218 11.5046 55.3218 14.2254C55.3218 17.455 57.6557 19.6008 61.0906 19.6008C62.1915 19.7114 63.2924 19.468 64.2392 18.915C65.1859 18.362 65.9346 17.5214 66.3749 16.5039V19.2247H71.1088V7.19103C71.0428 2.85537 68.3125 0.709656 63.8428 0.709656ZM62.0814 15.3978C60.8263 15.3978 60.2098 14.7784 60.2098 13.8936C60.2098 12.9867 60.6502 12.5221 61.9933 12.1018L66.2869 10.8852V11.217C66.3089 11.77 66.1988 12.323 66.0006 12.8318C65.8025 13.3406 65.4942 13.8051 65.0979 14.2033C64.7015 14.6015 64.2392 14.9112 63.7107 15.1102C63.1823 15.3315 62.6318 15.4199 62.0814 15.3978Z" fill="#8654CC"/>
<path d="M95.3506 23.9581V28.5592H100.481V41.9644H105.435V28.5592H110.543V23.9581H95.3506Z" fill="#8654CC"/>
<path d="M77.5379 23.9581H72.0994L68.2462 30.6386H66.2866V23.9581H61.3325V41.9644H66.2866V35.0627H68.2242L72.3637 41.9644H77.9563L72.4737 32.7843L77.5379 23.9581Z" fill="#8654CC"/>
<path d="M33.3917 23.5156C28.1293 23.5156 25.1128 26.1258 25.2669 30.55H30.3972C30.3972 28.6697 31.366 27.8291 33.4137 27.8291C34.8669 27.8291 35.7916 28.4485 35.7916 29.3776C35.7916 29.9527 35.5715 30.196 34.6467 30.4615L30.5733 31.5896C26.6321 32.6735 24.8706 34.3105 24.8706 37.0313C24.8706 40.2388 27.2045 42.4067 30.6394 42.4067C31.7403 42.5173 32.8412 42.2961 33.788 41.7209C34.7348 41.1679 35.4834 40.3052 35.9017 39.2876V42.0085H40.6357V29.9527C40.5916 25.6613 37.8614 23.5156 33.3917 23.5156ZM31.6082 38.2258C30.3752 38.2258 29.7587 37.6065 29.7587 36.6995C29.7587 35.7926 30.199 35.328 31.5641 34.952L35.8357 33.7353V34.045C35.8577 34.598 35.7476 35.1511 35.5494 35.682C35.3513 36.1907 35.021 36.6774 34.6467 37.0534C34.2504 37.4516 33.788 37.7613 33.2595 37.9604C32.7091 38.1374 32.1586 38.248 31.6082 38.2258Z" fill="#8654CC"/>
<path d="M52.6795 23.5382C51.6446 23.4718 50.6097 23.7373 49.751 24.3124C48.8703 24.8654 48.2098 25.706 47.8354 26.6793V23.9363H42.8813V46.8977H47.8354V39.3324C48.2098 40.2836 48.8923 41.102 49.751 41.6551C50.6097 42.2081 51.6446 42.4735 52.6574 42.4072C56.7308 42.4072 59.4391 39.2218 59.4391 32.9837C59.4611 26.7236 56.7748 23.5382 52.6795 23.5382ZM51.3143 37.7839C49.0465 37.7839 47.7033 36.2355 47.7033 32.9616C47.7033 29.6877 49.0685 28.1393 51.2923 28.1393C53.5382 28.1393 54.6391 29.7099 54.6391 32.9616C54.6391 36.2355 53.4941 37.7839 51.2923 37.7839H51.3143Z" fill="#8654CC"/>
<path d="M15.4686 23.9581L12.0558 34.9964L8.75302 23.9581H3.2925L0.452148 41.9644H4.9879L6.70532 30.7492L10.0521 41.9644H13.9493L17.4282 30.5722L19.0796 41.9865H23.6814L20.841 23.9803H15.4686V23.9581Z" fill="#8654CC"/>
<path d="M85.9713 37.9613C85.4208 37.9835 84.8924 37.895 84.386 37.6959C83.8795 37.4968 83.4172 37.2092 83.0429 36.8111C82.6685 36.435 82.3603 35.9705 82.1621 35.4617C81.964 34.9529 81.8759 34.422 81.8979 33.869H94.096C94.096 33.869 94.1841 32.9399 94.1841 31.9888C94.1841 26.5471 90.9914 23.5386 85.9493 23.5386C80.6429 23.5386 76.9658 27.4098 76.9658 32.9399C76.9658 38.4701 80.5988 42.474 85.9052 42.474C90.8153 42.474 94.14 39.6204 94.2501 35.4175H89.4061C89.274 36.1917 88.8336 36.8996 88.1951 37.3641C87.5566 37.8507 86.7639 38.0498 85.9713 37.9613ZM85.9713 27.6973C86.3896 27.6531 86.7859 27.6752 87.1823 27.7858C87.5786 27.8964 87.9529 28.0734 88.2832 28.3388C88.6135 28.5822 88.8777 28.914 89.0758 29.2679C89.274 29.6218 89.4061 30.02 89.4502 30.4403H82.1621C82.4043 29.6218 82.9107 28.8919 83.6153 28.4052C84.3199 27.9185 85.1566 27.6752 86.0153 27.7195H85.9713V27.6973Z" fill="#8654CC"/>
</svg>
