<svg width="252" height="49" viewBox="0 0 252 49" fill="none" xmlns="http://www.w3.org/2000/svg">
<path d="M83.3626 17.3289C83.4261 16.3821 83.3626 16.1463 83.0142 16.1463C82.8237 16.1463 82.6659 16.3492 82.4119 17.126L78.4766 28.6539C77.9685 30.107 77.397 30.7833 76.4445 30.7504C75.4611 30.7176 74.7934 29.9389 74.5721 28.3158L73.2077 18.1752C73.0807 17.3308 72.9864 17.0603 72.7323 17.0603C72.4475 17.0603 72.384 17.2632 72.2243 18.1752L70.6368 27.91L67.6214 27.3013L71.0178 9.41818C71.6528 6.13912 72.3513 5.12468 73.9062 5.12468C75.2398 5.12468 76.0961 6.34201 76.3501 8.97763L77.6202 21.5528C77.651 21.6881 77.7145 21.7209 77.8107 21.7209C77.9068 21.7209 77.9685 21.6533 78.0012 21.5857L81.6516 10.9717C82.7312 7.86271 83.8416 6.6106 85.2694 6.74585C86.9205 6.91396 87.4285 8.09844 87.4285 11.5804V32.6073L82.2867 33.6546L83.3662 17.327L83.3626 17.3289ZM23.1809 22.9402C23.2117 22.0958 23.4022 21.69 23.6563 21.69C23.9411 21.69 24.1008 21.9258 24.2913 22.9074L26.4503 33.6566C27.2432 37.6796 28.2919 39.4031 29.9103 39.4031C31.6248 39.4031 32.7044 37.7472 33.8782 33.3513L41.0195 6.8502C41.1138 6.44442 41.21 6.07343 41.21 5.80291C41.21 5.19424 40.8616 4.8561 39.8765 5.05898L33.5916 6.27631L32.0367 29.736C31.9732 30.5804 31.8153 30.9862 31.5287 30.9862C31.2112 30.9862 31.0533 30.648 30.9263 29.7688L28.4497 11.1437C28.0052 7.86464 27.0854 6.27631 25.5613 6.27631C23.8468 6.27631 22.8634 7.69653 22.1649 11.3137L15.7856 44L22.134 42.715L23.1809 22.9402ZM41.3678 22.6697C41.3678 28.281 43.3672 31.3243 46.8272 31.3243C50.699 31.3243 53.4296 27.3361 53.4296 17.4313C53.4296 15.0991 53.3987 12.4287 53.2717 10.2993C52.4462 11.2113 51.1453 12.4287 50.1293 13.1397C50.2563 14.3899 50.3198 16.4516 50.3198 18.9539C50.3198 23.3479 49.9079 28.2153 48.3839 28.2153C47.4949 28.2153 47.21 26.0183 47.21 23.145C47.21 19.5626 47.6545 15.3019 47.9394 14.0846C46.956 14.4228 43.9079 14.9638 41.6872 15.0991C41.4967 17.0932 41.3697 20.1693 41.3697 22.6716L41.3678 22.6697ZM60.667 28.1805C64.0634 28.1805 65.9358 24.801 65.9358 18.8844C65.9358 16.6874 65.8723 15.3019 65.8415 14.5909C65.27 14.2875 64.1269 13.7117 63.0166 12.9001C63.0474 13.8122 63.1436 15.8082 63.1436 18.5791C63.1436 22.973 62.6047 25.4406 61.7465 25.4406C60.8266 25.4406 60.4765 23.8175 60.4765 18.7472C60.4765 15.1648 60.6343 11.9185 60.667 11.0394C58.8254 9.65392 56.3507 7.48978 55.7792 6.81348C55.4616 12.3572 55.3981 15.7039 55.3981 18.7472C55.3981 24.4261 57.4937 28.1786 60.667 28.1786V28.1805Z" fill="#131313"/>
<path d="M116.5 15.5L135.5 34.5" stroke="#141414"/>
<path d="M135.5 15.5L116.5 34.5" stroke="#141414"/>
<path d="M233.363 17.3289C233.426 16.3821 233.363 16.1463 233.014 16.1463C232.824 16.1463 232.666 16.3492 232.412 17.126L228.477 28.6539C227.969 30.107 227.397 30.7833 226.444 30.7504C225.461 30.7176 224.793 29.9389 224.572 28.3158L223.208 18.1752C223.081 17.3308 222.986 17.0603 222.732 17.0603C222.447 17.0603 222.384 17.2632 222.224 18.1752L220.637 27.91L217.621 27.3013L221.018 9.41818C221.653 6.13912 222.351 5.12468 223.906 5.12468C225.24 5.12468 226.096 6.34201 226.35 8.97763L227.62 21.5528C227.651 21.6881 227.715 21.7209 227.811 21.7209C227.907 21.7209 227.969 21.6533 228.001 21.5857L231.652 10.9717C232.731 7.86271 233.842 6.6106 235.269 6.74585C236.92 6.91396 237.429 8.09844 237.429 11.5804V32.6073L232.287 33.6546L233.366 17.327L233.363 17.3289ZM173.181 22.9402C173.212 22.0958 173.402 21.69 173.656 21.69C173.941 21.69 174.101 21.9258 174.291 22.9074L176.45 33.6566C177.243 37.6796 178.292 39.4031 179.91 39.4031C181.625 39.4031 182.704 37.7472 183.878 33.3513L191.019 6.8502C191.114 6.44442 191.21 6.07343 191.21 5.80291C191.21 5.19424 190.862 4.8561 189.876 5.05898L183.592 6.27631L182.037 29.736C181.973 30.5804 181.815 30.9862 181.529 30.9862C181.211 30.9862 181.053 30.648 180.926 29.7688L178.45 11.1437C178.005 7.86464 177.085 6.27631 175.561 6.27631C173.847 6.27631 172.863 7.69653 172.165 11.3137L165.786 44L172.134 42.715L173.181 22.9402ZM191.368 22.6697C191.368 28.281 193.367 31.3243 196.827 31.3243C200.699 31.3243 203.43 27.3361 203.43 17.4313C203.43 15.0991 203.399 12.4287 203.272 10.2993C202.446 11.2113 201.145 12.4287 200.129 13.1397C200.256 14.3899 200.32 16.4516 200.32 18.9539C200.32 23.3479 199.908 28.2153 198.384 28.2153C197.495 28.2153 197.21 26.0183 197.21 23.145C197.21 19.5626 197.655 15.3019 197.939 14.0846C196.956 14.4228 193.908 14.9638 191.687 15.0991C191.497 17.0932 191.37 20.1693 191.37 22.6716L191.368 22.6697ZM210.667 28.1805C214.063 28.1805 215.936 24.801 215.936 18.8844C215.936 16.6874 215.872 15.3019 215.841 14.5909C215.27 14.2875 214.127 13.7117 213.017 12.9001C213.047 13.8122 213.144 15.8082 213.144 18.5791C213.144 22.973 212.605 25.4406 211.747 25.4406C210.827 25.4406 210.476 23.8175 210.476 18.7472C210.476 15.1648 210.634 11.9185 210.667 11.0394C208.825 9.65392 206.351 7.48978 205.779 6.81348C205.462 12.3572 205.398 15.7039 205.398 18.7472C205.398 24.4261 207.494 28.1786 210.667 28.1786V28.1805Z" fill="#131313"/>
</svg>
