<svg width="116" height="62" viewBox="0 0 116 62" fill="none" xmlns="http://www.w3.org/2000/svg">
<path d="M109.417 19.5998C109.519 18.0946 109.417 17.7198 108.853 17.7198C108.544 17.7198 108.289 18.0424 107.877 19.2772L101.506 37.6037C100.683 39.9137 99.7576 40.9888 98.2153 40.9366C96.6231 40.8844 95.542 39.6464 95.1836 37.0661L92.9745 20.9452C92.7689 19.6028 92.6161 19.1728 92.2048 19.1728C91.7436 19.1728 91.6408 19.4953 91.3823 20.9452L88.8118 36.421L83.9294 35.4534L89.4287 7.02378C90.4569 1.81091 91.5879 0.198211 94.1055 0.198211C96.2647 0.198211 97.6513 2.13345 98.0626 6.32341L100.119 26.3148C100.169 26.5298 100.272 26.582 100.427 26.582C100.583 26.582 100.683 26.4745 100.736 26.367L106.646 9.49352C108.394 4.55097 110.192 2.56044 112.504 2.77546C115.177 3.04271 116 4.92573 116 10.4611V43.8886L107.675 45.5535L109.423 19.5967L109.417 19.5998ZM11.974 28.5203C12.0239 27.1779 12.3324 26.5329 12.7436 26.5329C13.2049 26.5329 13.4634 26.9076 13.7718 28.4681L17.2677 45.5566C18.5514 51.9521 20.2494 54.6922 22.8698 54.6922C25.6459 54.6922 27.3938 52.0596 29.2945 45.0712L40.8572 2.94134C41.01 2.29626 41.1656 1.70647 41.1656 1.27642C41.1656 0.308796 40.6016 -0.228771 39.0065 0.0937696L28.8303 2.02901L26.3128 39.3239C26.2099 40.6663 25.9544 41.3113 25.4902 41.3113C24.9761 41.3113 24.7205 40.7738 24.5149 39.3761L20.505 9.76691C19.7852 4.55404 18.2958 2.02901 15.8282 2.02901C13.0521 2.02901 11.4599 4.28679 10.3289 10.0372L0 62L10.2789 59.9572L11.974 28.5203ZM41.4212 28.0903C41.4212 37.0108 44.6585 41.8489 50.2607 41.8489C56.5297 41.8489 60.9509 35.5087 60.9509 19.7626C60.9509 16.0549 60.901 11.8097 60.6953 8.42453C59.3587 9.87442 57.2524 11.8097 55.6073 12.9401C55.8129 14.9276 55.9157 18.2052 55.9157 22.1832C55.9157 29.1685 55.2489 36.9064 52.7812 36.9064C51.3418 36.9064 50.8805 33.4137 50.8805 28.8459C50.8805 23.1508 51.6003 16.3774 52.0615 14.4422C50.4693 14.9798 45.534 15.8399 41.9383 16.0549C41.6298 19.225 41.4242 24.1153 41.4242 28.0933L41.4212 28.0903ZM72.6693 36.8511C78.1686 36.8511 81.2003 31.4785 81.2003 22.0726C81.2003 18.5799 81.0975 16.3774 81.0475 15.247C80.1222 14.7647 78.2714 13.8493 76.4736 12.5592C76.5235 14.0091 76.6792 17.1823 76.6792 21.5872C76.6792 28.5725 75.8067 32.4952 74.4172 32.4952C72.9278 32.4952 72.3608 29.9149 72.3608 21.8545C72.3608 16.1593 72.6164 10.9987 72.6693 9.60103C69.6875 7.39854 65.6805 3.95811 64.7552 2.88298C64.2411 11.696 64.1383 17.0164 64.1383 21.8545C64.1383 30.8825 67.5313 36.848 72.6693 36.848V36.8511Z" fill="#552BEF"/>
</svg>
