<svg width="302" height="405" viewBox="0 0 302 405" fill="none" xmlns="http://www.w3.org/2000/svg">
<g clip-path="url(#clip0_2614_18729)">
<path d="M-91.3262 242.5C-91.3262 213.3 -67.781 189.633 -38.7327 189.633C-9.68433 189.633 13.8608 213.3 13.8608 242.5"  stroke-miterlimit="10"/>
<path d="M-11.426 364.013C-25.985 355.26 -36.0625 336.284 -36.0625 314.274C-36.0625 283.977 -16.9291 259.399 6.66247 259.399C13.9071 259.399 20.7338 261.71 26.7014 265.794"  stroke-miterlimit="10"/>
<path d="M-8.45508 119.19C-3.78784 116.903 1.27415 115.642 6.54511 115.642C29.951 115.642 48.9218 140.244 48.9218 170.61C48.9218 191.477 39.5641 210.407 26.3518 219.72"  stroke-miterlimit="10"/>
<path d="M81.3157 398.745C66.1762 398.745 53.916 374.237 53.916 344.01C53.916 313.784 66.1762 289.275 81.3157 289.275"  stroke-miterlimit="10"/>
<path d="M74.1855 88.5662C88.8374 86.6055 103.861 108.709 107.762 137.979C111.663 167.249 102.955 192.55 88.3034 194.534"  stroke-miterlimit="10"/>
<path d="M385.289 242.5C385.289 213.3 361.743 189.633 332.695 189.633C303.647 189.633 280.102 213.3 280.102 242.5"  stroke-miterlimit="10"/>
<path d="M303.159 365.157C319.018 357.105 330.234 337.335 330.234 314.227C330.234 283.954 310.984 259.423 287.253 259.423C278.43 259.423 270.233 262.807 263.406 268.642"  stroke-miterlimit="10"/>
<path d="M305.411 121.104C300.117 118.023 293.592 115.642 287.416 115.642C264.01 115.642 245.039 140.243 245.039 170.61C245.039 191.103 253.979 209.589 266.796 219.042"  stroke-miterlimit="10"/>
<path d="M212.277 398.838C227.719 397.788 240.072 373.934 240.072 343.847C240.072 313.761 227.812 289.369 212.672 289.369"  stroke-miterlimit="10"/>
<path d="M221.17 89.1501C206.611 86.7927 191.007 108.453 186.339 137.536C181.672 166.619 190.449 189.376 204.242 194.511"  stroke-miterlimit="10"/>
<path d="M280.103 242.5C280.103 212.8 220.503 188.723 146.982 188.723C73.4615 188.723 13.8613 212.8 13.8613 242.5C13.8613 272.201 73.4615 296.278 146.982 296.278C220.503 296.278 280.103 272.201 280.103 242.5Z"  stroke-miterlimit="10"/>
<path d="M385.289 242.5C385.289 152.754 278.595 80.0003 146.982 80.0003C15.3679 80.0003 -91.3262 152.754 -91.3262 242.5C-91.3262 332.246 15.3679 405 146.982 405C278.595 405 385.289 332.246 385.289 242.5Z"  stroke-miterlimit="10"/>
<path d="M379.484 237.202C379.484 152.122 275.389 83.1516 146.981 83.1516C18.5735 83.1516 -85.5215 152.122 -85.5215 237.202C-85.5215 322.282 18.5735 391.252 146.981 391.252C275.389 391.252 379.484 322.282 379.484 237.202Z"  stroke-miterlimit="10"/>
<path d="M369.267 228.963C369.267 150.715 269.746 87.2833 146.981 87.2833C24.2161 87.2833 -75.3047 150.715 -75.3047 228.963C-75.3047 307.21 24.2161 370.643 146.981 370.643C269.746 370.643 369.267 307.21 369.267 228.963Z"  stroke-miterlimit="10"/>
<path d="M356.451 222.099C356.451 151.11 262.668 93.5608 146.982 93.5608C31.2959 93.5608 -62.4863 151.11 -62.4863 222.099C-62.4863 293.089 31.2959 350.638 146.982 350.638C262.668 350.638 356.451 293.089 356.451 222.099Z"  stroke-miterlimit="10"/>
<path d="M343.377 215.238C343.377 152.485 255.448 101.614 146.981 101.614C38.5152 101.614 -49.4141 152.485 -49.4141 215.238C-49.4141 277.991 38.5152 328.862 146.981 328.862C255.448 328.862 343.377 277.991 343.377 215.238Z"  stroke-miterlimit="10"/>
<path d="M325.265 215.238C325.265 158.273 245.445 112.094 146.981 112.094C48.5177 112.094 -31.3027 158.273 -31.3027 215.238C-31.3027 272.203 48.5177 318.382 146.981 318.382C245.445 318.382 325.265 272.203 325.265 215.238Z"  stroke-miterlimit="10"/>
<path d="M308.269 215.238C308.269 163.7 236.058 121.921 146.982 121.921C57.9059 121.921 -14.3047 163.7 -14.3047 215.238C-14.3047 266.776 57.9059 308.555 146.982 308.555C236.058 308.555 308.269 266.776 308.269 215.238Z"  stroke-miterlimit="10"/>
<path d="M298.261 218.925C298.261 264.207 230.528 297.935 146.982 297.935C63.4361 297.935 -4.29687 264.207 -4.29687 218.925C-4.29687 173.644 63.4361 136.929 146.982 136.929C230.528 136.929 298.261 173.644 298.261 218.925Z"  stroke-miterlimit="10"/>
<path d="M15.2759 250.342C9.63341 242.71 6.56836 234.47 6.56836 225.858C6.56836 186.972 69.4484 155.438 146.98 155.438C224.512 155.438 287.392 186.972 287.392 225.858C287.392 234.354 284.374 242.523 278.87 250.062"  stroke-miterlimit="10"/>
<path d="M12.6309 231.063C12.6309 197.685 72.7709 170.61 146.982 170.61C221.194 170.61 281.334 197.685 281.334 231.063"  stroke-miterlimit="10"/>
<path d="M14.5332 235.334C14.5332 206.672 73.8373 183.448 146.981 183.448C220.124 183.448 279.428 206.672 279.428 235.334"  stroke-miterlimit="10"/>
<path d="M146.982 188.723V80.0004"  stroke-miterlimit="10"/>
<path d="M146.982 297.935V405"  stroke-miterlimit="10"/>
</g>
<defs>
<clipPath id="clip0_2614_18729">
<rect width="302" height="405" fill="white"/>
</clipPath>
</defs>
</svg>
