<svg width="30" height="16" viewBox="0 0 30 16" fill="none" xmlns="http://www.w3.org/2000/svg">
<path d="M27.5378 5.23345C27.5629 4.88104 27.5378 4.79329 27.4003 4.79329C27.3251 4.79329 27.2628 4.86881 27.1625 5.15793L25.6088 9.44872C25.4082 9.98956 25.1825 10.2413 24.8065 10.2291C24.4182 10.2168 24.1546 9.92699 24.0672 9.32286L23.5285 5.54846C23.4784 5.23417 23.4411 5.13348 23.3409 5.13348C23.2284 5.13348 23.2033 5.209 23.1403 5.54846L22.5135 9.17183L21.323 8.94528L22.6639 2.28902C22.9146 1.06852 23.1904 0.690939 23.8043 0.690939C24.3308 0.690939 24.6689 1.14404 24.7692 2.12504L25.2707 6.80564C25.2828 6.85598 25.3079 6.86821 25.3459 6.86821C25.3838 6.86821 25.4082 6.84303 25.4211 6.81786L26.8623 2.86726C27.2886 1.71005 27.7269 1.24401 28.2907 1.29435C28.9426 1.35692 29.1431 1.7978 29.1431 3.09381V10.9202L27.1131 11.31L27.5393 5.23273L27.5378 5.23345ZM3.77718 7.32203C3.78936 7.00773 3.86457 6.8567 3.96486 6.8567C4.07732 6.8567 4.14036 6.94444 4.21558 7.3098L5.06801 11.3107C5.38104 12.8081 5.79508 13.4497 6.43405 13.4497C7.11098 13.4497 7.5372 12.8333 8.00066 11.1971L10.8201 1.33319C10.8574 1.18216 10.8954 1.04407 10.8954 0.94338C10.8954 0.71683 10.7578 0.590969 10.3688 0.666486L7.88748 1.11959L7.27359 9.85148C7.24852 10.1658 7.18619 10.3168 7.07301 10.3168C6.94766 10.3168 6.88534 10.1909 6.83519 9.8637L5.8574 2.93127C5.6819 1.71077 5.31872 1.11959 4.71701 1.11959C4.04008 1.11959 3.65182 1.6482 3.37604 2.99456L0.857422 15.1607L3.36386 14.6824L3.77718 7.32203ZM10.9577 7.22134C10.9577 9.30991 11.7471 10.4427 13.1131 10.4427C14.6418 10.4427 15.7198 8.95822 15.7198 5.27157C15.7198 4.40348 15.7077 3.40954 15.6575 2.61697C15.3316 2.95644 14.818 3.40954 14.4168 3.67421C14.467 4.13954 14.492 4.90693 14.492 5.8383C14.492 7.47378 14.3294 9.28546 13.7277 9.28546C13.3767 9.28546 13.2643 8.46772 13.2643 7.39826C13.2643 6.06485 13.4398 4.479 13.5522 4.0259C13.164 4.15176 11.9605 4.35314 11.0837 4.40348C11.0085 5.14571 10.9584 6.29068 10.9584 7.22206L10.9577 7.22134ZM18.5773 9.27252C19.9182 9.27252 20.6575 8.01462 20.6575 5.81241C20.6575 4.99467 20.6324 4.479 20.6202 4.21433C20.3946 4.10142 19.9433 3.88709 19.5049 3.58503C19.5171 3.92449 19.5551 4.66743 19.5551 5.69878C19.5551 7.33425 19.3423 8.25268 19.0035 8.25268C18.6403 8.25268 18.5021 7.64855 18.5021 5.76135C18.5021 4.42794 18.5644 3.21967 18.5773 2.89243C17.8502 2.37676 16.8731 1.57125 16.6475 1.31953C16.5221 3.38293 16.497 4.6286 16.497 5.76135C16.497 7.8751 17.3244 9.2718 18.5773 9.2718V9.27252Z" fill="#552BEF"/>
</svg>
