<svg width="95" height="35" viewBox="0 0 95 35" fill="none" xmlns="http://www.w3.org/2000/svg">
<path d="M27.7679 25.1838L27.7676 6.77417H26.541V25.185C26.5421 27.2247 29.6074 27.2247 29.6074 27.2247V27.0206C27.7679 27.0209 27.7679 25.1838 27.7679 25.1838Z" fill="#2C30A2"/>
<path d="M31.4478 25.1838C31.4478 25.1838 31.4478 27.0206 29.6079 27.0206V27.2247C29.6079 27.2247 32.6732 27.2247 32.6743 25.185V6.77417H31.4478V25.1838Z" fill="#2C30A2"/>
<path d="M19.0337 6.77417H17.8071V26.9796V27.184H19.0337H23.1227V26.9796H19.0337V6.77417Z" fill="#2C30A2"/>
<path d="M85.6636 6.77417H84.437H82.0811V6.97834H84.437V27.184H85.6636V6.97834H88.2142V6.77417H85.6636Z" fill="#2C30A2"/>
<path d="M37.2129 6.77417V6.97834V21.979V22.1832V26.9796V27.184H38.4395H42.5285V26.9796H38.4395V22.1832H41.0359V21.979H38.4395V6.97834H42.5285V6.77417H38.4395H37.2129Z" fill="#2C30A2"/>
<path d="M10.1657 6.77417H9.14335H7.9165V6.97806V21.979V22.1832V26.9796V27.184H9.14335H10.1657C10.1668 27.184 13.231 27.1835 13.2321 25.1443V24.019C13.2315 22.7304 12.0084 22.2561 11.1073 22.0811C12.0084 21.9063 13.2312 21.4318 13.2321 20.1434V8.81281C13.2298 6.77389 10.1657 6.77417 10.1657 6.77417ZM12.0055 24.0202V25.1428C12.0055 25.1428 12.0055 26.9796 10.1657 26.9796H9.14335V22.1832H10.1679C12.0055 22.1848 12.0055 24.0202 12.0055 24.0202ZM12.0055 20.1423C12.0055 20.1423 12.0055 21.9776 10.1679 21.979H9.14335V6.97834H10.1657C12.0055 6.97834 12.0055 8.81507 12.0055 8.81507V20.1423Z" fill="#2C30A2"/>
<path d="M59.5751 11.8766C60.4764 11.7018 61.699 11.2273 61.7002 9.9386V8.81281C61.6973 6.77445 58.6346 6.77417 58.6335 6.77417H57.6108H56.3843V6.97834V11.7745V11.9787V27.184H57.6108V11.9787H58.6354C60.4727 11.9801 60.4727 13.8154 60.4727 13.8154H60.473V27.1837H61.6999V13.8142C61.699 12.5256 60.4761 12.0513 59.5751 11.8766ZM57.6108 11.7745V6.97834H58.6332C60.4727 6.97834 60.4727 8.81507 60.4727 8.81507H60.473V9.93747H60.4727C60.4727 9.93747 60.4727 11.7731 58.6354 11.7745H57.6108Z" fill="#2C30A2"/>
<path d="M48.9383 6.77417H47.916H46.6895V6.97806V21.979V22.1832V27.184H47.916V22.1832H48.9383C48.9406 22.1832 52.0039 22.1826 52.005 20.1437V8.81281C52.0028 6.77389 48.9383 6.77417 48.9383 6.77417ZM50.7785 20.1423C50.7785 20.1423 50.7785 21.979 48.9383 21.979H47.916V6.97834H48.9383C50.7785 6.97834 50.7785 8.81507 50.7785 8.81507V20.1423Z" fill="#2C30A2"/>
<path d="M77.1812 19.0213V19.7316V24.1531L73.5015 11.9071V7.48567V6.7753V6.77417H73.5009H73.2873H72.2749V27.1843H73.5015V12.6175L77.1812 24.8637V27.1843H78.4077V23.8137V23.1034V6.77417H77.1812V19.0213Z" fill="#2C30A2"/>
<path d="M67.5987 11.775H66.3716V27.1846H67.5987V11.775Z" fill="#2C30A2"/>
<path d="M66.9851 6.77417C66.6466 6.77417 66.3716 7.04819 66.3716 7.38641C66.3716 7.72463 66.6466 7.99865 66.9851 7.99865C67.3237 7.99865 67.5987 7.72463 67.5987 7.38641C67.5987 7.04819 67.3237 6.77417 66.9851 6.77417Z" fill="#2C30A2"/>
</svg>
