<svg width="95" height="35" viewBox="0 0 95 35" fill="none" xmlns="http://www.w3.org/2000/svg">
<g clip-path="url(#clip0_3080_11951)">
<path d="M51.4001 13.3552C50.3095 12.3133 48.8372 11.6667 47.1832 11.6667C43.8751 11.6667 41.2031 14.2892 41.2031 17.5045C41.2031 20.7198 43.8751 23.3424 47.1832 23.3424C48.819 23.3424 50.3095 22.6957 51.4001 21.6539V23.037H53.5812V11.9541H51.4001V13.3372V13.3552ZM47.3831 21.4922C45.1656 21.4922 43.3661 19.7139 43.3661 17.5225C43.3661 15.331 45.1656 13.5527 47.3831 13.5527C49.6006 13.5527 51.4001 15.331 51.4001 17.5225C51.4001 19.7139 49.6006 21.4922 47.3831 21.4922Z" fill="#131313"/>
<path d="M39.9674 15.1871C39.9674 13.4088 38.4951 11.9539 36.6956 11.9539H28.7344V23.0368H30.9155V18.4204H34.2782L38.0952 23.0368H40.8762L36.9501 18.4204C38.6405 18.2946 39.9674 16.8936 39.9674 15.2051V15.1871ZM30.9155 13.804H36.3684C37.15 13.804 37.768 14.4327 37.768 15.1871C37.768 15.9416 37.1319 16.5702 36.3684 16.5702H30.9155V13.804Z" fill="#131313"/>
<path d="M63.6873 11.9539H55.7261V23.0368H57.9072V18.4204H63.6873C65.4868 18.4204 66.959 16.9654 66.959 15.1871C66.959 13.4088 65.4868 11.9539 63.6873 11.9539ZM63.3783 16.5702H57.9254V13.804H63.3783C64.1599 13.804 64.7779 14.4327 64.7779 15.1871C64.7779 15.9416 64.1417 16.5702 63.3783 16.5702Z" fill="#131313"/>
<path d="M19.8642 16.5884V18.4386H24.79C24.372 20.1809 22.7725 21.4922 20.8821 21.4922C18.6646 21.4922 16.8651 19.7139 16.8651 17.5225C16.8651 15.331 18.6646 13.5527 20.8821 13.5527C22.2272 13.5527 23.4268 14.2174 24.1539 15.2233H26.5531C25.608 13.1396 23.4268 11.6846 20.8821 11.6846C17.465 11.6846 14.7021 14.3072 14.7021 17.5225C14.7021 20.7378 17.465 23.3603 20.8821 23.3603C24.2993 23.3603 27.0621 20.7378 27.0621 17.5225C27.0621 17.2171 27.0439 16.8938 26.9894 16.6064H19.8824L19.8642 16.5884Z" fill="#131313"/>
<path d="M80.1187 17.5045C80.1187 14.2713 77.3559 11.6667 73.9387 11.6667C70.5216 11.6667 67.7588 14.2892 67.7588 17.5045C67.7588 20.7198 70.5216 23.3424 73.9387 23.3424C76.4834 23.3424 78.6646 21.8874 79.6098 19.8037H77.2105C76.4834 20.8096 75.2838 21.4743 73.9387 21.4743C72.0302 21.4743 70.4489 20.1809 70.0308 18.4206H80.046C80.1005 18.1152 80.1187 17.8099 80.1187 17.5045ZM70.0308 16.5884C70.4489 14.8461 72.0484 13.5348 73.9387 13.5348C75.8291 13.5348 77.4286 14.8281 77.8467 16.5884H70.0308Z" fill="#131313"/>
</g>
<defs>
<clipPath id="clip0_3080_11951">
<rect width="65.5952" height="35" fill="white" transform="translate(14.7021)"/>
</clipPath>
</defs>
</svg>
