<svg width="94" height="35" viewBox="0 0 94 35" fill="none" xmlns="http://www.w3.org/2000/svg">
<g clip-path="url(#clip0_3080_11953)">
<path d="M36.4179 11.9034V15.5619H36.8394L40.9084 11.9034H44.6771L39.615 16.4475V16.9411L44.7982 21.9545H40.8939L36.8539 18.0541H36.4179V21.9545H33.3564V11.9034H36.4179Z" fill="#131313"/>
<path d="M50.3834 14.0037C53.4158 14.0037 55.4746 15.2812 55.4746 17.7686V18.3396C55.4746 20.8754 53.4158 22.1046 50.3834 22.1046H49.991C46.9586 22.1046 44.8999 20.8754 44.8999 18.3396V17.7686C44.8999 15.2764 46.9441 14.0037 49.991 14.0037H50.3834ZM47.8887 17.7541V18.3541C47.8887 19.1962 48.3973 19.8253 49.991 19.8253H50.3834C51.9771 19.8253 52.4858 19.1962 52.4858 18.3541V17.7541C52.4858 16.8975 51.9771 16.2829 50.3834 16.2829H49.991C48.3973 16.2829 47.8887 16.8975 47.8887 17.7541Z" fill="#131313"/>
<path d="M60.0669 14.1537V15.2328H60.4108C60.934 14.4827 61.9125 14.0037 63.3221 14.0037H63.7C65.9234 14.0037 67.0472 15.1457 67.0472 17.5315V21.9594H64.0584V18.0299C64.0584 16.9943 63.5353 16.3797 62.2564 16.3797H61.8786C60.6046 16.3797 60.062 16.9943 60.062 18.0299V21.9594H57.0732V14.1537H60.062H60.0669Z" fill="#131313"/>
<path d="M72.9228 14.0037C74.3518 14.0037 75.1898 14.4828 75.805 15.1457H76.1635V10.8533H79.1378V21.9546H76.1635V20.9335H75.805C75.2334 21.6255 74.3906 22.1046 72.9228 22.1046H72.545C70.3651 22.1046 68.5776 21.0835 68.5776 18.3396V17.7686C68.5776 15.0683 70.3651 14.0037 72.545 14.0037H72.9228ZM71.5713 17.7541V18.3542C71.5713 19.3752 72.4578 19.8253 73.6736 19.8253H74.0515C75.2819 19.8253 76.1683 19.3752 76.1683 18.3542V17.7541C76.1683 16.733 75.2819 16.283 74.0515 16.283H73.6736C72.4578 16.283 71.5713 16.733 71.5713 17.7541Z" fill="#131313"/>
<path d="M85.9583 14.0037H85.5805C82.4173 14.0037 80.9447 15.0441 80.8865 16.704H83.8366C83.9044 16.2152 84.4276 15.9539 85.5659 15.9539H85.9244C87.1403 15.9539 87.6537 16.2829 87.6537 16.883V17.125H84.5874C81.928 17.125 80.7412 18.0251 80.7412 19.7382C80.7412 21.3303 82.0346 22.1094 83.9383 22.1094C85.6192 22.1094 86.5832 21.6884 87.2275 20.8947H87.6489V21.9594H90.6377V16.883C90.6377 15.0973 89.2717 14.0037 85.9535 14.0037H85.9583ZM87.6537 18.8961C87.6537 19.7527 86.4233 20.0672 85.3237 20.0672C84.1079 20.0672 83.7494 19.7817 83.7494 19.4043C83.7494 18.9542 84.1079 18.7606 85.1154 18.7606H87.6537V18.8961Z" fill="#131313"/>
<path d="M28.3718 23.6918L22.68 17.1347C22.4136 16.825 22.4136 16.3701 22.68 16.0604L26.8024 11.3082C27.1899 10.8582 26.8702 10.1613 26.2792 10.1613H19.512C18.9452 10.1613 18.4075 10.4081 18.0394 10.834L14.2029 15.2619C13.9413 15.5619 13.5634 15.7361 13.1614 15.7361H7.54224C6.97548 15.7361 6.43779 15.9829 6.06963 16.4088L3.52649 19.3414C3.13896 19.7914 3.45382 20.4883 4.04965 20.4883H10.8168C11.3836 20.4883 11.9213 20.2415 12.2895 19.8156L13.6942 18.1993C13.888 17.9767 14.2368 17.9767 14.4305 18.1993L19.6137 24.1709C19.9819 24.5968 20.5196 24.8436 21.0863 24.8436H27.8535C28.4493 24.8436 28.7642 24.1467 28.3767 23.6967L28.3718 23.6918Z" fill="#131313"/>
</g>
<defs>
<clipPath id="clip0_3080_11953">
<rect width="87.2857" height="14.6774" fill="white" transform="translate(3.35693 10.1613)"/>
</clipPath>
</defs>
</svg>
