<svg width="96" height="35" viewBox="0 0 96 35" fill="none" xmlns="http://www.w3.org/2000/svg">
<path d="M40.8906 14.3313H43.9007V6.37913H47.874V3.64966H40.904V14.3313H40.8906Z" fill="#8654CC"/>
<path d="M34.6836 11.9429C34.3491 11.9561 34.0281 11.9036 33.7204 11.7855C33.4127 11.6674 33.1317 11.4968 32.9043 11.2606C32.6769 11.0375 32.4896 10.7619 32.3692 10.4601C32.2488 10.1583 32.1952 9.84334 32.2086 9.51528H39.6201C39.6201 9.51528 39.6736 8.96413 39.6736 8.39987C39.6736 5.17174 37.7204 3.38708 34.6702 3.38708C31.4461 3.38708 29.2119 5.68352 29.2119 8.97725C29.2119 12.271 31.4193 14.633 34.6434 14.633C37.6268 14.633 39.6469 12.9402 39.7004 10.447H36.7572C36.6635 10.9063 36.4094 11.3131 36.0214 11.5886C35.6334 11.8773 35.1518 12.0085 34.6836 11.9429ZM34.6836 5.85411C34.9378 5.81474 35.1786 5.84099 35.4194 5.89348C35.6602 5.95909 35.8876 6.06407 36.0883 6.22154C36.289 6.36588 36.4495 6.56272 36.5699 6.77268C36.6903 6.98264 36.7706 7.21884 36.7973 7.46817H32.3825C32.5297 6.98264 32.8374 6.56272 33.2655 6.2609C33.6936 5.97221 34.202 5.82786 34.7237 5.85411H34.6836Z" fill="#8654CC"/>
<path d="M23.9808 3.64966L21.9072 10.1978L19.9005 3.64966H16.5827L14.8569 14.3313H17.6128L18.6563 7.67825L20.6898 14.3313H23.0577L25.1715 7.56015L26.1749 14.3313H28.9709L27.2451 3.64966H23.9808Z" fill="#8654CC"/>
<path d="M53.3727 3.38708C50.1753 3.38708 48.3559 4.93554 48.4361 7.56003H51.5532C51.5532 6.44462 52.1419 5.94597 53.386 5.94597C54.269 5.94597 54.8309 6.31339 54.8309 6.86454C54.8309 7.21884 54.6971 7.36319 54.1486 7.50754L51.6736 8.17678C49.2656 8.81979 48.1953 9.79085 48.1953 11.4049C48.1953 13.3208 49.6134 14.5937 51.7004 14.5937C52.3693 14.6593 53.0382 14.5149 53.6135 14.1869C54.1887 13.8588 54.6436 13.3602 54.9112 12.7565V14.3706H57.7875V7.23197C57.7473 4.65996 56.0884 3.38708 53.3727 3.38708ZM52.3024 12.1004C51.5399 12.1004 51.1653 11.733 51.1653 11.2081C51.1653 10.6701 51.4328 10.3945 52.2489 10.1452L54.8576 9.42342V9.62026C54.871 9.94832 54.8041 10.2764 54.6837 10.5782C54.5633 10.88 54.376 11.1556 54.1352 11.3918C53.8944 11.628 53.6135 11.8117 53.2924 11.9298C52.9713 12.061 52.6369 12.1135 52.3024 12.1004Z" fill="#8654CC"/>
<path d="M72.5166 17.1785V19.908H75.6337V27.8602H78.6438V19.908H81.7475V17.1785H72.5166Z" fill="#8654CC"/>
<path d="M61.694 17.1785H58.3896L56.0484 21.1415H54.8577V17.1785H51.8477V27.8602H54.8577V23.766H56.035L58.5501 27.8602H61.9482L58.617 22.4144L61.694 17.1785Z" fill="#8654CC"/>
<path d="M34.8707 16.916C31.6733 16.916 29.8405 18.4645 29.9342 21.089H33.0513C33.0513 19.9735 33.6399 19.4749 34.8841 19.4749C35.767 19.4749 36.3289 19.8423 36.3289 20.3935C36.3289 20.7347 36.1951 20.879 35.6333 21.0365L33.1583 21.7057C30.7636 22.3487 29.6934 23.3198 29.6934 24.9338C29.6934 26.8366 31.1114 28.1226 33.1984 28.1226C33.8673 28.1882 34.5363 28.057 35.1115 27.7158C35.6868 27.3877 36.1416 26.876 36.3958 26.2723V27.8864H39.2721V20.7347C39.2454 18.1889 37.5865 16.916 34.8707 16.916ZM33.7871 25.6425C33.0379 25.6425 32.6633 25.275 32.6633 24.737C32.6633 24.199 32.9309 23.9234 33.7603 23.7003L36.3557 22.9786V23.1623C36.3691 23.4904 36.3022 23.8184 36.1818 24.1334C36.0614 24.4352 35.8607 24.7239 35.6333 24.947C35.3925 25.1832 35.1115 25.3669 34.7904 25.485C34.456 25.59 34.1215 25.6556 33.7871 25.6425Z" fill="#8654CC"/>
<path d="M46.59 16.9294C45.9612 16.8901 45.3325 17.0475 44.8107 17.3887C44.2756 17.7168 43.8742 18.2154 43.6468 18.7928V17.1656H40.6367V30.7868H43.6468V26.2989C43.8742 26.8631 44.289 27.3487 44.8107 27.6767C45.3325 28.0048 45.9612 28.1623 46.5766 28.1229C49.0516 28.1229 50.6971 26.2333 50.6971 22.5327C50.7105 18.8191 49.0783 16.9294 46.59 16.9294ZM45.7606 25.3803C44.3826 25.3803 43.5665 24.4617 43.5665 22.5196C43.5665 20.5775 44.396 19.6589 45.7472 19.6589C47.1117 19.6589 47.7807 20.5906 47.7807 22.5196C47.7807 24.4617 47.085 25.3803 45.7472 25.3803H45.7606Z" fill="#8654CC"/>
<path d="M23.9808 17.1785L21.9072 23.7266L19.9005 17.1785H16.5827L14.8569 27.8602H17.6128L18.6563 21.2071L20.6898 27.8602H23.0577L25.1715 21.1021L26.1749 27.8733H28.9709L27.2451 17.1917H23.9808V17.1785Z" fill="#8654CC"/>
<path d="M66.8179 25.4855C66.4834 25.4987 66.1623 25.4462 65.8546 25.3281C65.5469 25.21 65.266 25.0394 65.0386 24.8032C64.8111 24.5801 64.6238 24.3045 64.5034 24.0027C64.383 23.7009 64.3295 23.3859 64.3429 23.0579H71.7544C71.7544 23.0579 71.8079 22.5067 71.8079 21.9425C71.8079 18.7143 69.8681 16.9297 66.8045 16.9297C63.5803 16.9297 61.3462 19.2261 61.3462 22.5067C61.3462 25.7874 63.5536 28.1625 66.7777 28.1625C69.7611 28.1625 71.7812 26.4697 71.848 23.9765H68.9049C68.8246 24.4357 68.557 24.8557 68.1691 25.1312C67.7811 25.4199 67.2995 25.538 66.8179 25.4855ZM66.8179 19.3967C67.072 19.3705 67.3129 19.3836 67.5537 19.4492C67.7945 19.5148 68.0219 19.6198 68.2226 19.7773C68.4232 19.9216 68.5838 20.1184 68.7042 20.3284C68.8246 20.5384 68.9049 20.7746 68.9316 21.0239H64.5034C64.6506 20.5384 64.9583 20.1053 65.3864 19.8166C65.8145 19.5279 66.3229 19.3836 66.8446 19.4098H66.8179V19.3967Z" fill="#8654CC"/>
</svg>
