<svg width="94" height="35" viewBox="0 0 94 35" fill="none" xmlns="http://www.w3.org/2000/svg">
<path d="M76.8246 11.0644C76.8831 10.2147 76.8246 10.0031 76.5036 10.0031C76.328 10.0031 76.1826 10.1852 75.9485 10.8823L72.3218 21.2279C71.8536 22.5319 71.327 23.1388 70.4491 23.1094C69.5429 23.0799 68.9276 22.381 68.7236 20.9244L67.4662 11.8239C67.3492 11.0661 67.2622 10.8234 67.0281 10.8234C66.7656 10.8234 66.7071 11.0054 66.56 11.8239L65.0969 20.5603L62.318 20.014L65.4481 3.96504C66.0333 1.02229 66.677 0.111893 68.1099 0.111893C69.3389 0.111893 70.1281 1.20437 70.3622 3.56966L71.5326 14.8551C71.561 14.9765 71.6196 15.006 71.7082 15.006C71.7968 15.006 71.8536 14.9453 71.8837 14.8846L75.2479 5.35924C76.2427 2.5691 77.266 1.44541 78.5819 1.56679C80.1035 1.71766 80.5717 2.78065 80.5717 5.90548V24.7758L75.8331 25.7157L76.828 11.0627L76.8246 11.0644ZM21.3631 16.1002C21.3915 15.3424 21.5671 14.9782 21.8012 14.9782C22.0637 14.9782 22.2108 15.1898 22.3864 16.0707L24.3761 25.7174C25.1068 29.3278 26.0732 30.8746 27.5647 30.8746C29.1448 30.8746 30.1396 29.3885 31.2214 25.4434L37.8026 1.66043C37.8895 1.29628 37.9781 0.96333 37.9781 0.720558C37.9781 0.174321 37.6571 -0.129145 36.7492 0.0529345L30.9572 1.14541L29.5243 22.199C29.4658 22.9568 29.3203 23.3209 29.0561 23.3209C28.7635 23.3209 28.6181 23.0175 28.501 22.2284L26.2187 5.51358C25.809 2.57083 24.9613 1.14541 23.5568 1.14541C21.9767 1.14541 21.0705 2.41996 20.4267 5.66618L14.5479 35L20.3983 33.8468L21.3631 16.1002ZM38.1236 15.8574C38.1236 20.8932 39.9662 23.6244 43.1548 23.6244C46.7229 23.6244 49.2393 20.0452 49.2393 11.1563C49.2393 9.06325 49.2109 6.66674 49.0939 4.75578C48.3331 5.57427 47.1342 6.66674 46.1979 7.30489C46.3149 8.42684 46.3734 10.2771 46.3734 12.5228C46.3734 16.4661 45.9939 20.8342 44.5894 20.8342C43.7701 20.8342 43.5076 18.8626 43.5076 16.284C43.5076 13.069 43.9172 9.24533 44.1797 8.15286C43.2735 8.45632 40.4645 8.94187 38.4179 9.06325C38.2423 10.8528 38.1253 13.6135 38.1253 15.8591L38.1236 15.8574ZM55.9091 20.803C59.0391 20.803 60.7647 17.7701 60.7647 12.4603C60.7647 10.4887 60.7062 9.24533 60.6777 8.60719C60.151 8.33494 59.0977 7.81818 58.0744 7.08986C58.1028 7.90835 58.1914 9.69966 58.1914 12.1863C58.1914 16.1297 57.6948 18.3441 56.9039 18.3441C56.0562 18.3441 55.7335 16.8875 55.7335 12.3372C55.7335 9.12221 55.879 6.20895 55.9091 5.41994C54.212 4.17659 51.9313 2.23442 51.4046 1.62749C51.112 6.60258 51.0535 9.60602 51.0535 12.3372C51.0535 17.4337 52.9847 20.8013 55.9091 20.8013V20.803Z" fill="#552BEF"/>
</svg>
