<svg width="67" height="32" viewBox="0 0 67 32" fill="none" xmlns="http://www.w3.org/2000/svg">
<path d="M0.0078125 0.128906H3.53041C6.20273 0.128906 7.40932 0.563223 7.40932 2.35679C7.40932 4.15035 6.05697 4.0458 5.07712 4.13427V4.72944C6.46186 4.79379 8.08145 4.74553 8.08145 6.80451C8.08145 8.86349 5.96789 9.20934 3.52232 9.20934H0.0078125V0.136951V0.128906ZM3.88672 3.40236C4.46977 3.40236 4.93945 3.49084 4.93945 2.84741C4.93945 2.25223 4.46977 2.29245 3.88672 2.29245H2.48578V3.40236H3.88672ZM3.87053 7.0458C4.97185 7.0458 5.60348 7.15036 5.60348 6.31389C5.60348 5.42918 4.97185 5.5659 3.87053 5.5659H2.48578V7.0458H3.87053Z" fill="#131313"/>
<path d="M13.3296 2.29245V7.0458H15.4189V9.20934H8.77051V7.0458H10.8598V2.29245H8.77051V0.128906H15.4189V2.29245H13.3296Z" fill="#131313"/>
<path d="M20.4311 0C22.7228 0 24.6987 1.39142 24.9659 3.36998H22.4879C22.2774 2.46917 21.6295 2.16354 20.4311 2.16354C19.0463 2.16354 18.1879 2.75871 18.1879 4.66488C18.1879 6.57104 18.8925 7.17426 20.1557 7.17426C21.168 7.17426 21.8887 6.73995 21.9049 5.8874H20.2205V4.06166H25.1036C25.881 4.06166 26.3344 4.51207 26.3344 5.30831V9.20912H23.8484V6.18499L24.3262 4.66488H23.7188C23.7026 7.38338 22.6175 9.3378 20.0505 9.3378C17.2891 9.3378 15.71 7.48793 15.71 4.66488C15.71 1.84182 17.783 0.00804461 20.4311 0.00804461V0Z" fill="#131313"/>
<path d="M7.75782 14.6639C7.75782 17.5593 5.8791 17.9373 3.57119 17.9373H2.47797V20.4708H0V11.3984H3.56309C5.871 11.3984 7.74972 11.7684 7.74972 14.6719L7.75782 14.6639ZM5.27985 14.6639C5.27985 13.6183 4.82637 13.5539 3.73315 13.5539H2.47797V15.7657H3.73315C4.82637 15.7657 5.27985 15.7014 5.27985 14.6558V14.6639Z" fill="#131313"/>
<path d="M12.7056 13.5542V18.3075H14.7949V20.4711H8.14648V18.3075H10.2358V13.5542H8.14648V11.3906H14.7949V13.5542H12.7056Z" fill="#131313"/>
<path d="M19.9535 11.2617C22.5853 11.2617 24.3345 12.6531 24.6098 14.8891H22.1318C21.9213 13.9078 21.0305 13.4172 19.9778 13.4172C18.593 13.4172 17.5646 14.1732 17.5646 15.9186C17.5646 17.6639 18.5849 18.4279 19.9778 18.4279C21.0305 18.4279 21.9213 17.9293 22.1318 16.948H24.6098C24.3345 19.2001 22.5853 20.5915 19.9535 20.5915C16.9573 20.5915 15.0947 18.5727 15.0947 15.9186C15.0947 13.2644 16.9653 11.2617 19.9535 11.2617Z" fill="#131313"/>
<path d="M33.0399 13.5542H30.1247V20.4711H27.6467V13.5542H24.7314V11.3906H33.0399V13.5542Z" fill="#131313"/>
<path d="M33.8008 11.3906H36.2787V15.8866C36.2787 17.4148 36.214 18.4362 38.117 18.4362C40.02 18.4362 39.9876 17.4228 39.9876 15.8866V11.3906H42.4656V17.093C42.4656 19.3611 40.927 20.5917 38.1251 20.5917C35.3232 20.5917 33.8089 19.3531 33.8089 17.093V11.3906H33.8008Z" fill="#131313"/>
<path d="M43.4534 11.3906H47.1866C49.3649 11.3906 51.4623 11.8893 51.4623 13.9241C51.4623 15.4684 50.037 15.8062 48.8952 15.9188V16.514H50.3205C51.1141 16.514 51.5756 16.9804 51.5756 17.7767V20.4711H49.0977V17.455H45.9233V20.4711H43.4453V11.3987L43.4534 11.3906ZM47.1866 15.2914C48.2879 15.2914 48.9843 15.3558 48.9843 14.4308C48.9843 13.5059 48.2879 13.5542 47.1866 13.5542H45.9314V15.2914H47.1866Z" fill="#131313"/>
<path d="M52.7012 11.3906H59.5601V13.5542H55.1791V14.841H58.9123V17.0046H55.1791V18.3075H59.5601V20.4711H52.7012V11.3987V11.3906Z" fill="#131313"/>
<path d="M0.0078125 22.6484H6.73719V24.812H2.48578V27.0238L6.56713 26.7664V28.9541L2.48578 29.2114V31.7208H0.0078125V22.6484Z" fill="#131313"/>
<path d="M7.60352 22.6484H14.4625V24.812H10.0815V26.0988H13.8146V28.2624H10.0815V29.5653H14.4625V31.7289H7.60352V22.6565V22.6484Z" fill="#131313"/>
<path d="M19.6533 31.8571C16.325 31.8571 14.9727 30.5461 14.9727 28.1895H17.4506C17.4506 29.2834 17.9527 29.6936 19.7423 29.6936C20.9894 29.6936 21.2486 29.5166 21.2486 29.219C21.2486 28.7847 20.3254 28.5113 19.0459 28.0609C17.0619 27.3772 15.3937 26.8544 15.3937 24.9965C15.3937 23.3879 16.7137 22.5273 19.1269 22.5273C21.9693 22.5273 23.354 23.8544 23.354 25.7847H20.876C20.876 24.8598 20.1391 24.6909 19.1269 24.6909C18.3252 24.6909 17.8717 24.8035 17.8717 25.1011C17.8717 25.3584 17.8555 25.4067 19.3131 25.9134C20.957 26.4844 23.7346 27.2405 23.7346 29.1466C23.7346 30.7954 22.5199 31.8651 19.6614 31.8651L19.6533 31.8571Z" fill="#131313"/>
<path d="M31.7684 24.812H28.8532V31.7289H26.3752V24.812H23.46V22.6484H31.7684V24.812Z" fill="#131313"/>
<path d="M37.2183 24.812V29.5653H39.3076V31.7289H32.6592V29.5653H34.7484V24.812H32.6592V22.6484H39.3076V24.812H37.2183Z" fill="#131313"/>
<path d="M42.5953 22.6484L44.8384 31.1176H45.4458L47.7051 22.6484H50.2236L47.7051 31.7208H42.5872L40.085 22.6484H42.5953Z" fill="#131313"/>
<path d="M55.8436 29.0745H52.1348L51.4303 31.7286H48.9199L51.4222 22.6562H56.5401L59.0585 31.7286H56.5401L55.8436 29.0745ZM55.2606 26.9109L54.2888 23.2514H53.6815L52.7098 26.9109H55.2606Z" fill="#131313"/>
<path d="M59.8271 30.6431V22.6484H62.3051V29.686L66.6861 29.5573V31.7208L61.0742 31.8495C60.2725 31.8656 59.8271 31.4393 59.8271 30.6431Z" fill="#131313"/>
</svg>
