<svg width="63" height="12" viewBox="0 0 63 12" fill="none" xmlns="http://www.w3.org/2000/svg">
<path d="M35.3427 1.63427C34.2924 0.625887 32.8746 0 31.2816 0C28.0957 0 25.5225 2.53835 25.5225 5.65045C25.5225 8.76254 28.0957 11.3009 31.2816 11.3009C32.8571 11.3009 34.2924 10.675 35.3427 9.66661V11.0053H37.4433V0.278169H35.3427V1.6169V1.63427ZM31.4741 9.51014C29.3385 9.51014 27.6056 7.78891 27.6056 5.66782C27.6056 3.54673 29.3385 1.82552 31.4741 1.82552C33.6097 1.82552 35.3427 3.54673 35.3427 5.66782C35.3427 7.78891 33.6097 9.51014 31.4741 9.51014Z" fill="#131313"/>
<path d="M24.3327 3.41073C24.3327 1.68952 22.9148 0.28125 21.1818 0.28125H13.5146V11.0084H15.6153V6.54021H18.8537L22.5297 11.0084H25.208L21.4269 6.54021C23.0549 6.4185 24.3327 5.06241 24.3327 3.42812V3.41073ZM15.6153 2.07201H20.8667C21.6195 2.07201 22.2146 2.68052 22.2146 3.41073C22.2146 4.14095 21.6019 4.74945 20.8667 4.74945H15.6153V2.07201Z" fill="#131313"/>
<path d="M47.1759 0.28125H39.5088V11.0084H41.6094V6.54021H47.1759C48.9089 6.54021 50.3268 5.13195 50.3268 3.41073C50.3268 1.68952 48.9089 0.28125 47.1759 0.28125ZM46.8784 4.74945H41.6269V2.07201H46.8784C47.6311 2.07201 48.2262 2.68052 48.2262 3.41073C48.2262 4.14095 47.6136 4.74945 46.8784 4.74945Z" fill="#131313"/>
<path d="M4.97141 4.76201V6.55276H9.71525C9.31264 8.2392 7.7722 9.50839 5.95169 9.50839C3.81608 9.50839 2.08309 7.78716 2.08309 5.66607C2.08309 3.54498 3.81608 1.82377 5.95169 1.82377C7.24705 1.82377 8.40239 2.46705 9.10258 3.44067H11.4132C10.503 1.42389 8.40238 0.015625 5.95169 0.015625C2.66076 0.015625 0 2.55398 0 5.66607C0 8.77816 2.66076 11.3165 5.95169 11.3165C9.24262 11.3165 11.9034 8.77816 11.9034 5.66607C11.9034 5.37051 11.8859 5.05757 11.8334 4.7794H4.98892L4.97141 4.76201Z" fill="#131313"/>
<path d="M63.0001 5.65045C63.0001 2.52097 60.3393 0 57.0484 0C53.7574 0 51.0967 2.53835 51.0967 5.65045C51.0967 8.76254 53.7574 11.3009 57.0484 11.3009C59.499 11.3009 61.5997 9.89263 62.5099 7.87585H60.1993C59.4991 8.84947 58.3437 9.49275 57.0484 9.49275C55.2103 9.49275 53.6874 8.24095 53.2848 6.53712H62.93C62.9825 6.24156 63.0001 5.94601 63.0001 5.65045ZM53.2848 4.76376C53.6874 3.07732 55.2278 1.80814 57.0484 1.80814C58.8689 1.80814 60.4093 3.05993 60.8119 4.76376H53.2848Z" fill="#131313"/>
</svg>
