<svg width="32" height="32" viewBox="16 16 32 32" fill="none" xmlns="http://www.w3.org/2000/svg">
<path d="M29.0235 29.24V32.7262H38.5882C37.7765 36.0092 34.6706 38.48 31 38.48C26.6941 38.48 23.2 35.1292 23.2 31C23.2 26.8708 26.6941 23.52 31 23.52C33.6118 23.52 35.9412 24.7723 37.3529 26.6677H42.0118C40.1765 22.7415 35.9412 20 31 20C24.3647 20 19 24.9415 19 31C19 37.0585 24.3647 42 31 42C37.6353 42 43 37.0585 43 31C43 30.4246 42.9647 29.8154 42.8588 29.2739H29.0588L29.0235 29.24Z" fill="#131313"/>
</svg>
