<svg className="logo" width="250" height="174" viewBox="0 0 250 174" fill="none" xmlns="http://www.w3.org/2000/svg">
<path fill-rule="evenodd" clip-rule="evenodd" d="M0.969848 0.930664L248.555 172.549L248.233 173.011L0.648438 1.39263L0.969848 0.930664Z" fill="#552BEF"/>
<path fill-rule="evenodd" clip-rule="evenodd" d="M67.3182 0.862305L249.465 58.3119L249.296 58.8482L67.1484 1.3986L67.3182 0.862305Z" fill="#552BEF"/>
<path fill-rule="evenodd" clip-rule="evenodd" d="M83.4665 173.867L0.447266 47.5057L0.918463 47.1973L83.9377 173.558L83.4665 173.867Z" fill="#552BEF"/>
<path d="M248.864 58.627H83.8594V173.402H248.864V58.627Z" stroke="#552BEF" stroke-miterlimit="10"/>
<path d="M66.6849 1.16113H0.808594V46.9779H66.6849V1.16113Z" stroke="#552BEF" stroke-miterlimit="10"/>
<path d="M101.926 76.4248H108.742C113.913 76.4248 116.248 77.2635 116.248 80.7269C116.248 84.1904 113.631 83.9885 111.735 84.1593V85.3086C114.415 85.4328 117.549 85.3397 117.549 89.3156C117.549 93.2916 113.459 93.9594 108.727 93.9594H101.926V76.4403V76.4248ZM109.432 82.746C110.56 82.746 111.469 82.9168 111.469 81.6743C111.469 80.525 110.56 80.6027 109.432 80.6027H106.721V82.746H109.432ZM109.4 89.7816C111.531 89.7816 112.754 89.9835 112.754 88.3682C112.754 86.6598 111.531 86.9238 109.4 86.9238H106.721V89.7816H109.4Z" fill="white"/>
<path d="M127.703 80.6027V89.7816H131.746V93.9594H118.881V89.7816H122.924V80.6027H118.881V76.4248H131.746V80.6027H127.703Z" fill="white"/>
<path d="M141.446 76.1768C145.881 76.1768 149.704 78.8636 150.221 82.6843H145.426C145.019 80.9448 143.765 80.3546 141.446 80.3546C138.767 80.3546 137.106 81.5039 137.106 85.1848C137.106 88.8657 138.469 90.0305 140.913 90.0305C142.872 90.0305 144.267 89.1918 144.298 87.5455H141.039V84.02H150.488C151.992 84.02 152.869 84.8897 152.869 86.4273V93.9599H148.059V88.1202L148.983 85.1848H147.808C147.777 90.4343 145.677 94.2084 140.71 94.2084C135.366 94.2084 132.311 90.6362 132.311 85.1848C132.311 79.7334 136.322 76.1923 141.446 76.1923V76.1768Z" fill="white"/>
<path d="M116.922 104.49C116.922 110.081 113.287 110.811 108.821 110.811H106.705V115.704H101.91V98.1846H108.805C113.271 98.1846 116.906 98.899 116.906 104.506L116.922 104.49ZM112.127 104.49C112.127 102.471 111.249 102.347 109.134 102.347H106.705V106.618H109.134C111.249 106.618 112.127 106.494 112.127 104.475V104.49Z" fill="white"/>
<path d="M126.496 102.347V111.526H130.539V115.704H117.674V111.526H121.717V102.347H117.674V98.1689H130.539V102.347H126.496Z" fill="white"/>
<path d="M140.521 97.9199C145.614 97.9199 148.999 100.607 149.531 104.924H144.736C144.329 103.03 142.605 102.082 140.568 102.082C137.889 102.082 135.898 103.542 135.898 106.912C135.898 110.283 137.873 111.758 140.568 111.758C142.605 111.758 144.329 110.795 144.736 108.9H149.531C148.999 113.249 145.614 115.936 140.521 115.936C134.723 115.936 131.119 112.038 131.119 106.912C131.119 101.787 134.739 97.9199 140.521 97.9199Z" fill="white"/>
<path d="M165.843 102.347H160.202V115.704H155.407V102.347H149.766V98.1689H165.843V102.347Z" fill="white"/>
<path d="M167.316 98.1689H172.111V106.851C172.111 109.802 171.986 111.774 175.668 111.774C179.351 111.774 179.288 109.817 179.288 106.851V98.1689H184.083V109.181C184.083 113.56 181.106 115.937 175.684 115.937C170.262 115.937 167.332 113.545 167.332 109.181V98.1689H167.316Z" fill="white"/>
<path d="M185.994 98.1689H193.218C197.433 98.1689 201.492 99.1319 201.492 103.061C201.492 106.043 198.734 106.696 196.524 106.913V108.062H199.282C200.818 108.062 201.711 108.963 201.711 110.501V115.704H196.916V109.879H190.774V115.704H185.979V98.1845L185.994 98.1689ZM193.218 105.702C195.349 105.702 196.697 105.826 196.697 104.04C196.697 102.254 195.349 102.347 193.218 102.347H190.789V105.702H193.218Z" fill="white"/>
<path d="M203.891 98.1689H217.163V102.347H208.686V104.832H215.909V109.01H208.686V111.526H217.163V115.704H203.891V98.1845V98.1689Z" fill="white"/>
<path d="M101.926 119.912H114.947V124.09H106.721V128.361L114.618 127.864V132.089L106.721 132.585V137.431H101.926V119.912Z" fill="white"/>
<path d="M116.625 119.912H129.897V124.09H121.42V126.575H128.644V130.753H121.42V133.269H129.897V137.447H116.625V119.928V119.912Z" fill="white"/>
<path d="M139.942 137.696C133.502 137.696 130.885 135.164 130.885 130.614H135.68C135.68 132.726 136.651 133.518 140.114 133.518C142.528 133.518 143.029 133.176 143.029 132.602C143.029 131.763 141.243 131.235 138.767 130.365C134.928 129.045 131.7 128.035 131.7 124.448C131.7 121.342 134.254 119.68 138.923 119.68C144.424 119.68 147.103 122.242 147.103 125.97H142.308C142.308 124.184 140.882 123.858 138.923 123.858C137.372 123.858 136.495 124.075 136.495 124.65C136.495 125.147 136.463 125.24 139.284 126.218C142.465 127.321 147.84 128.781 147.84 132.462C147.84 135.646 145.489 137.711 139.958 137.711L139.942 137.696Z" fill="white"/>
<path d="M163.384 124.09H157.743V137.447H152.948V124.09H147.307V119.912H163.384V124.09Z" fill="white"/>
<path d="M173.93 124.09V133.269H177.972V137.447H165.107V133.269H169.15V124.09H165.107V119.912H177.972V124.09H173.93Z" fill="white"/>
<path d="M184.334 119.912L188.675 136.266H189.85L194.222 119.912H199.095L194.222 137.431H184.319L179.477 119.912H184.334Z" fill="white"/>
<path d="M209.97 132.322H202.793L201.43 137.447H196.572L201.414 119.928H211.318L216.191 137.447H211.318L209.97 132.322ZM208.842 128.144L206.961 121.077H205.786L203.906 128.144H208.842Z" fill="white"/>
<path d="M217.68 135.35V119.912H222.475V133.502L230.952 133.253V137.431L220.093 137.68C218.542 137.711 217.68 136.888 217.68 135.35Z" fill="white"/>
<path d="M157.443 147.34H159.527V149.949L159.12 151.067H159.637C159.935 150.399 160.374 149.685 161.784 149.685C163.414 149.685 164.119 151.021 164.119 152.527C164.119 154.034 163.414 155.4 161.784 155.4C160.374 155.4 159.935 154.702 159.637 154.018H159.12L159.527 155.152V155.307H157.443V147.355V147.34ZM160.75 153.583C161.643 153.583 162.035 153.257 162.035 152.527C162.035 151.797 161.643 151.502 160.75 151.502C159.857 151.502 159.527 151.813 159.527 152.527C159.527 153.242 159.872 153.583 160.75 153.583Z" fill="white"/>
<path d="M171.044 149.794L168.459 154.857V156.628C168.459 157.311 168.083 157.668 167.44 157.653L164.494 157.591V155.773H166.359V154.873L163.773 149.809H166.14L167.158 152.357V153.413H167.66V152.357L168.662 149.809H171.044V149.794Z" fill="white"/>
<path d="M205.912 147.076C204.972 146.175 203.702 145.616 202.277 145.616C199.425 145.616 197.121 147.884 197.121 150.664C197.121 153.444 199.425 155.711 202.277 155.711C203.687 155.711 204.972 155.152 205.912 154.252V155.447H207.792V145.865H205.912V147.061V147.076ZM202.449 154.112C200.537 154.112 198.986 152.574 198.986 150.679C198.986 148.785 200.537 147.247 202.449 147.247C204.361 147.247 205.912 148.785 205.912 150.679C205.912 152.574 204.361 154.112 202.449 154.112Z" fill="white"/>
<path d="M196.055 148.66C196.055 147.122 194.786 145.864 193.235 145.864H186.371V155.447H188.251V151.455H191.15L194.441 155.447H196.839L193.454 151.455C194.911 151.347 196.055 150.135 196.055 148.675V148.66ZM188.251 147.464H192.952C193.626 147.464 194.159 148.008 194.159 148.66C194.159 149.312 193.611 149.856 192.952 149.856H188.251V147.464Z" fill="white"/>
<path d="M216.504 145.864H209.641V155.447H211.521V151.455H216.504C218.055 151.455 219.325 150.197 219.325 148.66C219.325 147.122 218.055 145.864 216.504 145.864ZM216.238 149.856H211.537V147.464H216.238C216.911 147.464 217.444 148.008 217.444 148.66C217.444 149.312 216.896 149.856 216.238 149.856Z" fill="white"/>
<path d="M178.724 149.872V151.472H182.97C182.61 152.978 181.231 154.112 179.601 154.112C177.689 154.112 176.138 152.574 176.138 150.679C176.138 148.785 177.689 147.247 179.601 147.247C180.761 147.247 181.795 147.822 182.422 148.691H184.49C183.675 146.89 181.795 145.632 179.601 145.632C176.655 145.632 174.273 147.899 174.273 150.679C174.273 153.46 176.655 155.727 179.601 155.727C182.547 155.727 184.929 153.46 184.929 150.679C184.929 150.415 184.913 150.136 184.866 149.887H178.739L178.724 149.872Z" fill="white"/>
<path d="M230.669 150.664C230.669 147.868 228.287 145.616 225.341 145.616C222.395 145.616 220.014 147.884 220.014 150.664C220.014 153.444 222.395 155.711 225.341 155.711C227.535 155.711 229.416 154.453 230.23 152.652H228.162C227.535 153.522 226.501 154.096 225.341 154.096C223.696 154.096 222.333 152.978 221.972 151.456H230.607C230.654 151.192 230.669 150.928 230.669 150.664ZM221.972 149.872C222.333 148.365 223.712 147.231 225.341 147.231C226.971 147.231 228.35 148.35 228.71 149.872H221.972Z" fill="white"/>
</svg>
