<svg width="32" height="32" viewBox="0 0 32 32" fill="none" xmlns="http://www.w3.org/2000/svg">
<path d="M22.5947 24.2987C27.2035 24.2987 27.9012 18.7893 27.8625 15.5135C27.8625 13.7796 27.8239 12.6243 27.7853 12.0072C27.2422 11.7381 26.1968 11.39 25.1127 10.5807C25.1127 11.39 25.19 13.124 25.19 15.0117C25.19 17.7088 24.765 22.2167 23.8333 22.2167C22.9017 22.2167 22.5947 20.329 22.5947 14.5483C22.5947 14.0465 22.5947 10.5401 22.6334 8.61394C21.9744 8.15055 18.5655 5.68626 17.7906 4.80005C17.8292 8.11425 17.752 13.3162 17.752 15.4345C17.752 21.5611 20.1927 24.2966 22.5947 24.2966V24.2987Z" fill="#131313"/>
<path d="M9.19183 27.111C13.0665 27.111 15.8549 24.3755 15.8549 14.5867C15.8549 11.8127 15.8163 9.50007 15.8163 8.03516C14.9255 8.99824 13.6461 10.0382 12.9892 10.4632C12.9892 12.1203 12.8733 14.5482 12.8346 17.0916C12.7574 23.1413 11.5574 24.9905 10.7052 24.9905C9.62116 24.9905 9.81435 23.6409 9.81435 21.561C9.81435 20.4442 10.3574 12.699 10.6666 11.5415C9.23262 12.0049 6.13505 12.274 4.46927 12.4662C4.1988 15.2401 4.16016 18.2084 4.16016 19.3252C4.16016 24.9905 6.40767 27.1089 9.19613 27.1089L9.19183 27.111Z" fill="#131313"/>
</svg>
