<svg width="251" height="158" viewBox="0 0 251 158" fill="none" xmlns="http://www.w3.org/2000/svg">
<path d="M0.947266 0.588379H14.1092C24.0942 0.588379 28.6025 2.20983 28.6025 8.90581C28.6025 15.6018 23.5495 15.2114 19.8884 15.5417V17.7637C25.0624 18.0039 31.1139 17.8238 31.1139 25.5106C31.1139 33.1975 23.2167 34.4886 14.079 34.4886H0.947266V0.618412V0.588379ZM15.4406 12.8093C17.6191 12.8093 19.374 13.1396 19.374 10.7374C19.374 8.51546 17.6191 8.6656 15.4406 8.6656H10.206V12.8093H15.4406ZM15.38 26.4114C19.4951 26.4114 21.8551 26.8018 21.8551 23.679C21.8551 20.3761 19.4951 20.8865 15.38 20.8865H10.206V26.4114H15.38Z" fill="white"/>
<path d="M50.7224 8.6656V26.4114H58.5288V34.4886H33.6875V26.4114H41.4939V8.6656H33.6875V0.588379H58.5288V8.6656H50.7224Z" fill="white"/>
<path d="M77.2572 0.10791C85.8201 0.10791 93.2029 5.30256 94.2014 12.6892H84.9426C84.1559 9.32615 81.7353 8.18513 77.2572 8.18513C72.0832 8.18513 68.876 10.4071 68.876 17.5235C68.876 24.6398 71.5084 26.8918 76.2285 26.8918C80.0107 26.8918 82.7036 25.2704 82.7641 22.0875H76.4705V15.2714H94.7157C97.6204 15.2714 99.3149 16.953 99.3149 19.9256V34.4886H90.0259V23.1985L91.811 17.5235H89.5417C89.4812 27.6725 85.4267 34.969 75.8351 34.969C65.5174 34.969 59.6172 28.0629 59.6172 17.5235C59.6172 6.98405 67.3631 0.137943 77.2572 0.137943V0.10791Z" fill="white"/>
<path d="M29.9045 54.8469C29.9045 65.6565 22.8848 67.0678 14.2615 67.0678H10.1767V76.5262H0.917969V42.656H14.2312C22.8546 42.656 29.8743 44.0372 29.8743 54.8769L29.9045 54.8469ZM20.6458 54.8469C20.6458 50.9434 18.9514 50.7032 14.8666 50.7032H10.1767V58.9606H14.8666C18.9514 58.9606 20.6458 58.7203 20.6458 54.8169V54.8469Z" fill="white"/>
<path d="M48.3923 50.7032V68.449H56.1987V76.5262H31.3574V68.449H39.1638V50.7032H31.3574V42.626H56.1987V50.7032H48.3923Z" fill="white"/>
<path d="M75.4728 42.1455C85.3064 42.1455 91.842 47.3401 92.8708 55.6876H83.612C82.8253 52.0243 79.497 50.1927 75.5636 50.1927C70.3895 50.1927 66.5468 53.0152 66.5468 59.531C66.5468 66.0468 70.3593 68.8994 75.5636 68.8994C79.497 68.8994 82.8253 67.0377 83.612 63.3745H92.8708C91.842 71.782 85.3064 76.9766 75.4728 76.9766C64.2776 76.9766 57.3184 69.4399 57.3184 59.531C57.3184 49.6222 64.3078 42.1455 75.4728 42.1455Z" fill="white"/>
<path d="M124.368 50.7032H113.476V76.5262H104.217V50.7032H93.3242V42.626H124.368V50.7032Z" fill="white"/>
<path d="M127.213 42.626H136.472V59.411C136.472 65.1161 136.23 68.9295 143.34 68.9295C150.451 68.9295 150.33 65.1461 150.33 59.411V42.626H159.588V63.915C159.588 72.3826 153.839 76.9767 143.37 76.9767C132.901 76.9767 127.243 72.3525 127.243 63.915V42.626H127.213Z" fill="white"/>
<path d="M163.278 42.626H177.227C185.366 42.626 193.203 44.4876 193.203 52.0844C193.203 57.8496 187.878 59.1107 183.611 59.5311V61.7531H188.937C191.902 61.7531 193.626 63.4946 193.626 66.4673V76.5262H184.368V65.2662H172.507V76.5262H163.248V42.656L163.278 42.626ZM177.227 57.189C181.342 57.189 183.944 57.4292 183.944 53.9761C183.944 50.523 181.342 50.7032 177.227 50.7032H172.537V57.189H177.227Z" fill="white"/>
<path d="M197.834 42.626H223.462V50.7032H207.093V55.5075H221.041V63.5847H207.093V68.449H223.462V76.5262H197.834V42.656V42.626Z" fill="white"/>
<path d="M0.947266 84.6633H26.0911V92.7405H10.206V100.998L25.4557 100.037V108.204L10.206 109.165V118.534H0.947266V84.6633Z" fill="white"/>
<path d="M29.3301 84.6633H54.9581V92.7405H38.5888V97.5448H52.5375V105.622H38.5888V110.486H54.9581V118.564H29.3301V84.6934V84.6633Z" fill="white"/>
<path d="M74.352 119.044C61.9163 119.044 56.8633 114.15 56.8633 105.352H66.122C66.122 109.435 67.998 110.967 74.6849 110.967C79.3445 110.967 80.3127 110.306 80.3127 109.195C80.3127 107.574 76.8634 106.553 72.0827 104.871C64.6697 102.319 58.4367 100.367 58.4367 93.4311C58.4367 87.4258 63.3686 84.2129 72.3853 84.2129C83.0056 84.2129 88.1797 89.1673 88.1797 96.3738H78.9209C78.9209 92.9207 76.1675 92.2901 72.3853 92.2901C69.3898 92.2901 67.6954 92.7105 67.6954 93.8215C67.6954 94.7823 67.6349 94.9625 73.0812 96.8542C79.2235 98.9861 89.6018 101.809 89.6018 108.925C89.6018 115.08 85.0632 119.074 74.3823 119.074L74.352 119.044Z" fill="white"/>
<path d="M119.618 92.7405H108.726V118.564H99.4669V92.7405H88.5742V84.6633H119.618V92.7405Z" fill="white"/>
<path d="M139.98 92.7405V110.486H147.787V118.564H122.945V110.486H130.752V92.7405H122.945V84.6633H147.787V92.7405H139.98Z" fill="white"/>
<path d="M160.071 84.6633L168.452 116.282H170.722L179.164 84.6633H188.574L179.164 118.534H160.041L150.691 84.6633H160.071Z" fill="white"/>
<path d="M209.573 108.655H195.715L193.083 118.564H183.703L193.053 84.6934H212.175L221.585 118.564H212.175L209.573 108.655ZM207.395 100.578L203.764 86.9153H201.494L197.864 100.578H207.395Z" fill="white"/>
<path d="M224.459 114.51V84.6633H233.718V110.937L250.087 110.456V118.534L229.119 119.014C226.123 119.074 224.459 117.483 224.459 114.51Z" fill="white"/>
<path d="M108.148 137.691H112.173V142.735L111.386 144.897H112.384C112.959 143.606 113.807 142.225 116.53 142.225C119.677 142.225 121.038 144.807 121.038 147.72C121.038 150.632 119.677 153.275 116.53 153.275C113.807 153.275 112.959 151.924 112.384 150.602H111.386L112.173 152.794V153.095H108.148V137.721V137.691ZM114.533 149.762C116.257 149.762 117.014 149.131 117.014 147.72C117.014 146.309 116.257 145.738 114.533 145.738C112.808 145.738 112.173 146.339 112.173 147.72C112.173 149.101 112.838 149.762 114.533 149.762Z" fill="white"/>
<path d="M134.412 142.435L129.42 152.224V155.647C129.42 156.968 128.694 157.659 127.453 157.629L121.765 157.509V153.995H125.366V152.254L120.373 142.465H124.942L126.909 147.389V149.431H127.877V147.389L129.813 142.465H134.412V142.435Z" fill="white"/>
<path d="M201.736 137.18C199.921 135.439 197.47 134.358 194.716 134.358C189.21 134.358 184.762 138.742 184.762 144.117C184.762 149.491 189.21 153.875 194.716 153.875C197.44 153.875 199.921 152.794 201.736 151.053V153.365H205.367V134.838H201.736V137.15V137.18ZM195.049 150.783C191.358 150.783 188.362 147.81 188.362 144.147C188.362 140.483 191.358 137.511 195.049 137.511C198.741 137.511 201.736 140.483 201.736 144.147C201.736 147.81 198.741 150.783 195.049 150.783Z" fill="white"/>
<path d="M182.705 140.243C182.705 137.271 180.254 134.838 177.259 134.838H164.006V153.365H167.637V145.648H173.234L179.588 153.365H184.218L177.682 145.648C180.496 145.438 182.705 143.096 182.705 140.273V140.243ZM167.637 137.931H176.714C178.015 137.931 179.044 138.982 179.044 140.243C179.044 141.504 177.985 142.555 176.714 142.555H167.637V137.931Z" fill="white"/>
<path d="M222.19 134.838H208.938V153.365H212.568V145.648H222.19C225.186 145.648 227.637 143.216 227.637 140.243C227.637 137.271 225.186 134.838 222.19 134.838ZM221.676 142.555H212.599V137.931H221.676C222.977 137.931 224.006 138.982 224.006 140.243C224.006 141.504 222.947 142.555 221.676 142.555Z" fill="white"/>
<path d="M149.24 142.586V145.679H157.439C156.743 148.591 154.081 150.783 150.934 150.783C147.243 150.783 144.247 147.811 144.247 144.147C144.247 140.484 147.243 137.511 150.934 137.511C153.173 137.511 155.17 138.622 156.38 140.304H160.374C158.801 136.821 155.17 134.389 150.934 134.389C145.246 134.389 140.646 138.773 140.646 144.147C140.646 149.522 145.246 153.906 150.934 153.906C156.622 153.906 161.222 149.522 161.222 144.147C161.222 143.637 161.191 143.096 161.1 142.616H149.27L149.24 142.586Z" fill="white"/>
<path d="M249.544 144.117C249.544 138.712 244.945 134.358 239.256 134.358C233.568 134.358 228.969 138.742 228.969 144.117C228.969 149.491 233.568 153.875 239.256 153.875C243.492 153.875 247.123 151.443 248.697 147.96H244.703C243.492 149.642 241.495 150.753 239.256 150.753C236.079 150.753 233.447 148.591 232.751 145.648H249.423C249.513 145.138 249.544 144.627 249.544 144.117ZM232.751 142.585C233.447 139.673 236.109 137.481 239.256 137.481C242.403 137.481 245.066 139.643 245.762 142.585H232.751Z" fill="white"/>
</svg>
