<svg width="302" height="303" viewBox="0 0 302 303" fill="none" xmlns="http://www.w3.org/2000/svg">
<g clip-path="url(#clip0_2614_18924)">
<mask id="mask0_2614_18924" style="mask-type:luminance" maskUnits="userSpaceOnUse" x="-39" y="4" width="380" height="377">
<path d="M44.8242 348.61C41.8014 346.431 37.6374 343.698 34.7688 341.334C29.2785 336.821 22.0916 330.589 16.9406 325.708C11.0184 320.09 4.13999 311.617 -0.918545 305.231C-4.77414 300.35 -9.46254 293.473 -12.4545 288.008C-15.1688 283.035 -18.8085 276.434 -21.2452 271.338C-23.1268 267.408 -25.1934 262.005 -26.8281 257.983C-28.8947 252.918 -31.1772 245.918 -32.3802 240.546C-33.3364 236.217 -34.8478 230.476 -35.588 226.086C-36.5134 220.683 -37.5621 213.438 -37.9631 207.973C-38.4874 200.881 -38.8576 191.333 -38.3949 184.242C-37.8397 175.154 -36.5134 163.028 -34.6318 154.125C-33.4906 148.814 -31.9175 141.753 -30.0977 136.656C-28.6171 132.512 -26.859 126.894 -25.1625 122.811C-23.1268 117.837 -20.3507 111.206 -17.7289 106.54C-15.6006 102.794 -12.948 97.698 -10.6655 94.0446C-7.76608 89.4703 -3.72541 83.4531 -0.455872 79.1551C2.07339 75.8394 5.55885 71.48 8.33488 68.41C12.0671 64.2655 17.3107 58.9237 21.3205 55.0554C24.1582 52.3231 28.1372 48.854 31.2525 46.4287C35.9409 42.7447 42.4183 38.109 47.3226 34.7319C53.0906 30.7716 61.3878 26.3508 67.6802 23.1887C74.5277 19.7503 93.1271 11.3077 117.587 6.94831C165.952 -1.70913 205.217 10.663 224.31 18.8293C231.99 22.1142 239.979 25.7368 253.18 34.0258C257.375 36.6661 262.742 40.565 266.721 43.5736C269.713 45.8454 273.476 49.1303 276.376 51.5249C279.676 54.2572 283.717 58.3097 286.74 61.3797C289.577 64.2655 293.124 68.2872 295.777 71.3265C300.034 76.1772 305.308 83.054 308.732 88.5186C311.785 93.3999 316.042 99.8163 318.54 104.974C320.422 108.842 323.105 113.938 324.771 117.929C326.899 123.026 329.737 129.841 331.249 135.152C335.227 148.967 336.585 153.634 338.528 167.234C339.823 176.229 340.379 188.386 340.132 197.473C339.731 213.438 337.294 225.625 336.245 230.814C335.32 235.511 333.685 241.682 332.328 246.287C331.063 250.523 328.997 256.049 327.547 260.225C325.789 265.29 322.643 271.768 320.299 276.588C318.386 280.456 315.456 285.399 313.359 289.175C310.737 293.903 306.542 299.828 303.334 304.156C300.836 307.503 297.412 311.893 294.636 315.024C290.934 319.2 285.999 324.787 281.835 328.471C277.178 332.646 270.978 338.264 265.981 342.01C260.213 346.338 252.101 351.588 245.932 355.395C242.169 357.728 229.553 364.452 216.691 369.149C202.718 374.245 191.183 376.824 183.996 378.052C178.197 379.065 173.354 379.71 169.591 380.047C165.643 380.385 158.271 381.03 150.622 380.999C143.928 380.938 138.284 380.661 132.855 380.139C122.214 379.096 114.78 377.561 114.472 377.499C110.462 376.64 105.157 375.412 101.178 374.398C98.895 373.815 95.9031 372.863 93.6514 372.188C89.0247 370.776 83.5035 368.75 77.2729 366.171C59.5371 358.833 45.4411 349.071 44.8551 348.641C71.1965 366.386 105.372 372.956 143.188 364.605C105.372 372.925 71.1965 366.355 44.8551 348.641L44.8242 348.61Z" fill="white"/>
</mask>
<g mask="url(#mask0_2614_18924)">
<path d="M143.158 364.571C55.0652 383.973 -13.1634 322.542 -8.99937 227.648C-65.0134 189.948 -38.9188 143.622 49.2972 124.188C45.1023 219.083 87.2054 326.932 143.158 364.571Z" stroke="#13FF00" stroke-miterlimit="10"/>
<path d="M9.0138 309.647C-39.3508 277.074 -16.8033 237.103 59.3524 220.31" stroke="#13FF00" stroke-miterlimit="10"/>
<path d="M143.158 364.571C38.872 362.33 -42.5581 283.277 -38.394 188.383" stroke="#13FF00" stroke-miterlimit="10"/>
<path d="M143.159 364.571C50.4087 341.853 -21.6446 246.161 -17.4806 151.267" stroke="#13FF00" stroke-miterlimit="10"/>
<path d="M143.158 364.573C87.2061 326.934 45.103 219.085 49.2979 124.191C137.514 104.757 254.446 119.586 310.491 157.285C306.296 252.18 231.251 345.17 143.158 364.573Z" stroke="#13FF00" stroke-miterlimit="10"/>
<path d="M93.0352 306.612C137.513 296.818 196.488 304.279 224.773 323.313" stroke="#13FF00" stroke-miterlimit="10"/>
<path d="M59.3535 220.311C135.509 203.549 236.464 216.32 284.829 248.893" stroke="#13FF00" stroke-miterlimit="10"/>
<path d="M143.159 364.574C139.304 322.269 139.581 210.643 143.776 115.749" stroke="#13FF00" stroke-miterlimit="10"/>
<path d="M143.156 364.574C190.966 328.808 233.285 222.524 237.479 127.63" stroke="#13FF00" stroke-miterlimit="10"/>
<path d="M143.158 364.572C231.251 345.169 306.296 252.178 310.491 157.284C366.505 194.984 340.41 241.31 252.194 260.744C247.999 355.638 199.111 402.21 143.158 364.572Z" stroke="#13FF00" stroke-miterlimit="10"/>
<path d="M284.829 248.892C333.194 281.434 310.677 321.436 234.521 338.198" stroke="#13FF00" stroke-miterlimit="10"/>
<path d="M143.158 364.571C247.444 366.812 335.691 291.443 339.886 196.549" stroke="#13FF00" stroke-miterlimit="10"/>
<path d="M143.158 364.57C235.908 387.289 314.778 328.559 318.973 233.665" stroke="#13FF00" stroke-miterlimit="10"/>
<path d="M143.157 364.574C199.109 402.212 247.998 355.64 252.193 260.746C163.977 280.179 47.0448 265.351 -9.00014 227.651C-13.195 322.546 55.0644 383.977 143.157 364.574Z" stroke="#13FF00" stroke-miterlimit="10"/>
<path d="M143.156 364.574C147.012 406.879 153.52 364.083 157.715 269.188" stroke="#13FF00" stroke-miterlimit="10"/>
<path d="M143.157 364.577C95.3479 400.343 59.8456 352.205 64.0096 257.311" stroke="#13FF00" stroke-miterlimit="10"/>
<path d="M-8.99937 227.653C-4.80448 132.759 70.2408 39.7682 158.333 20.3657C102.381 -17.2727 53.4921 29.2994 49.2972 124.194C-38.9188 143.627 -65.0134 189.953 -8.99937 227.653Z" stroke="#13FF00" stroke-miterlimit="10"/>
<path d="M16.6634 136.045C-31.7012 103.503 -9.1845 63.5006 66.9712 46.7383" stroke="#13FF00" stroke-miterlimit="10"/>
<path d="M76.7488 61.6551C48.495 42.621 61.6657 19.2582 106.144 9.46484" stroke="#13FF00" stroke-miterlimit="10"/>
<path d="M-38.3945 188.385C-34.1996 93.4909 54.0472 18.1221 158.333 20.3632" stroke="#13FF00" stroke-miterlimit="10"/>
<path d="M-17.4824 151.272C-13.2875 56.3778 65.5825 -2.35156 158.333 20.3666" stroke="#13FF00" stroke-miterlimit="10"/>
<path d="M49.2969 124.19C53.4918 29.2955 102.412 -17.2766 158.333 20.3618C246.426 0.959261 314.654 62.3903 310.49 157.284C254.476 119.585 137.513 104.756 49.2969 124.19Z" stroke="#13FF00" stroke-miterlimit="10"/>
<path d="M67.0039 46.7353C143.16 29.973 244.114 42.7443 292.479 75.3171" stroke="#13FF00" stroke-miterlimit="10"/>
<path d="M106.145 9.46528C150.623 -0.328069 209.598 7.13207 237.882 26.1662" stroke="#13FF00" stroke-miterlimit="10"/>
<path d="M143.773 115.748C147.968 20.8543 154.477 -21.9417 158.332 20.3631" stroke="#13FF00" stroke-miterlimit="10"/>
<path d="M237.482 127.628C241.676 32.7334 206.174 -15.4044 158.334 20.3613" stroke="#13FF00" stroke-miterlimit="10"/>
<path d="M310.491 157.287C314.686 62.3931 246.427 0.962089 158.334 20.3646C214.286 58.003 256.389 165.853 252.195 260.747C340.41 241.314 366.505 194.987 310.491 157.287Z" stroke="#13FF00" stroke-miterlimit="10"/>
<path d="M292.48 75.3193C340.844 107.861 318.328 147.864 242.172 164.626" stroke="#13FF00" stroke-miterlimit="10"/>
<path d="M237.852 26.165C266.106 45.1991 252.935 68.5619 208.457 78.3553" stroke="#13FF00" stroke-miterlimit="10"/>
<path d="M339.886 196.553C344.081 101.659 262.62 22.6063 158.334 20.3652" stroke="#13FF00" stroke-miterlimit="10"/>
<path d="M318.973 233.67C323.168 138.776 251.115 43.0833 158.334 20.3652" stroke="#13FF00" stroke-miterlimit="10"/>
<path d="M252.195 260.745C256.39 165.851 214.287 58.0017 158.335 20.3633C70.273 39.7658 -4.80316 132.757 -8.99805 227.651C47.016 265.35 163.979 280.179 252.195 260.745Z" stroke="#13FF00" stroke-miterlimit="10"/>
<path d="M242.139 164.623C165.983 181.385 65.0286 168.614 16.6641 136.041" stroke="#13FF00" stroke-miterlimit="10"/>
<path d="M208.457 78.3269C163.979 88.1202 105.003 80.6601 76.7188 61.626" stroke="#13FF00" stroke-miterlimit="10"/>
<path d="M157.717 269.188C161.912 174.294 162.189 62.6681 158.334 20.3633" stroke="#13FF00" stroke-miterlimit="10"/>
<path d="M64.0117 257.307C68.2066 162.413 110.495 56.0983 158.335 20.3633" stroke="#13FF00" stroke-miterlimit="10"/>
<path d="M44.8551 348.641C45.4411 349.071 59.5371 358.833 77.2729 366.171C83.5035 368.75 89.0247 370.776 93.6514 372.188C95.9031 372.863 98.895 373.815 101.178 374.398C105.157 375.412 110.462 376.64 114.472 377.499C114.78 377.561 122.214 379.096 132.855 380.139C138.284 380.661 143.928 380.938 150.622 380.999C158.271 381.03 165.643 380.385 169.591 380.047C173.354 379.71 178.197 379.065 183.996 378.052C191.183 376.824 202.718 374.245 216.691 369.149C229.553 364.452 242.169 357.728 245.932 355.395C252.101 351.588 260.213 346.338 265.981 342.01C270.978 338.264 277.178 332.646 281.835 328.471C285.999 324.787 290.934 319.2 294.636 315.024C297.412 311.893 300.836 307.503 303.334 304.156C306.542 299.828 310.737 293.903 313.359 289.175C315.456 285.399 318.386 280.456 320.299 276.588C322.643 271.768 325.789 265.29 327.547 260.225C328.997 256.049 331.063 250.523 332.328 246.287C333.685 241.682 335.32 235.511 336.245 230.814C337.294 225.625 339.731 213.438 340.132 197.473C340.379 188.386 339.823 176.229 338.528 167.234C336.585 153.634 335.227 148.967 331.248 135.152C329.737 129.841 326.899 123.026 324.771 117.929C323.105 113.938 320.422 108.842 318.54 104.974C316.042 99.8163 311.785 93.3999 308.732 88.5186C305.308 83.054 300.034 76.1772 295.777 71.3265C293.124 68.2872 289.577 64.2655 286.74 61.3797C283.717 58.3097 279.676 54.2572 276.376 51.5249C273.476 49.1303 269.713 45.8454 266.721 43.5736C262.742 40.565 257.375 36.6661 253.18 34.0258C239.979 25.7368 231.99 22.1142 224.31 18.8293C205.217 10.663 165.952 -1.70913 117.587 6.94831C93.1271 11.3077 74.5277 19.7503 67.6802 23.1887C61.3878 26.3508 53.0906 30.7716 47.3226 34.7319C42.4183 38.109 35.9409 42.7447 31.2525 46.4287C28.1372 48.854 24.1582 52.3231 21.3205 55.0554C17.3107 58.9237 12.0671 64.2655 8.33488 68.41C5.55885 71.48 2.0734 75.8394 -0.455872 79.1551C-3.72542 83.4531 -7.76608 89.4703 -10.6655 94.0446C-12.948 97.698 -15.6006 102.794 -17.7289 106.54C-20.3507 111.206 -23.1268 117.837 -25.1625 122.811C-26.859 126.894 -28.6171 132.512 -30.0977 136.656C-31.9175 141.753 -33.4906 148.814 -34.6318 154.125C-36.5134 163.028 -37.8397 175.154 -38.3949 184.242C-38.8576 191.333 -38.4874 200.881 -37.9631 207.973C-37.5621 213.438 -36.5134 220.683 -35.588 226.086C-34.8478 230.476 -33.3364 236.217 -32.3802 240.546C-31.1772 245.918 -28.8947 252.918 -26.8281 257.983C-25.1934 262.005 -23.1268 267.408 -21.2452 271.338C-18.8085 276.434 -15.1688 283.035 -12.4545 288.008C-9.46254 293.473 -4.77414 300.35 -0.918545 305.231C4.13999 311.617 11.0184 320.09 16.9406 325.708C22.0916 330.589 29.2785 336.821 34.7688 341.334C37.6374 343.698 41.8014 346.431 44.8242 348.61L44.8551 348.641ZM44.8551 348.641C71.1965 366.386 105.372 372.955 143.188 364.605C105.372 372.925 71.1965 366.355 44.8551 348.641Z" stroke="#13FF00" stroke-miterlimit="10"/>
</g>
<path d="M44.8531 348.641C45.4392 349.071 59.5352 358.833 77.2709 366.171C83.5016 368.75 89.0228 370.776 93.6495 372.188C95.9012 372.863 98.8931 373.815 101.176 374.398C105.155 375.412 110.46 376.64 114.47 377.499C114.778 377.561 122.212 379.096 132.853 380.139C138.282 380.661 143.926 380.938 150.62 380.999C158.269 381.03 165.641 380.385 169.589 380.047C173.352 379.71 178.195 379.065 183.994 378.052C191.181 376.824 202.716 374.245 216.689 369.149C229.551 364.452 242.167 357.728 245.93 355.395C252.099 351.588 260.211 346.338 265.979 342.01C270.976 338.264 277.176 332.646 281.833 328.471C285.997 324.787 290.932 319.2 294.634 315.024C297.41 311.893 300.834 307.503 303.332 304.156C306.54 299.828 310.735 293.903 313.357 289.175C315.454 285.399 318.384 280.456 320.297 276.588C322.641 271.768 325.787 265.29 327.545 260.225C328.995 256.049 331.061 250.523 332.326 246.287C333.683 241.682 335.318 235.511 336.243 230.814C337.292 225.625 339.729 213.438 340.13 197.473C340.377 188.386 339.821 176.229 338.526 167.234C336.583 153.634 335.226 148.967 331.247 135.152C329.735 129.841 326.897 123.026 324.769 117.929C323.104 113.938 320.42 108.842 318.538 104.974C316.04 99.8163 311.783 93.3999 308.73 88.5186C305.306 83.054 300.032 76.1772 295.775 71.3265C293.122 68.2872 289.575 64.2655 286.738 61.3797C283.715 58.3097 279.674 54.2572 276.374 51.5249C273.474 49.1303 269.711 45.8454 266.719 43.5736C262.74 40.565 257.373 36.6661 253.179 34.0258C239.977 25.7368 231.988 22.1142 224.308 18.8293C205.215 10.663 165.95 -1.70913 117.585 6.94831C93.1251 11.3077 74.5257 19.7503 67.6782 23.1887C61.3859 26.3508 53.0886 30.7716 47.3207 34.7319C42.4164 38.109 35.939 42.7447 31.2506 46.4287C28.1353 48.854 24.1563 52.3231 21.3186 55.0554C17.3088 58.9237 12.0651 64.2655 8.33292 68.41C5.5569 71.48 2.07144 75.8394 -0.457826 79.1551C-3.72737 83.4531 -7.76803 89.4703 -10.6674 94.0446C-12.9499 97.698 -15.6026 102.794 -17.7309 106.54C-20.3527 111.206 -23.1287 117.837 -25.1645 122.811C-26.8609 126.894 -28.6191 132.512 -30.0996 136.656C-31.9195 141.753 -33.4925 148.814 -34.6338 154.125C-36.5153 163.028 -37.8417 175.154 -38.3969 184.242C-38.8595 191.333 -38.4894 200.881 -37.965 207.973C-37.5641 213.438 -36.5153 220.683 -35.59 226.086C-34.8497 230.476 -33.3383 236.217 -32.3821 240.546C-31.1792 245.918 -28.8967 252.918 -26.8301 257.983C-25.1953 262.005 -23.1287 267.408 -21.2472 271.338C-18.8104 276.434 -15.1708 283.035 -12.4564 288.008C-9.46449 293.473 -4.77609 300.35 -0.920498 305.231C4.13804 311.617 11.0164 320.09 16.9386 325.708C22.0897 330.589 29.2765 336.821 34.7669 341.334C37.6354 343.698 41.7995 346.431 44.8223 348.61L44.8531 348.641ZM44.8531 348.641C71.1945 366.386 105.37 372.955 143.186 364.605C105.37 372.925 71.1945 366.355 44.8531 348.641Z" stroke="#13FF00" stroke-miterlimit="10"/>
</g>
<defs>
<clipPath id="clip0_2614_18924">
<rect width="302" height="303" fill="white"/>
</clipPath>
</defs>
</svg>
