<svg width="165" height="60" viewBox="0 0 165 60" fill="none" xmlns="http://www.w3.org/2000/svg">
<g clip-path="url(#clip0_6001_8705)">
<g clip-path="url(#clip1_6001_8705)">
<path d="M39.0664 36.0149H43.5151V23.91H49.3938V19.7515H39.0664V36.0149Z" fill="black"/>
<path d="M29.8676 32.3891C27.6938 32.3891 26.3384 30.9742 26.2147 28.6718H37.2446C37.2446 28.6718 37.3133 27.8353 37.3133 26.9751C37.3133 22.0962 34.432 19.3547 29.9137 19.3547C25.1416 19.3547 21.8223 22.8626 21.8223 27.8581C21.8223 32.9232 25.0955 36.4079 29.8676 36.4079C34.2937 36.4079 37.2672 33.8267 37.3594 30.0421H32.9364C32.6802 31.5297 31.5964 32.3891 29.8676 32.3891ZM29.9137 23.1193C31.6974 23.1193 32.7601 23.8946 33.0543 25.5355H26.4517C26.9575 23.9991 28.2038 23.1193 29.9137 23.1193Z" fill="black"/>
<path d="M150.801 19.7515V23.91H155.411V36.0149H159.861V23.91H164.471V19.7515H150.801Z" fill="black"/>
<path d="M14.0085 19.7515L10.9473 29.7153L7.96887 19.7515H3.05913L0.5 36.0149H4.58057L6.13642 25.8978L9.14487 36.0149H12.6488L15.7634 25.7162L17.2592 36.0149H21.4086L18.8494 19.7515H14.0085Z" fill="black"/>
<path d="M57.554 19.3562C52.8053 19.3562 50.108 21.7024 50.2236 25.6992H54.834C54.8567 24.0029 55.712 23.1916 57.554 23.1916C58.8676 23.1916 59.6976 23.749 59.6976 24.5855C59.6976 25.1205 59.4905 25.3291 58.6832 25.5614L54.9723 26.5837C51.4223 27.5596 49.8311 29.0464 49.8311 31.5327C49.8311 34.4363 51.9293 36.3881 55.0184 36.3881C57.4158 36.3881 58.9832 35.4122 59.7671 33.5774V36.0165H64.0315V25.211C64.0315 21.2843 61.5649 19.3562 57.554 19.3562ZM55.9632 32.622C54.834 32.622 54.2798 32.0646 54.2798 31.2517C54.2798 30.4845 54.6716 29.9979 55.8898 29.6483L59.739 28.5575V28.8583C59.7436 30.9494 58.1109 32.622 55.9632 32.622Z" fill="black"/>
<path d="M134.778 19.7515H129.868L126.409 25.7917H124.635V19.7515H120.187V36.0149H124.635V29.7885H126.383L130.099 36.0149H135.124L130.215 27.7202L134.778 19.7515Z" fill="black"/>
<path d="M95.0374 19.3562C90.2887 19.3562 87.591 21.7024 87.7066 25.6992H92.317C92.3397 24.0029 93.1954 23.1916 95.0374 23.1916C96.3544 23.1916 97.181 23.749 97.181 24.5855C97.181 25.1205 96.9736 25.3291 96.1666 25.5614L92.4557 26.5837C88.9053 27.5596 87.3145 29.0464 87.3145 31.5327C87.3145 34.4363 89.4126 36.3881 92.5018 36.3881C94.8992 36.3881 96.4666 35.4358 97.2505 33.5774V36.0165H101.514V25.211C101.514 21.2843 99.0483 19.3562 95.0374 19.3562ZM93.4274 32.622C92.3209 32.622 91.7674 32.0646 91.7674 31.2517C91.7674 30.4845 92.1592 30.0199 93.3813 29.6719L97.2305 28.5811V28.8583C97.227 31.0667 95.5905 32.622 93.4236 32.622H93.4274Z" fill="black"/>
<path d="M112.395 19.3562C110.265 19.3562 108.669 20.4478 108.038 22.1898V19.7507H103.589V40.4522H108.038V33.6254C108.697 35.351 110.284 36.3858 112.395 36.3858C116.083 36.3858 118.55 33.505 118.55 27.8824C118.55 22.2598 116.083 19.3562 112.395 19.3562ZM111.151 32.2276C109.168 32.2276 107.97 30.8336 107.97 27.8824C107.97 24.9552 109.192 23.5144 111.197 23.5144C113.087 23.5144 114.217 24.9323 114.217 27.8824C114.216 30.9494 113.132 32.2276 111.15 32.2276H111.151Z" fill="black"/>
<path d="M78.9003 19.7515L75.8388 29.7153L72.8603 19.7515H67.9499L65.3916 36.0149H69.4716L71.0279 25.8978L74.0364 36.0149H77.5395L80.6551 25.7162L82.1499 36.0149H86.2995L83.7412 19.7515H78.9003Z" fill="black"/>
<path d="M142.363 32.3891C140.211 32.3891 138.836 30.9742 138.71 28.6718H149.74C149.74 28.6718 149.808 27.8353 149.808 26.9751C149.808 22.0962 146.927 19.3547 142.409 19.3547C137.637 19.3547 134.317 22.8626 134.317 27.8581C134.317 32.9232 137.591 36.4079 142.363 36.4079C146.789 36.4079 149.762 33.8267 149.854 30.0421H145.429C145.175 31.5297 144.091 32.3891 142.363 32.3891ZM142.409 23.1193C144.192 23.1193 145.255 23.8946 145.549 25.5355H138.947C139.452 23.9991 140.699 23.1193 142.409 23.1193Z" fill="black"/>
</g>
</g>
<defs>
<clipPath id="clip0_6001_8705">
<rect width="164" height="60" fill="white" transform="translate(0.5)"/>
</clipPath>
<clipPath id="clip1_6001_8705">
<rect width="164" height="21.2903" fill="white" transform="translate(0.5 19.3547)"/>
</clipPath>
</defs>
</svg>
