<svg className="carboncore" width="1619" height="165" viewBox="0 0 1619 165" fill="none" xmlns="http://www.w3.org/2000/svg">
<path d="M1618.6 31.7V0H1477.5V164.1H1618.6V132.5H1509.1V97.9H1609.9V66.2H1509.1V31.7H1618.6Z" fill="black"/>
<path fill-rule="evenodd" clip-rule="evenodd" d="M1460.2 17.3L1442.9 0H1310.4V164.1H1345V115.1H1396.8L1428.5 146.8V164.1H1460.2V132.4L1442.9 115.1L1460.2 97.8V17.3ZM1428.5 83.5H1345V31.7H1428.5V83.5Z" fill="black"/>
<path fill-rule="evenodd" clip-rule="evenodd" d="M1278.7 0H1163.5L1146.3 17.3V146.9L1163.6 164.2H1278.8L1296.1 146.9V17.3L1278.7 0ZM1264.3 132.5H1177.9V31.7H1264.3V132.5Z" fill="black"/>
<path d="M1131.9 48.9V17.3L1114.6 0H1002.3L985 17.3V149.7L999.4 164.1H1114.6L1131.9 146.9V118.1H1100.2V132.5H1016.7V31.7H1100.2V48.9H1131.9Z" fill="black"/>
<path d="M936.002 0V112.3L849.602 0H817.902V164.1H852.502V54.7L936.002 164.1H967.702V0H936.002Z" fill="black"/>
<path fill-rule="evenodd" clip-rule="evenodd" d="M786.301 0H671.101L653.801 17.3V146.9L671.101 164.2H786.301L803.601 146.9V17.3L786.301 0ZM771.901 132.5H685.501V31.7H771.901V132.5Z" fill="black"/>
<path fill-rule="evenodd" clip-rule="evenodd" d="M636.502 17.3L619.202 0H489.602V164.1H622.102L636.502 149.7V100.7L619.202 83.4L636.502 66.1V17.3ZM607.702 132.5H521.302V97.9H607.702V132.5ZM607.702 66.2H521.302V31.6H607.702V66.2Z" fill="black"/>
<path fill-rule="evenodd" clip-rule="evenodd" d="M472.302 17.3L455.002 0H322.602V164.1H357.202V115.1H409.002L440.702 146.8V164.1H472.302V132.4L455.002 115.1L472.302 97.8V17.3ZM440.702 83.5H357.202V31.7H440.702V83.5Z" fill="black"/>
<path fill-rule="evenodd" clip-rule="evenodd" d="M210.3 0L158.5 51.8V164.1H190.2V115.1H276.6V164.1H308.3V0H210.3ZM276.5 83.5H190.1V66.2L224.7 31.6H276.5V83.5Z" fill="black"/>
<path d="M146.9 48.9V17.3L129.6 0H17.3L0 17.3V149.7L14.4 164.1H129.6L146.9 146.9V118.1H115.2V132.5H31.7V31.7H115.2V48.9H146.9Z" fill="black"/>
</svg>
