<svg xmlns="http://www.w3.org/2000/svg" viewBox="0 0 1728 305.3" style="enable-background:new 0 0 1728 305.3" xml:space="preserve"><style>.st0{enable-background:new}.st1{fill-rule:evenodd;clip-rule:evenodd}</style><g id="Фигура_3_1_" class="st0"><path class="st1" d="m265 74.9-51.8 51.8V239h31.7v-49h86.4v49H363V74.9h-98zm66.2 83.5h-86.4v-17.3l34.6-34.6h51.8v51.9z" id="Фигура_3"/></g><g id="Фигура_1_3_" class="st0"><path d="M201.6 123.8V92.2l-17.3-17.3H72L54.7 92.2v132.4L69.1 239h115.2l17.3-17.2V193h-31.7v14.4H86.4V106.6h83.5v17.2z" id="Фигура_1"/></g><g id="Фигура_5_1_" class="st0"><path class="st1" d="m527 92.2-17.3-17.3H377.3V239h34.6v-49h51.8l31.7 31.7V239H527v-31.7L509.7 190l17.3-17.3V92.2zm-31.6 66.2h-83.5v-51.8h83.5v51.8z" id="Фигура_5"/></g><g id="Фигура_5_копия_1_" class="st0"><path class="st1" d="m1514.9 92.2-17.3-17.3h-132.5V239h34.6v-49h51.8l31.7 31.7V239h31.7v-31.7l-17.3-17.3 17.3-17.3V92.2zm-31.7 66.2h-83.5v-51.8h83.5v51.8z" id="Фигура_5_копия"/></g><g id="Фигура_7_копия_1_" class="st0"><path class="st1" d="m691.2 92.2-17.3-17.3H544.3V239h132.5l14.4-14.4v-49l-17.3-17.3 17.3-17.3V92.2zm-28.8 115.2H576v-34.6h86.4v34.6zm0-66.3H576v-34.6h86.4v34.6z" id="Фигура_7_копия"/></g><g id="Фигура_7_3_" class="st0"><path class="st1" d="M841 74.9H725.8l-17.3 17.3v129.6l17.3 17.3H841l17.3-17.3V92.2L841 74.9zm-14.4 132.5h-86.4V106.6h86.4v100.8z" id="Фигура_7"/></g><g id="Фигура_7_2_" class="st0"><path class="st1" d="M1333.4 74.9h-115.2L1201 92.2v129.6l17.3 17.3h115.2l17.3-17.3V92.2l-17.4-17.3zM1319 207.4h-86.4V106.6h86.4v100.8z" id="Фигура_7_1_"/></g><g id="Фигура_8_1_" class="st0"><path d="M990.7 74.9v112.3L904.3 74.9h-31.7V239h34.6V129.6L990.7 239h31.7V74.9z" id="Фигура_8"/></g><g id="Фигура_1_2_" class="st0"><path d="M1186.6 123.8V92.2l-17.3-17.3H1057l-17.3 17.3v132.4l14.4 14.4h115.2l17.3-17.2V193h-31.7v14.4h-83.5V106.6h83.5v17.2z" id="Фигура_1_1_"/></g><g id="Фигура_9_1_" class="st0"><path d="M1673.3 106.6V74.9h-141.1V239h141.1v-31.6h-109.5v-34.6h100.8v-31.7h-100.8v-34.5z" id="Фигура_9"/></g></svg>