<svg width="165" height="61" viewBox="0 0 165 61" fill="none" xmlns="http://www.w3.org/2000/svg">
<path d="M118.736 23.5238C118.81 22.4728 118.736 22.2112 118.327 22.2112C118.104 22.2112 117.919 22.4364 117.622 23.2986L113.01 36.0947C112.415 37.7076 111.745 38.4583 110.629 38.4218C109.477 38.3854 108.694 37.521 108.435 35.7193L106.836 24.4632C106.687 23.5259 106.577 23.2257 106.279 23.2257C105.945 23.2257 105.871 23.4509 105.684 24.4632L103.823 35.2689L100.29 34.5933L104.27 14.7428C105.014 11.1031 105.833 9.97702 107.655 9.97702C109.217 9.97702 110.221 11.3283 110.518 14.2538L112.007 28.2124C112.043 28.3625 112.117 28.399 112.23 28.399C112.343 28.399 112.415 28.3239 112.453 28.2489L116.731 16.4673C117.996 13.0163 119.297 11.6264 120.97 11.7765C122.905 11.9631 123.5 13.2779 123.5 17.1429V40.483L117.475 41.6455L118.74 23.5217L118.736 23.5238ZM48.2137 29.7524C48.2499 28.8151 48.4731 28.3647 48.7708 28.3647C49.1046 28.3647 49.2917 28.6264 49.5149 29.7159L52.0449 41.6476C52.974 46.1132 54.2029 48.0264 56.0994 48.0264C58.1085 48.0264 59.3735 46.1883 60.7491 41.3088L69.1173 11.8924C69.2279 11.4419 69.3406 11.0301 69.3406 10.7299C69.3406 10.0542 68.9324 9.67889 67.7779 9.9041L60.4132 11.2553L58.5911 37.2958C58.5167 38.2331 58.3317 38.6835 57.9958 38.6835C57.6238 38.6835 57.4388 38.3081 57.29 37.3322L54.3879 16.6582C53.867 13.0184 52.7891 11.2553 51.0032 11.2553C48.994 11.2553 47.8417 12.8318 47.0231 16.8469L39.5479 53.1289L46.987 51.7026L48.2137 29.7524ZM69.5255 29.4521C69.5255 35.6807 71.8685 39.0588 75.9229 39.0588C80.4599 39.0588 83.6597 34.6319 83.6597 23.6375C83.6597 21.0487 83.6235 18.0845 83.4747 15.7209C82.5074 16.7332 80.983 18.0845 79.7924 18.8738C79.9412 20.2615 80.0156 22.55 80.0156 25.3276C80.0156 30.205 79.533 35.6078 77.7471 35.6078C76.7053 35.6078 76.3715 33.1691 76.3715 29.9797C76.3715 26.0032 76.8924 21.2739 77.2262 19.9226C76.0738 20.298 72.502 20.8985 69.8997 21.0487C69.6765 23.2621 69.5277 26.6767 69.5277 29.4543L69.5255 29.4521ZM92.1406 35.5692C96.1206 35.5692 98.3147 31.8179 98.3147 25.2504C98.3147 22.8117 98.2403 21.2739 98.2042 20.4846C97.5345 20.1478 96.195 19.5087 94.8939 18.6078C94.93 19.6202 95.0427 21.8358 95.0427 24.9115C95.0427 29.7889 94.4113 32.5278 93.4056 32.5278C92.3277 32.5278 91.9174 30.7261 91.9174 25.0981C91.9174 21.1216 92.1023 17.5183 92.1406 16.5424C89.9826 15.0045 87.0827 12.6023 86.413 11.8516C86.0409 18.0051 85.9665 21.72 85.9665 25.0981C85.9665 31.4018 88.4221 35.567 92.1406 35.567V35.5692Z" fill="#131313"/>
</svg>
