<svg width="165" height="61" viewBox="0 0 165 61" fill="none" xmlns="http://www.w3.org/2000/svg">
<g clip-path="url(#clip0_6001_8736)">
<path opacity="0.963" fill-rule="evenodd" clip-rule="evenodd" d="M162.548 33.8554C162.548 34.2692 162.548 34.6828 162.548 35.0966C162.16 37.0971 160.974 38.3202 158.99 38.7661C158.397 38.7661 157.804 38.7661 157.211 38.7661C155.315 38.4071 154.121 37.2918 153.626 35.4204C153.562 35.0816 153.535 34.7398 153.545 34.3951C154.048 34.3951 154.552 34.3951 155.055 34.3951C155.231 36.5949 156.417 37.5933 158.612 37.39C160.134 37.0365 160.942 36.0741 161.038 34.503C160.96 33.1503 160.277 32.2599 158.99 31.8318C158.084 31.5655 157.185 31.2777 156.294 30.9684C154.369 30.1094 153.642 28.6434 154.111 26.5703C154.826 24.4527 156.308 23.4723 158.559 23.6293C160.564 23.8566 161.76 24.9629 162.143 26.9481C162.156 27.1669 162.183 27.3827 162.224 27.5956C161.705 27.6495 161.183 27.6675 160.661 27.6496C160.49 25.7096 159.43 24.8372 157.48 25.0323C156.424 25.2808 155.785 25.9374 155.567 27.002C155.295 28.3925 155.825 29.3189 157.157 29.7812C158.156 30.0727 159.145 30.3965 160.122 30.7525C161.508 31.3449 162.316 32.3792 162.548 33.8554Z" fill="#030303"/>
<path opacity="0.98" fill-rule="evenodd" clip-rule="evenodd" d="M0.5 23.872C2.02749 23.863 3.55488 23.872 5.08216 23.899C8.2604 24.2203 9.49128 25.9381 8.77484 29.0526C8.46908 29.7364 7.99291 30.267 7.34629 30.6445C8.98406 31.3386 9.81063 32.5888 9.82605 34.395C9.70454 36.5534 8.59043 37.8755 6.48376 38.3613C6.12786 38.4387 5.7685 38.4927 5.40561 38.5232C3.7705 38.5502 2.1353 38.5592 0.5 38.5502C0.5 33.6574 0.5 28.7648 0.5 23.872ZM1.95551 25.2211C3.03488 25.2051 4.11304 25.2321 5.18998 25.3021C6.96667 25.5579 7.71243 26.5743 7.42715 28.351C7.14667 29.2791 6.52673 29.8277 5.56733 29.9969C5.33582 30.0461 5.10222 30.0821 4.86653 30.1048C3.89636 30.1318 2.92602 30.1408 1.95551 30.1318C1.95551 28.4949 1.95551 26.858 1.95551 25.2211ZM1.95551 31.4809C3.14266 31.4637 4.32863 31.4906 5.51342 31.5619C7.6168 31.851 8.50628 33.0471 8.18186 35.1505C7.95502 35.9713 7.44289 36.5379 6.64549 36.8503C6.26123 36.9884 5.8659 37.0784 5.45952 37.1201C4.2926 37.1893 3.12459 37.2163 1.95551 37.2011C1.95551 35.2944 1.95551 33.3876 1.95551 31.4809Z" fill="#030303"/>
<path opacity="0.966" fill-rule="evenodd" clip-rule="evenodd" d="M29.4485 23.874C30.1493 23.874 30.8501 23.874 31.5509 23.874C31.5509 28.7847 31.5509 33.6954 31.5509 38.6061C31.0298 38.6061 30.5087 38.6061 29.9876 38.6061C29.9876 36.9693 29.9876 35.3323 29.9876 33.6954C28.1906 33.6864 26.3937 33.6954 24.5968 33.7224C23.494 35.3277 22.3979 36.9376 21.3085 38.5522C20.7329 38.5905 20.1578 38.6265 19.5834 38.6601C19.5474 38.6421 19.5115 38.6241 19.4756 38.6061C22.8237 33.7083 26.1481 28.7976 29.4485 23.874ZM29.9337 25.8707C29.9876 28.0201 30.0055 30.1786 29.9876 32.3463C28.514 32.3553 27.0405 32.3463 25.5672 32.3194C27.0299 30.1729 28.4854 28.0234 29.9337 25.8707Z" fill="#030303"/>
<path opacity="0.976" fill-rule="evenodd" clip-rule="evenodd" d="M45.3528 23.874C48.2278 23.874 51.103 23.874 53.978 23.874C53.987 24.36 53.978 24.8457 53.9511 25.331C51.5813 29.2749 49.2184 33.2233 46.8622 37.1761C49.3059 37.2031 51.7497 37.2121 54.1937 37.2031C54.1937 37.6528 54.1937 38.1025 54.1937 38.5522C51.1748 38.5522 48.156 38.5522 45.1371 38.5522C45.1282 38.0662 45.1371 37.5805 45.1641 37.0952C47.527 33.1468 49.89 29.1985 52.253 25.2501C49.953 25.2231 47.6529 25.2141 45.3528 25.2231C45.3528 24.7734 45.3528 24.3237 45.3528 23.874Z" fill="#030303"/>
<path opacity="0.974" fill-rule="evenodd" clip-rule="evenodd" d="M68.0996 23.874C70.795 23.874 73.4904 23.874 76.1858 23.874C76.1858 24.3237 76.1858 24.7734 76.1858 25.2231C73.9933 25.2231 71.8015 25.2231 69.609 25.2231C69.609 26.9679 69.609 28.7128 69.609 30.4576C71.7292 30.4576 73.85 30.4576 75.9701 30.4576C75.9701 30.9253 75.9701 31.393 75.9701 31.8607C73.85 31.8607 71.7292 31.8607 69.609 31.8607C69.609 33.6415 69.609 35.4223 69.609 37.2031C71.8015 37.2031 73.9933 37.2031 76.1858 37.2031C76.1858 37.6528 76.1858 38.1025 76.1858 38.5522C73.4904 38.5522 70.795 38.5522 68.0996 38.5522C68.0996 33.6594 68.0996 28.7668 68.0996 23.874Z" fill="#030303"/>
<path opacity="0.977" fill-rule="evenodd" clip-rule="evenodd" d="M89.9873 23.874C90.4903 23.874 90.9938 23.874 91.4967 23.874C91.4967 28.317 91.4967 32.7601 91.4967 37.2031C93.5091 37.2031 95.522 37.2031 97.5344 37.2031C97.5344 37.6528 97.5344 38.1025 97.5344 38.5522C95.0185 38.5522 92.5032 38.5522 89.9873 38.5522C89.9873 33.6594 89.9873 28.7668 89.9873 23.874Z" fill="#030303"/>
<path opacity="0.979" fill-rule="evenodd" clip-rule="evenodd" d="M110.095 23.874C112.79 23.874 115.486 23.874 118.181 23.874C118.181 24.3237 118.181 24.7734 118.181 25.2231C115.988 25.2231 113.797 25.2231 111.604 25.2231C111.604 26.9679 111.604 28.7128 111.604 30.4576C113.724 30.4576 115.845 30.4576 117.965 30.4576C117.965 30.9253 117.965 31.393 117.965 31.8607C115.845 31.8607 113.724 31.8607 111.604 31.8607C111.604 33.6415 111.604 35.4223 111.604 37.2031C113.797 37.2031 115.988 37.2031 118.181 37.2031C118.181 37.6528 118.181 38.1025 118.181 38.5522C115.486 38.5522 112.79 38.5522 110.095 38.5522C110.095 33.6594 110.095 28.7668 110.095 23.874Z" fill="#030303"/>
<path opacity="0.965" fill-rule="evenodd" clip-rule="evenodd" d="M133.005 23.874C133.508 23.874 134.011 23.874 134.514 23.874C134.505 28.1552 134.514 32.4363 134.541 36.7174C137.433 32.4469 140.335 28.1837 143.247 23.928C143.84 23.8561 144.433 23.8561 145.026 23.928C141.702 28.8207 138.378 33.7134 135.053 38.6061C134.371 38.66 133.688 38.678 133.005 38.6601C133.005 33.7314 133.005 28.8027 133.005 23.874Z" fill="#030303"/>
</g>
<defs>
<clipPath id="clip0_6001_8736">
<rect width="164" height="61" fill="white" transform="translate(0.5)"/>
</clipPath>
</defs>
</svg>
