<svg className="carboncore" width="476" height="49" viewBox="0 0 476 49" fill="none" xmlns="http://www.w3.org/2000/svg">
<g clip-path="url(#clip0_299_7567)">
<path d="M475.2 9.45V0H433.77V48.96H475.2V39.51H443.07V29.2H472.66V19.76H443.07V9.45H475.2Z" fill="black"/>
<path fill-rule="evenodd" clip-rule="evenodd" d="M428.69 5.15L423.62 0H384.73V49H394.87V34.36H410.09L419.39 43.81V49H428.69V39.51L423.62 34.36L428.69 29.2V5.15ZM419.39 24.91H394.87V9.45H419.39V24.91Z" fill="black"/>
<path fill-rule="evenodd" clip-rule="evenodd" d="M375.421 0H341.601L336.531 5.15V43.81L341.601 49H375.421L380.501 43.85V5.15L375.421 0ZM371.201 39.51H345.831V9.45H371.201V39.51Z" fill="black"/>
<path d="M332.3 14.6V5.15L327.23 0H294.25L289.18 5.15V44.66L293.41 48.96H327.23L332.3 43.81V35.22H323V39.51H298.48V9.45H323V14.6H332.3Z" fill="black"/>
<path d="M274.801 0V33.5L249.441 0H240.141V48.96H250.281V16.32L274.801 48.96H284.111V0H274.801Z" fill="black"/>
<path fill-rule="evenodd" clip-rule="evenodd" d="M230.84 0H197L191.93 5.15V43.81L197 49H230.83L235.9 43.85V5.15L230.84 0ZM226.61 39.51H201.24V9.45H226.61V39.51Z" fill="black"/>
<path fill-rule="evenodd" clip-rule="evenodd" d="M186.869 5.15L181.789 0H143.789V49H182.689L186.919 44.71V30.06L181.839 24.91L186.919 19.76L186.869 5.15ZM178.409 39.51H152.999V29.2H178.369L178.409 39.51ZM178.409 19.76H152.999V9.45H178.369L178.409 19.76Z" fill="black"/>
<path fill-rule="evenodd" clip-rule="evenodd" d="M138.669 5.15L133.599 0H94.6992V49H104.849V34.36H120.069L129.369 43.81V49H138.669V39.51L133.599 34.36L138.669 29.2V5.15ZM129.369 24.91H104.849V9.45H129.369V24.91Z" fill="black"/>
<path fill-rule="evenodd" clip-rule="evenodd" d="M61.7317 0L46.5117 15.46V49H55.8117V34.36H81.1717V49H90.4717V0H61.7317ZM81.1717 24.91H55.8117V19.76L66.0017 9.45H81.1717V24.91Z" fill="black"/>
<path d="M43.12 14.6V5.15L38.05 0H5.07L0 5.15V44.66L4.23 48.96H38.05L43.12 43.81V35.22H33.82V39.51H9.3V9.45H33.82V14.6H43.12Z" fill="black"/>
</g>
<defs>
<clipPath id="clip0_299_7567">
<rect width="475.2" height="48.96" fill="white"/>
</clipPath>
</defs>
</svg>
