<svg width="129" height="24" viewBox="0 0 129 24" fill="none" xmlns="http://www.w3.org/2000/svg">
<path d="M72.3678 3.34297C70.2173 1.28028 67.314 0 64.0522 0C57.5288 0 52.2598 5.19231 52.2598 11.5582C52.2598 17.9241 57.5288 23.1164 64.0522 23.1164C67.2781 23.1164 70.2173 21.8361 72.3678 19.7734V22.5118H76.669V0.569006H72.3678V3.30743V3.34297ZM64.4465 19.4534C60.0736 19.4534 56.5251 15.9325 56.5251 11.5938C56.5251 7.25498 60.0736 3.73418 64.4465 3.73418C68.8193 3.73418 72.3678 7.25498 72.3678 11.5938C72.3678 15.9325 68.8193 19.4534 64.4465 19.4534Z" fill="#131313"/>
<path d="M49.822 6.96984C49.822 3.44903 46.9188 0.568359 43.3703 0.568359H27.6709V22.5112H31.9721V13.3713H38.6031L46.1302 22.5112H51.6142L43.8721 13.3713C47.2055 13.1224 49.822 10.3484 49.822 7.00541V6.96984ZM31.9721 4.23142H42.7251C44.2664 4.23142 45.485 5.47617 45.485 6.96984C45.485 8.46352 44.2305 9.70824 42.7251 9.70824H31.9721V4.23142Z" fill="#131313"/>
<path d="M96.5978 0.568359H80.8984V22.5112H85.1996V13.3713H96.5978C100.146 13.3713 103.05 10.4907 103.05 6.96984C103.05 3.44903 100.146 0.568359 96.5978 0.568359ZM95.9884 9.70824H85.2354V4.23142H95.9884C97.5297 4.23142 98.7484 5.47617 98.7484 6.96984C98.7484 8.46352 97.4938 9.70824 95.9884 9.70824Z" fill="#131313"/>
<path d="M10.1795 9.74456V13.4076H19.893C19.0686 16.8573 15.9144 19.4535 12.1867 19.4535C7.81384 19.4535 4.26536 15.9326 4.26536 11.5939C4.26536 7.25508 7.81384 3.73428 12.1867 3.73428C14.8391 3.73428 17.2048 5.05014 18.6385 7.0417H23.3698C21.506 2.91631 17.2048 0.0356445 12.1867 0.0356445C5.44818 0.0356445 0 5.22795 0 11.5939C0 17.9598 5.44818 23.1521 12.1867 23.1521C18.9253 23.1521 24.3734 17.9598 24.3734 11.5939C24.3734 10.9893 24.3376 10.3491 24.2301 9.78013H10.2154L10.1795 9.74456Z" fill="#131313"/>
<path d="M128.999 11.5582C128.999 5.15674 123.551 0 116.813 0C110.074 0 104.626 5.19231 104.626 11.5582C104.626 17.9241 110.074 23.1164 116.813 23.1164C121.831 23.1164 126.132 20.2358 127.996 16.1104H123.264C121.831 18.1019 119.465 19.4178 116.813 19.4178C113.049 19.4178 109.931 16.8572 109.106 13.3719H128.856C128.964 12.7674 128.999 12.1628 128.999 11.5582ZM109.106 9.74446C109.931 6.29477 113.085 3.69863 116.813 3.69863C120.54 3.69863 123.695 6.25921 124.519 9.74446H109.106Z" fill="#131313"/>
</svg>
