<svg width="302" height="488" viewBox="0 0 302 488" fill="none" xmlns="http://www.w3.org/2000/svg">
<path d="M-129.889 487.873C-126.814 473.073 -124.017 459.204 -121.068 445.36C-106.855 378.533 -92.5912 311.705 -78.3274 244.903C-62.4004 170.323 -46.4733 95.7427 -30.4455 21.1879C-29.009 14.4925 -28.6058 5.73321 -24.2208 2.03316C-20.1887 -1.36485 -11.4691 0.522932 -4.84123 0.522932C44.9308 0.44742 94.7028 0.573273 144.475 0.371909C149.843 0.371909 152.262 1.60526 153.094 7.31895C156.848 33.169 161.208 58.9184 165.089 84.7433C169.323 112.859 173.33 140.974 177.413 169.115C180.915 193.303 184.318 217.517 187.846 241.731C192.735 275.435 197.725 309.138 202.614 342.841C206.545 369.924 210.375 397.033 214.307 424.142C217.079 443.372 219.801 462.602 222.8 481.807C223.48 486.111 222.699 487.974 217.911 487.949C166.047 487.848 114.158 487.873 62.2943 487.949C58.7157 487.949 57.2037 486.69 56.4224 483.066C47.7281 442.818 39.0085 402.596 29.9362 362.449C28.1469 354.57 25.0472 346.919 21.9223 339.443C19.9566 334.761 15.5464 330.961 10.5566 332.32C6.70084 333.377 2.11424 337.052 0.753387 340.651C-2.11952 348.152 -4.03481 356.332 -4.61443 364.337C-6.4289 389.608 -7.41174 414.954 -8.77259 440.251C-9.55382 454.673 -10.5871 469.096 -11.2171 483.544C-11.4439 488.578 -14.6444 487.898 -17.7693 487.898C-50.7323 487.898 -83.7204 487.898 -116.683 487.898C-120.816 487.898 -124.949 487.898 -129.863 487.898L-129.889 487.873Z" fill="#552BEF"/>
<path d="M519.568 0.925537C515.485 15.021 511.73 28.2355 507.875 41.3996C464.68 188.219 421.435 335.013 378.392 481.857C376.98 486.69 374.864 487.999 370.101 487.974C340.918 487.772 311.735 487.722 282.552 487.999C276.781 488.049 275.294 486.136 275.748 480.75C277.411 460.311 278.823 439.848 280.284 419.384C281.317 404.987 282.325 390.564 283.384 376.167C284.896 355.502 286.433 334.837 287.945 314.172C289.382 294.539 290.743 274.931 292.179 255.298C293.742 234.004 295.329 212.71 296.892 191.415C298.303 172.009 299.613 152.577 301.025 133.171C302.562 111.877 304.2 90.5827 305.712 69.2885C307.148 48.8249 308.61 28.3613 309.795 7.87258C310.072 2.914 311.055 0.321447 316.977 0.346617C382.474 0.547981 447.997 0.472469 513.494 0.472469C515.132 0.472469 516.77 0.699003 519.593 0.900367L519.568 0.925537Z" fill="#552BEF"/>
</svg>
