<svg width="821" height="667" viewBox="0 0 821 667" fill="none" xmlns="http://www.w3.org/2000/svg">
<path d="M-71 667.327C-66.7788 647.007 -62.9382 627.966 -58.8901 608.959C-39.3758 517.208 -19.7923 425.457 -0.208755 333.74C21.6583 231.345 43.5254 128.95 65.5309 26.59C67.5031 17.3976 68.0567 5.37144 74.0771 0.291433C79.6131 -4.37388 91.5846 -1.78204 100.684 -1.78204C169.019 -1.88571 237.354 -1.71292 305.688 -1.98939C313.058 -1.98939 316.38 -0.29605 317.521 7.54858C322.677 43.0395 328.663 78.3922 333.991 113.849C339.804 152.45 345.305 191.051 350.91 229.687C355.72 262.897 360.391 296.141 365.235 329.386C371.947 375.659 378.798 421.932 385.51 468.205C390.908 505.389 396.167 542.608 401.564 579.827C405.37 606.229 409.107 632.631 413.225 658.999C414.159 664.908 413.086 667.466 406.512 667.431C335.306 667.293 264.065 667.327 192.858 667.431C187.945 667.431 185.869 665.703 184.797 660.727C172.86 605.469 160.888 550.245 148.432 495.125C145.976 484.309 141.72 473.803 137.429 463.54C134.731 457.112 128.676 451.894 121.825 453.76C116.531 455.211 110.234 460.257 108.366 465.198C104.421 475.497 101.792 486.728 100.996 497.717C98.5046 532.413 97.1552 567.213 95.2868 601.944C94.2142 621.745 92.7956 641.547 91.9306 661.383C91.6192 668.295 87.225 667.362 82.9346 667.362C37.6781 667.362 -7.61311 667.362 -52.8697 667.362C-58.5441 667.362 -64.2184 667.362 -70.9654 667.362L-71 667.327Z" fill="#552BEF"/>
<path d="M820.673 -1.22909C815.068 18.1233 809.913 36.2662 804.619 54.34C745.315 255.916 685.942 457.457 626.845 659.068C624.907 665.703 622.001 667.5 615.462 667.466C575.395 667.189 535.329 667.12 495.262 667.5C487.339 667.569 485.297 664.943 485.92 657.547C488.204 629.486 490.141 601.391 492.148 573.295C493.566 553.528 494.951 533.727 496.404 513.96C498.48 485.588 500.59 457.216 502.666 428.844C504.638 401.888 506.507 374.968 508.479 348.013C510.624 318.777 512.804 289.541 514.949 260.305C516.887 233.661 518.686 206.982 520.624 180.338C522.734 151.102 524.983 121.866 527.059 92.6301C529.031 64.5345 531.038 36.439 532.664 8.30888C533.045 1.50098 534.394 -2.05848 542.525 -2.02392C632.45 -1.74746 722.41 -1.85113 812.335 -1.85113C814.584 -1.85113 816.833 -1.54011 820.708 -1.26365L820.673 -1.22909Z" fill="#552BEF"/>
</svg>
