<svg width="330" height="302" viewBox="0 0 330 302" fill="none" xmlns="http://www.w3.org/2000/svg">
<path d="M117.656 77.8678C119.364 93.2971 120.254 118.556 120.254 149.51C120.254 203.777 114.674 263.667 94.2067 263.667C82.3016 263.667 78.4535 236.534 78.4535 201.181C78.4535 157.081 84.4421 104.521 88.2662 89.4998C75.0383 93.6816 33.9596 100.363 4.25695 102.021C1.70758 126.607 0 164.507 0 195.341C0 264.484 26.8646 302 73.3306 302C125.328 302 162.006 252.828 162.006 130.765C162.006 101.925 161.597 69.0958 159.889 42.8757C146.967 55.8661 132.824 67.5841 117.656 77.8678Z" fill="#552BEF"/>
<path d="M290.749 74.935C291.206 86.2065 292.481 110.792 292.481 144.943C292.481 199.21 285.266 229.516 273.721 229.516C261.359 229.516 256.741 209.52 256.741 147.034C256.741 102.958 258.858 62.9185 259.291 52.0796C234.543 35.2565 201.305 8.33947 193.632 0C189.327 68.3019 188.437 109.543 188.437 147.154C188.437 217.114 216.577 263.354 259.219 263.354C304.915 263.354 330 221.729 330 148.813C330 121.679 329.158 104.712 328.701 95.9399C315.576 89.8318 302.894 82.813 290.749 74.935Z" fill="#552BEF"/>
</svg>
