<svg width="92" height="48" viewBox="0 0 92 48" fill="none" xmlns="http://www.w3.org/2000/svg">
<path d="M35.7389 21.0991H39.8637V9.94899H45.3118V6.12054L35.7379 6.12054V21.0981L35.7389 21.0991ZM27.2158 17.7592C26.7651 17.7801 26.3151 17.7067 25.8943 17.5435C25.4736 17.3803 25.0915 17.131 24.7724 16.8114C24.4534 16.4919 24.2043 16.1092 24.0413 15.6878C23.8783 15.2664 23.8048 14.8155 23.8256 14.3641L33.9973 14.3641C33.9973 14.3641 34.0657 13.5935 34.0657 12.8014C34.0657 8.27391 31.3865 5.78225 27.2046 5.78225C22.786 5.78225 19.711 9.00874 19.711 13.616C19.711 18.2242 22.7411 21.5406 27.1597 21.5406C31.2621 21.5406 34.0208 19.1634 34.0994 15.6763H30.0643C29.9432 16.3215 29.5811 16.8961 29.0519 17.2832C28.5227 17.6704 27.8661 17.8399 27.2158 17.7592ZM27.2158 9.22438C27.5558 9.17664 27.9018 9.19774 28.2335 9.28642C28.5651 9.37511 28.8756 9.52958 29.1466 9.74068C29.4175 9.95178 29.6434 10.2152 29.8109 10.5154C29.9783 10.8156 30.084 11.1463 30.1215 11.4881H24.051C24.2554 10.8049 24.6831 10.2103 25.2654 9.79973C25.8476 9.3892 26.5507 9.18657 27.2617 9.22438H27.2158ZM12.5234 6.12156L9.68714 15.3023L6.9274 6.12156L2.37307 6.12156L0 21.0991H3.7861L5.22157 11.7825L8.01294 21.0991H11.2573L14.1507 11.6118L15.53 21.0991H19.3722L17.0104 6.12156L12.5234 6.12156ZM52.8727 5.75977C48.4755 5.75977 45.978 7.92234 46.0912 11.6016L50.364 11.6016C50.364 10.0389 51.1771 9.3368 52.8839 9.3368C54.1052 9.3368 54.8734 9.84679 54.8734 10.6164C54.8734 11.1141 54.6816 11.3072 53.9348 11.5219L50.5445 12.4621C47.2441 13.3553 45.7749 14.7259 45.7749 16.9896C45.7749 19.6724 47.7185 21.4609 50.5782 21.4609C51.4908 21.5523 52.4088 21.3518 53.2006 20.8882C53.9924 20.4246 54.6173 19.7217 54.9856 18.8803V21.1441H58.9309V11.1488C58.8738 7.53704 56.5915 5.75977 52.8727 5.75977ZM51.4036 17.9748C50.3527 17.9748 49.8436 17.4649 49.8436 16.7178C49.8436 15.9717 50.2058 15.5864 51.3352 15.2358L54.9071 14.2271V14.499C54.918 14.9613 54.8346 15.4209 54.662 15.8497C54.4894 16.2786 54.2311 16.6676 53.9031 16.993C53.5751 17.3183 53.1842 17.5731 52.7544 17.7418C52.3246 17.9104 51.8649 17.9904 51.4036 17.9748ZM79.1509 25.0952V28.9216H83.4237V40.0717H87.5485V28.9216L91.8213 28.9216V25.0952L79.1509 25.0952ZM64.2994 25.0952H59.7563L56.5466 30.6539H54.9071V25.0952L50.7823 25.0952V40.0727H54.9071V34.3331H56.5231L59.9715 40.0727H64.6279L60.0725 32.4312L64.2994 25.0952ZM27.476 24.7334C23.0788 24.7334 20.57 26.896 20.6945 30.5752H24.9672C24.9672 29.0115 25.7803 28.3104 27.4872 28.3104C28.7084 28.3104 29.4767 28.8317 29.4767 29.6012C29.4767 30.0877 29.2849 30.2809 28.5278 30.4955L25.1366 31.4357C21.8473 32.3412 20.3782 33.6995 20.3782 35.9632C20.3782 38.6348 22.3217 40.4345 25.1815 40.4345C26.0952 40.5337 27.0165 40.3351 27.8086 39.8682C28.6008 39.4013 29.2215 38.691 29.5787 37.8427V40.1065H33.5341V30.0765C33.478 26.5107 31.1947 24.7334 27.476 24.7334ZM25.9854 36.9485C24.957 36.9485 24.4367 36.4385 24.4367 35.6812C24.4367 34.9218 24.8101 34.5478 25.9395 34.2309L29.5001 33.2232V33.4726C29.511 33.9358 29.4272 34.3964 29.2538 34.8259C29.0804 35.2555 28.8212 35.645 28.492 35.9705C28.1628 36.2959 27.7706 36.5505 27.3395 36.7185C26.9085 36.8865 26.4476 36.9655 25.9854 36.9485ZM43.56 24.7334C42.6981 24.6794 41.8415 24.903 41.1155 25.3716C40.3895 25.8401 39.8322 26.529 39.525 27.3375V25.0727H35.3991L35.3991 44.1598L39.525 44.1598L39.525 37.8652C39.8429 38.6622 40.4045 39.3379 41.1294 39.7954C41.8543 40.2529 42.7051 40.4688 43.56 40.412C46.9503 40.412 49.2111 37.763 49.2111 32.5783C49.2111 27.3937 46.9849 24.7334 43.56 24.7334ZM42.4296 36.5856C40.5421 36.5856 39.4117 35.2959 39.4117 32.5794C39.4117 29.8608 40.5421 28.5598 42.4071 28.5598C44.2721 28.5598 45.1985 29.8618 45.1985 32.5783C45.1985 35.2959 44.2497 36.5856 42.4071 36.5856H42.4296ZM12.5234 25.0952L9.68714 34.2647L6.92842 25.0952H2.37307L0 40.0727H3.7861L5.22157 30.7551L8.01294 40.0727H11.2573L14.1507 30.5854L15.53 40.0727H19.3722L17.0104 25.0952H12.5234Z" fill="#8654CC"/>
<path d="M71.3296 36.7328C70.8791 36.7522 70.4296 36.6776 70.0095 36.5138C69.5893 36.35 69.2078 36.1006 68.8889 35.7813C68.5701 35.462 68.321 35.0798 68.1573 34.659C67.9937 34.2382 67.9191 33.7879 67.9383 33.3367H78.1101C78.1101 33.3367 78.1784 32.5671 78.1784 31.775C78.1784 27.2475 75.5105 24.7559 71.3173 24.7559C66.8987 24.7559 63.8247 27.9823 63.8247 32.5783C63.8247 37.1753 66.8538 40.503 71.2724 40.503C75.3758 40.503 78.1335 38.1258 78.2233 34.6387H74.177C74.0584 35.2857 73.6976 35.8629 73.1683 36.2523C72.6391 36.6417 71.9814 36.8129 71.3296 36.7328ZM71.3296 28.198C71.6698 28.1519 72.0158 28.1742 72.3474 28.2634C72.679 28.3527 72.9896 28.5072 73.261 28.7179C73.5324 28.9286 73.7592 29.1913 73.9282 29.4907C74.0972 29.7901 74.205 30.1202 74.2454 30.4617H68.1648C68.3672 29.7775 68.7943 29.1818 69.3768 28.7709C69.9593 28.3601 70.6632 28.1582 71.3745 28.198H71.3296Z" fill="#8654CC"/>
</svg>
