<svg width="177" height="54" viewBox="0 0 177 54" fill="none" xmlns="http://www.w3.org/2000/svg">
<rect width="177" height="54" fill="#131313" fill-opacity="0.06"/>
<path d="M16.88 19V7.72H21.232C24.528 7.72 26.016 8.264 26.016 10.488C26.016 12.792 24.352 12.584 23.136 12.696V13.432C24.848 13.512 26.848 13.448 26.848 16.008C26.848 18.68 24.24 19 21.216 19H16.88ZM19.936 11.784H21.664C22.384 11.784 22.96 11.896 22.96 11.096C22.96 10.36 22.384 10.408 21.664 10.408H19.936V11.784ZM19.936 16.312H21.648C23.008 16.312 23.792 16.44 23.792 15.4C23.792 14.296 23.008 14.472 21.648 14.472H19.936V16.312ZM35.0259 7.72H38.3059L34.0659 15.592V19H31.0099V15.592L26.8019 7.72H30.0659L32.1619 12.088V13.752H32.9139V12.088L35.0259 7.72Z" fill="#141414"/>
<g clip-path="url(#clip0_4806_28255)">
<g clip-path="url(#clip1_4806_28255)">
<path d="M50.0981 41.8679H54.0315V31.0652H59.2291V27.354H50.0981V41.8679Z" fill="#8654CC"/>
<path d="M41.9653 38.6321C40.0433 38.6321 38.845 37.3695 38.7356 35.3147H48.4876C48.4876 35.3147 48.5484 34.5682 48.5484 33.8006C48.5484 29.4465 46.0009 27 42.0061 27C37.7868 27 34.8521 30.1305 34.8521 34.5886C34.8521 39.1089 37.7461 42.2186 41.9653 42.2186C45.8786 42.2186 48.5077 39.9152 48.5892 36.5377H44.6786C44.4521 37.8652 43.4938 38.6321 41.9653 38.6321ZM42.0061 30.3595C43.5831 30.3595 44.5227 31.0515 44.7828 32.5159H38.9451C39.3923 31.1448 40.4943 30.3595 42.0061 30.3595Z" fill="#8654CC"/>
<path d="M148.888 27.354V31.0652H152.964V41.8679H156.898V31.0652H160.974V27.354H148.888Z" fill="#8654CC"/>
<path d="M27.9435 27.354L25.237 36.246L22.6036 27.354H18.2626L16 41.8679H19.6078L20.9834 32.8391L23.6433 41.8679H26.7413L29.4951 32.6771L30.8176 41.8679H34.4862L32.2236 27.354H27.9435Z" fill="#8654CC"/>
<path d="M66.444 27.0015C62.2454 27.0015 59.8606 29.0953 59.9628 32.6621H64.0391C64.0591 31.1483 64.8153 30.4242 66.444 30.4242C67.6053 30.4242 68.3392 30.9217 68.3392 31.6682C68.3392 32.1456 68.1561 32.3318 67.4423 32.5391L64.1613 33.4514C61.0226 34.3223 59.6157 35.6492 59.6157 37.8681C59.6157 40.4593 61.4708 42.2011 64.2021 42.2011C66.3217 42.2011 67.7075 41.3302 68.4006 39.6928V41.8695H72.171V32.2265C72.171 28.7222 69.9902 27.0015 66.444 27.0015ZM65.0374 38.8402C64.0391 38.8402 63.5491 38.3427 63.5491 37.6173C63.5491 36.9326 63.8954 36.4984 64.9726 36.1864L68.3758 35.2129V35.4813C68.3799 37.3475 66.9364 38.8402 65.0374 38.8402Z" fill="#8654CC"/>
<path d="M134.722 27.354H130.38L127.322 32.7445H125.754V27.354H121.82V41.8679H125.754V36.3113H127.299L130.585 41.8679H135.028L130.687 34.4655L134.722 27.354Z" fill="#8654CC"/>
<path d="M99.5851 27.0015C95.3865 27.0015 93.0013 29.0953 93.1035 32.6621H97.1798C97.1999 31.1483 97.9565 30.4242 99.5851 30.4242C100.749 30.4242 101.48 30.9217 101.48 31.6682C101.48 32.1456 101.297 32.3318 100.583 32.5391L97.3024 33.4514C94.1634 34.3223 92.7568 35.6492 92.7568 37.8681C92.7568 40.4593 94.6119 42.2011 97.3432 42.2011C99.4628 42.2011 100.849 41.3513 101.542 39.6928V41.8695H105.312V32.2265C105.312 28.7222 103.131 27.0015 99.5851 27.0015ZM98.1616 38.8402C97.1832 38.8402 96.6939 38.3427 96.6939 37.6173C96.6939 36.9326 97.0403 36.518 98.1208 36.2075L101.524 35.234V35.4813C101.521 37.4522 100.074 38.8402 98.1582 38.8402H98.1616Z" fill="#8654CC"/>
<path d="M114.931 27.0015C113.048 27.0015 111.637 27.9756 111.08 29.5302V27.3535H107.146V45.8281H111.08V39.7356C111.662 41.2756 113.065 42.1991 114.931 42.1991C118.192 42.1991 120.373 39.6282 120.373 34.6104C120.373 29.5927 118.192 27.0015 114.931 27.0015ZM113.831 38.4882C112.079 38.4882 111.019 37.2442 111.019 34.6104C111.019 31.9981 112.099 30.7123 113.872 30.7123C115.543 30.7123 116.542 31.9777 116.542 34.6104C116.542 37.3475 115.583 38.4882 113.831 38.4882H113.831Z" fill="#8654CC"/>
<path d="M85.3177 27.354L82.6109 36.246L79.9775 27.354H75.636L73.374 41.8679H76.9814L78.3573 32.8391L81.0173 41.8679H84.1146L86.8692 32.6771L88.1909 41.8679H91.8597L89.5977 27.354H85.3177Z" fill="#8654CC"/>
<path d="M141.427 38.6321C139.524 38.6321 138.309 37.3695 138.197 35.3147H147.949C147.949 35.3147 148.01 34.5682 148.01 33.8006C148.01 29.4465 145.463 27 141.468 27C137.249 27 134.314 30.1305 134.314 34.5886C134.314 39.1089 137.208 42.2186 141.427 42.2186C145.341 42.2186 147.969 39.9152 148.051 36.5377H144.138C143.914 37.8652 142.956 38.6321 141.427 38.6321ZM141.468 30.3595C143.044 30.3595 143.984 31.0515 144.245 32.5159H138.407C138.853 31.1448 139.956 30.3595 141.468 30.3595Z" fill="#8654CC"/>
</g>
</g>
<defs>
<clipPath id="clip0_4806_28255">
<rect width="145" height="19" fill="white" transform="translate(16 27)"/>
</clipPath>
<clipPath id="clip1_4806_28255">
<rect width="145" height="19" fill="white" transform="translate(16 27)"/>
</clipPath>
</defs>
</svg>
