<svg width="511" height="355" viewBox="0 0 511 355" fill="none" xmlns="http://www.w3.org/2000/svg">
<mask id="mask0_4022_3317" style="mask-type:luminance" maskUnits="userSpaceOnUse" x="0" y="1" width="510" height="509">
<path d="M112.61 466.27C108.548 463.327 102.952 459.638 99.0972 456.446C91.7192 450.353 82.0616 441.939 75.1395 435.348C67.1813 427.763 57.9381 416.323 51.1404 407.702C45.9592 401.111 39.659 391.827 35.6384 384.449C31.9908 377.734 27.0998 368.822 23.8253 361.942C21.2969 356.636 18.5198 349.341 16.323 343.911C13.5459 337.072 10.4787 327.622 8.86215 320.368C7.57722 314.524 5.5462 306.773 4.55142 300.846C3.30794 293.55 1.89867 283.768 1.35983 276.39C0.655189 266.816 0.157797 253.925 0.779537 244.35C1.52562 232.081 3.30794 215.709 5.83635 203.688C7.36997 196.518 9.48388 186.984 11.9294 180.104C13.919 174.508 16.2816 166.923 18.5613 161.41C21.2969 154.695 25.0274 145.742 28.5506 139.442C31.4106 134.385 34.9752 127.505 38.0424 122.572C41.9387 116.396 47.3685 108.272 51.7621 102.469C55.161 97.9928 59.8447 92.107 63.5752 87.9621C68.5905 82.3664 75.6369 75.1542 81.0253 69.9316C84.8387 66.2426 90.1856 61.5589 94.372 58.2844C100.672 53.3105 109.377 47.0516 115.967 42.4922C123.718 37.1453 134.868 31.1766 143.324 26.9073C152.525 22.265 177.519 10.8664 210.389 4.98061C275.381 -6.70808 328.146 9.99597 353.803 21.0215C364.124 25.4566 374.859 30.3476 392.6 41.5389C398.237 45.1035 405.449 50.3676 410.796 54.4296C414.816 57.4968 419.873 61.9319 423.769 65.165C428.204 68.8539 433.634 74.3253 437.696 78.4702C441.51 82.3664 446.276 87.7963 449.841 91.8997C455.561 98.4487 462.649 107.733 467.25 115.111C471.353 121.702 477.073 130.365 480.431 137.328C482.959 142.551 486.565 149.431 488.803 154.82C491.663 161.7 495.477 170.902 497.508 178.073C502.855 196.725 504.678 203.025 507.29 221.387C509.031 233.532 509.777 249.946 509.445 262.215C508.906 283.768 505.632 300.224 504.222 307.229C502.979 313.57 500.782 321.902 498.958 328.119C497.259 333.839 494.482 341.3 492.534 346.937C490.171 353.776 485.943 362.522 482.793 369.03C480.223 374.252 476.286 380.926 473.467 386.024C469.944 392.407 464.307 400.407 459.996 406.251C456.639 410.769 452.038 416.696 448.307 420.924C443.333 426.561 436.702 434.105 431.106 439.079C424.847 444.716 416.516 452.301 409.801 457.358C402.05 463.202 391.149 470.29 382.859 475.43C377.802 478.58 360.849 487.657 343.565 493.999C324.789 500.88 309.286 504.361 299.629 506.019C291.836 507.387 285.329 508.258 280.272 508.714C274.966 509.17 265.06 510.04 254.781 509.999C245.786 509.916 238.201 509.543 230.906 508.838C216.606 507.429 206.617 505.356 206.202 505.273C200.814 504.113 193.684 502.455 188.337 501.087C185.27 500.299 181.25 499.015 178.224 498.103C172.006 496.196 164.587 493.46 156.214 489.979C132.381 480.072 113.439 466.891 112.651 466.311C148.049 490.269 193.975 499.139 244.791 487.865C193.975 499.097 148.049 490.227 112.651 466.311L112.61 466.27Z" fill="white"/>
</mask>
<g mask="url(#mask0_4022_3317)">
<path d="M244.748 487.819C126.369 514.015 34.6835 431.075 40.2792 302.955C-34.9927 252.056 0.0733874 189.509 118.618 163.271C112.981 291.391 169.559 437.002 244.748 487.819Z" stroke="#13FF00" stroke-miterlimit="10"/>
<path d="M64.4863 413.665C-0.506183 369.687 29.7932 315.72 132.131 293.047" stroke="#13FF00" stroke-miterlimit="10"/>
<path d="M244.749 487.819C104.609 484.793 -4.81665 378.061 0.779004 249.942" stroke="#13FF00" stroke-miterlimit="10"/>
<path d="M244.75 487.82C120.112 457.147 23.2866 327.95 28.8823 199.83" stroke="#13FF00" stroke-miterlimit="10"/>
<path d="M244.749 487.82C169.56 437.004 112.982 291.392 118.619 163.273C237.164 137.035 394.298 157.055 469.611 207.955C463.974 336.075 363.128 461.625 244.749 487.82Z" stroke="#13FF00" stroke-miterlimit="10"/>
<path d="M132.132 293.048C234.47 270.417 370.133 287.66 435.126 331.637" stroke="#13FF00" stroke-miterlimit="10"/>
<path d="M244.748 487.821C239.567 430.704 239.94 279.994 245.577 151.874" stroke="#13FF00" stroke-miterlimit="10"/>
<path d="M244.748 487.822C308.995 439.534 365.863 296.036 371.5 167.917" stroke="#13FF00" stroke-miterlimit="10"/>
<path d="M244.75 487.821C363.129 461.625 463.975 336.075 469.612 207.956C544.884 258.855 509.818 321.402 391.273 347.64C385.636 475.759 319.939 538.638 244.75 487.821Z" stroke="#13FF00" stroke-miterlimit="10"/>
<path d="M435.128 331.638C500.12 375.574 469.862 429.582 367.524 452.214" stroke="#13FF00" stroke-miterlimit="10"/>
<path d="M244.75 487.82C384.89 490.846 503.476 389.088 509.113 260.969" stroke="#13FF00" stroke-miterlimit="10"/>
<path d="M244.75 487.819C369.388 518.491 475.373 439.199 481.01 311.079" stroke="#13FF00" stroke-miterlimit="10"/>
<path d="M244.749 487.824C319.938 538.641 385.635 475.763 391.272 347.643C272.727 373.88 115.593 353.86 40.2794 302.961C34.6423 431.08 126.37 514.02 244.749 487.824Z" stroke="#13FF00" stroke-miterlimit="10"/>
<path d="M244.749 487.827C180.503 536.116 132.795 471.123 138.39 343.003" stroke="#13FF00" stroke-miterlimit="10"/>
<path d="M40.2792 302.961C45.9163 174.841 146.762 49.2915 265.142 23.0955C189.953 -27.7213 124.255 35.1573 118.618 163.277C0.0733874 189.514 -34.9927 252.061 40.2792 302.961Z" stroke="#13FF00" stroke-miterlimit="10"/>
<path d="M74.7656 179.277C9.77314 135.341 40.0311 81.3327 142.369 58.7014" stroke="#13FF00" stroke-miterlimit="10"/>
<path d="M155.509 78.8428C117.541 53.1442 135.24 21.6013 195.01 8.37903" stroke="#13FF00" stroke-miterlimit="10"/>
<path d="M0.777374 249.945C6.41448 121.825 125.001 20.0672 265.141 23.093" stroke="#13FF00" stroke-miterlimit="10"/>
<path d="M28.8795 199.837C34.5166 71.7174 140.502 -7.57504 265.14 23.0974" stroke="#13FF00" stroke-miterlimit="10"/>
<path d="M118.618 163.272C124.255 35.1525 189.993 -27.7261 265.141 23.0908C383.52 -3.10518 475.206 79.8348 469.61 207.955C394.338 157.055 237.163 137.035 118.618 163.272Z" stroke="#13FF00" stroke-miterlimit="10"/>
<path d="M142.411 58.698C244.75 36.0667 380.413 53.3096 445.406 97.2873" stroke="#13FF00" stroke-miterlimit="10"/>
<path d="M195.01 8.37855C254.779 -4.84377 334.03 5.22841 372.039 30.927" stroke="#13FF00" stroke-miterlimit="10"/>
<path d="M245.576 151.876C251.213 23.7561 259.958 -34.0241 265.14 23.093" stroke="#13FF00" stroke-miterlimit="10"/>
<path d="M371.501 167.914C377.138 39.7939 329.43 -25.1985 265.142 23.0899" stroke="#13FF00" stroke-miterlimit="10"/>
<path d="M469.611 207.958C475.248 79.8384 383.521 -3.10164 265.142 23.0943C340.331 73.9111 396.909 219.522 391.272 347.642C509.817 321.405 544.883 258.858 469.611 207.958Z" stroke="#13FF00" stroke-miterlimit="10"/>
<path d="M445.406 97.2902C510.399 141.226 480.141 195.235 377.803 217.866" stroke="#13FF00" stroke-miterlimit="10"/>
<path d="M371.998 30.9258C409.966 56.6243 392.267 88.1672 332.497 101.39" stroke="#13FF00" stroke-miterlimit="10"/>
<path d="M509.112 260.973C514.75 132.853 405.282 26.121 265.142 23.0952" stroke="#13FF00" stroke-miterlimit="10"/>
<path d="M481.01 311.085C486.647 182.965 389.822 53.7677 265.142 23.0952" stroke="#13FF00" stroke-miterlimit="10"/>
<path d="M391.274 347.641C396.911 219.522 340.333 73.9103 265.144 23.0935C146.806 49.2894 45.9184 174.839 40.2813 302.959C115.553 353.859 272.729 373.879 391.274 347.641Z" stroke="#13FF00" stroke-miterlimit="10"/>
<path d="M377.759 217.863C275.421 240.495 139.758 223.252 74.7653 179.274" stroke="#13FF00" stroke-miterlimit="10"/>
<path d="M332.498 101.352C272.728 114.575 193.477 104.503 155.468 78.8041" stroke="#13FF00" stroke-miterlimit="10"/>
<path d="M264.313 359.04C269.95 230.92 270.323 80.2106 265.142 23.0935" stroke="#13FF00" stroke-miterlimit="10"/>
<path d="M138.39 342.999C144.027 214.879 200.854 71.3405 265.142 23.0935" stroke="#13FF00" stroke-miterlimit="10"/>
<path d="M112.651 466.311C113.439 466.891 132.381 480.072 156.214 489.979C164.587 493.46 172.006 496.196 178.224 498.103C181.25 499.015 185.27 500.299 188.338 501.087C193.684 502.455 200.814 504.113 206.202 505.273C206.617 505.356 216.606 507.429 230.906 508.838C238.201 509.543 245.786 509.916 254.781 509.999C265.06 510.04 274.966 509.17 280.272 508.714C285.329 508.258 291.836 507.387 299.629 506.019C309.286 504.361 324.789 500.88 343.565 493.999C360.849 487.657 377.802 478.58 382.859 475.43C391.149 470.29 402.05 463.202 409.801 457.358C416.516 452.301 424.847 444.716 431.106 439.079C436.702 434.105 443.333 426.561 448.307 420.924C452.038 416.696 456.639 410.769 459.996 406.251C464.307 400.407 469.944 392.407 473.467 386.024C476.286 380.926 480.223 374.252 482.793 369.03C485.943 362.522 490.171 353.776 492.534 346.937C494.482 341.3 497.259 333.839 498.958 328.119C500.782 321.902 502.979 313.57 504.222 307.229C505.632 300.224 508.906 283.768 509.445 262.215C509.777 249.946 509.031 233.532 507.29 221.387C504.678 203.025 502.855 196.725 497.508 178.073C495.477 170.902 491.663 161.7 488.803 154.82C486.565 149.431 482.959 142.551 480.431 137.328C477.073 130.365 471.353 121.702 467.25 115.111C462.649 107.733 455.561 98.4487 449.841 91.8997C446.276 87.7963 441.51 82.3664 437.696 78.4702C433.634 74.3253 428.204 68.8539 423.769 65.165C419.873 61.9319 414.816 57.4968 410.796 54.4296C405.449 50.3676 398.237 45.1035 392.6 41.5389C374.859 30.3476 364.124 25.4566 353.803 21.0215C328.146 9.99597 275.381 -6.70808 210.389 4.98061C177.519 10.8664 152.525 22.265 143.324 26.9073C134.868 31.1766 123.718 37.1453 115.967 42.4922C109.377 47.0516 100.672 53.3105 94.372 58.2844C90.1856 61.5589 84.8387 66.2426 81.0253 69.9316C75.6369 75.1542 68.5905 82.3664 63.5752 87.9621C59.8448 92.107 55.161 97.9928 51.7621 102.469C47.3685 108.272 41.9387 116.396 38.0424 122.572C34.9752 127.505 31.4106 134.385 28.5506 139.442C25.0274 145.742 21.2969 154.695 18.5613 161.41C16.2816 166.923 13.919 174.508 11.9294 180.104C9.48388 186.984 7.36997 196.518 5.83635 203.688C3.30794 215.709 1.52562 232.081 0.779537 244.35C0.157797 253.925 0.655189 266.816 1.35983 276.39C1.89867 283.768 3.30794 293.55 4.55142 300.846C5.5462 306.773 7.57722 314.524 8.86215 320.368C10.4787 327.622 13.5459 337.072 16.323 343.911C18.5198 349.341 21.2969 356.636 23.8253 361.942C27.0998 368.822 31.9908 377.734 35.6384 384.449C39.659 391.827 45.9592 401.111 51.1404 407.702C57.9381 416.323 67.1813 427.763 75.1395 435.348C82.0616 441.939 91.7192 450.353 99.0972 456.446C102.952 459.638 108.548 463.327 112.61 466.27L112.651 466.311ZM112.651 466.311C148.049 490.269 193.975 499.139 244.791 487.865C193.975 499.097 148.049 490.227 112.651 466.311Z" stroke="#13FF00" stroke-miterlimit="10"/>
</g>
<path d="M112.651 466.311C113.439 466.891 132.381 480.072 156.214 489.979C164.587 493.46 172.006 496.196 178.224 498.103C181.25 499.015 185.27 500.299 188.338 501.087C193.684 502.455 200.814 504.113 206.202 505.273C206.617 505.356 216.606 507.429 230.906 508.838C238.201 509.543 245.786 509.916 254.781 509.999C265.06 510.04 274.966 509.17 280.272 508.714C285.329 508.258 291.836 507.387 299.629 506.019C309.286 504.361 324.789 500.88 343.565 493.999C360.849 487.657 377.802 478.58 382.859 475.43C391.149 470.29 402.05 463.202 409.801 457.358C416.516 452.301 424.847 444.716 431.106 439.079C436.702 434.105 443.333 426.561 448.307 420.924C452.038 416.696 456.639 410.769 459.996 406.251C464.307 400.407 469.944 392.407 473.467 386.024C476.286 380.926 480.223 374.252 482.793 369.03C485.943 362.522 490.171 353.776 492.534 346.937C494.482 341.3 497.259 333.839 498.958 328.119C500.782 321.902 502.979 313.57 504.222 307.229C505.632 300.224 508.906 283.768 509.445 262.215C509.777 249.946 509.031 233.532 507.29 221.387C504.678 203.025 502.855 196.725 497.508 178.073C495.477 170.902 491.663 161.7 488.803 154.82C486.565 149.431 482.959 142.551 480.431 137.328C477.073 130.365 471.353 121.702 467.25 115.111C462.649 107.733 455.561 98.4487 449.841 91.8997C446.276 87.7963 441.51 82.3664 437.696 78.4702C433.634 74.3253 428.204 68.8539 423.769 65.165C419.873 61.9319 414.816 57.4968 410.796 54.4296C405.449 50.3676 398.237 45.1035 392.6 41.5389C374.859 30.3476 364.124 25.4566 353.803 21.0215C328.146 9.99597 275.381 -6.70808 210.389 4.98061C177.519 10.8664 152.525 22.265 143.324 26.9073C134.868 31.1766 123.718 37.1453 115.967 42.4922C109.377 47.0516 100.672 53.3105 94.372 58.2844C90.1856 61.5589 84.8387 66.2426 81.0253 69.9316C75.6369 75.1542 68.5905 82.3664 63.5752 87.9621C59.8448 92.107 55.161 97.9928 51.7621 102.469C47.3685 108.272 41.9387 116.396 38.0424 122.572C34.9752 127.505 31.4106 134.385 28.5506 139.442C25.0274 145.742 21.2969 154.695 18.5613 161.41C16.2816 166.923 13.919 174.508 11.9294 180.104C9.48388 186.984 7.36997 196.518 5.83635 203.688C3.30794 215.709 1.52562 232.081 0.779537 244.35C0.157797 253.925 0.655189 266.816 1.35983 276.39C1.89867 283.768 3.30794 293.55 4.55142 300.846C5.5462 306.773 7.57722 314.524 8.86215 320.368C10.4787 327.622 13.5459 337.072 16.323 343.911C18.5198 349.341 21.2969 356.636 23.8253 361.942C27.0998 368.822 31.9908 377.734 35.6384 384.449C39.659 391.827 45.9592 401.111 51.1404 407.702C57.9381 416.323 67.1813 427.763 75.1395 435.348C82.0616 441.939 91.7192 450.353 99.0972 456.446C102.952 459.638 108.548 463.327 112.61 466.27L112.651 466.311ZM112.651 466.311C148.049 490.269 193.975 499.139 244.791 487.865C193.975 499.097 148.049 490.227 112.651 466.311Z" stroke="#13FF00" stroke-miterlimit="10"/>
</svg>
