<svg width="302" height="488" viewBox="0 0 302 488" fill="none" xmlns="http://www.w3.org/2000/svg">
<g clip-path="url(#clip0_2614_19022)">
<path d="M-583.156 176.843L244.716 -651.029" stroke="#13FF00"/>
<path d="M-566.186 193.813L261.687 -634.059" stroke="#13FF00"/>
<path d="M-549.215 210.784L278.657 -617.088" stroke="#13FF00"/>
<path d="M-532.244 227.755L295.628 -600.117" stroke="#13FF00"/>
<path d="M-515.273 244.725L312.599 -583.147" stroke="#13FF00"/>
<path d="M-498.303 261.695L329.569 -566.177" stroke="#13FF00"/>
<path d="M-481.332 278.666L346.54 -549.206" stroke="#13FF00"/>
<path d="M-464.363 295.637L363.509 -532.235" stroke="#13FF00"/>
<path d="M-447.393 312.607L380.479 -515.265" stroke="#13FF00"/>
<path d="M-430.422 329.578L397.45 -498.294" stroke="#13FF00"/>
<path d="M-413.451 346.549L414.421 -481.323" stroke="#13FF00"/>
<path d="M-396.48 363.519L431.392 -464.353" stroke="#13FF00"/>
<path d="M-379.51 380.489L448.362 -447.383" stroke="#13FF00"/>
<path d="M-362.539 397.46L465.333 -430.412" stroke="#13FF00"/>
<path d="M-345.568 414.431L482.304 -413.441" stroke="#13FF00"/>
<path d="M-328.598 431.401L499.274 -396.471" stroke="#13FF00"/>
<path d="M-311.627 448.372L516.245 -379.5" stroke="#13FF00"/>
<path d="M-294.656 465.343L533.216 -362.529" stroke="#13FF00"/>
<path d="M-277.686 482.312L550.187 -345.56" stroke="#13FF00"/>
<path d="M-260.715 499.283L567.157 -328.589" stroke="#13FF00"/>
<path d="M-243.744 516.254L584.128 -311.618" stroke="#13FF00"/>
<path d="M-226.775 533.225L601.097 -294.647" stroke="#13FF00"/>
<path d="M-209.805 550.195L618.067 -277.677" stroke="#13FF00"/>
<path d="M-192.834 567.166L635.038 -260.706" stroke="#13FF00"/>
<path d="M-175.863 584.137L652.009 -243.735" stroke="#13FF00"/>
<path d="M-158.893 601.106L668.979 -226.766" stroke="#13FF00"/>
<path d="M-141.922 618.077L685.95 -209.795" stroke="#13FF00"/>
<path d="M-124.951 635.048L702.921 -192.824" stroke="#13FF00"/>
<path d="M-107.98 652.019L719.892 -175.853" stroke="#13FF00"/>
<path d="M-91.0098 668.989L736.862 -158.883" stroke="#13FF00"/>
<path d="M-74.0391 685.96L753.833 -141.912" stroke="#13FF00"/>
<path d="M-57.0684 702.931L770.804 -124.941" stroke="#13FF00"/>
<path d="M-40.0977 719.9L787.774 -107.972" stroke="#13FF00"/>
<path d="M-23.127 736.871L804.745 -91.001" stroke="#13FF00"/>
<path d="M-6.15625 753.842L821.716 -74.0303" stroke="#13FF00"/>
<path d="M10.8125 770.812L838.685 -57.0596" stroke="#13FF00"/>
<path d="M27.7832 787.783L855.655 -40.0889" stroke="#13FF00"/>
<path d="M44.7539 804.754L872.626 -23.1181" stroke="#13FF00"/>
<path d="M61.7246 821.725L889.597 -6.14744" stroke="#13FF00"/>
<path d="M78.6953 838.694L906.567 10.8223" stroke="#13FF00"/>
<path d="M95.666 855.665L923.538 27.793" stroke="#13FF00"/>
<path d="M112.637 872.636L940.509 44.7637" stroke="#13FF00"/>
<path d="M129.607 889.606L957.479 61.7344" stroke="#13FF00"/>
<path d="M146.578 906.577L974.45 78.7051" stroke="#13FF00"/>
<path d="M163.549 923.548L991.421 95.6758" stroke="#13FF00"/>
<path d="M180.52 940.519L1008.39 112.647" stroke="#13FF00"/>
<path d="M197.49 957.488L1025.36 129.616" stroke="#13FF00"/>
<path d="M214.461 974.459L1042.33 146.587" stroke="#13FF00"/>
<path d="M231.432 991.43L1059.3 163.558" stroke="#13FF00"/>
<path d="M248.4 1008.4L1076.27 180.528" stroke="#13FF00"/>
<path d="M265.371 1025.37L1093.24 197.499" stroke="#13FF00"/>
<path d="M282.342 1042.34L1110.21 214.47" stroke="#13FF00"/>
<path d="M299.312 1059.31L1127.18 231.44" stroke="#13FF00"/>
</g>
<defs>
<clipPath id="clip0_2614_19022">
<rect width="302" height="488" fill="white"/>
</clipPath>
</defs>
</svg>
