<svg width="32" height="32" viewBox="0 0 32 32" fill="none" xmlns="http://www.w3.org/2000/svg">
<path d="M26.6667 12C26.6667 12 26.2396 12.8898 25.3334 14.0193M16.0001 18.6667C13.8561 18.6667 12.0639 18.117 10.5982 17.3333M16.0001 18.6667C18.1441 18.6667 19.9363 18.117 21.4019 17.3333M16.0001 18.6667V23.3333M5.33341 12C5.33341 12 5.80498 12.9824 6.80845 14.193M10.5982 17.3333L6.66675 21.3333M10.5982 17.3333C8.91901 16.4355 7.66841 15.2305 6.80845 14.193M21.4019 17.3333L24.6667 21.3333M21.4019 17.3333C23.1758 16.3849 24.4714 15.0936 25.3334 14.0193M6.80845 14.193L2.66675 16M25.3334 14.0193L29.3334 16"  stroke-linecap="square"/>
</svg>
