<svg width="289" height="149" viewBox="0 0 289 149" fill="none" xmlns="http://www.w3.org/2000/svg">
<g clip-path="url(#clip0_3308_40104)">
<path d="M271.274 46.7345C271.528 43.1844 271.274 42.3007 269.885 42.3007C269.128 42.3007 268.499 43.0613 267.485 45.9739L251.805 89.1978C249.78 94.6462 247.504 97.1819 243.708 97.0587C239.789 96.9356 237.128 94.0157 236.247 87.9299L230.81 49.9079C230.305 46.7419 229.928 45.7276 228.916 45.7276C227.781 45.7276 227.527 46.4882 226.891 49.9079L220.565 86.4085L208.55 84.1264L222.084 17.0732C224.615 4.77836 227.397 0.974722 233.593 0.974722C238.908 0.974722 242.319 5.53907 243.331 15.4213L248.392 62.5723C248.515 63.0793 248.769 63.2025 249.151 63.2025C249.534 63.2025 249.78 62.949 249.911 62.6954L264.456 22.8982C268.758 11.241 273.182 6.54619 278.873 7.05333C285.451 7.68366 287.476 12.1249 287.476 25.1806V104.021L266.987 107.948L271.288 46.7273L271.274 46.7345ZM31.468 67.7741C31.5908 64.6081 32.3499 63.0866 33.362 63.0866C34.4972 63.0866 35.1333 63.9705 35.8925 67.6511L44.4957 107.955C47.655 123.04 51.8336 129.502 58.2826 129.502C65.1144 129.502 69.4161 123.293 74.0937 106.811L102.549 7.43736C102.925 5.91588 103.309 4.52481 103.309 3.5105C103.309 1.2283 101.921 -0.0395676 97.9947 0.721163L72.9514 5.28549L66.7556 93.2479C66.5025 96.4139 65.8736 97.9355 64.7313 97.9355C63.4661 97.9355 62.8371 96.6676 62.331 93.3711L52.4627 23.5358C50.6914 11.241 47.026 5.28549 40.9531 5.28549C34.1211 5.28549 30.2027 10.6107 27.4193 24.1735L2 146.738L27.2963 141.92L31.468 67.7741ZM103.938 66.7598C103.938 87.7996 111.905 99.2105 125.691 99.2105C141.119 99.2105 152 84.2567 152 47.1184C152 38.3737 151.877 28.361 151.371 20.3771C148.082 23.7966 142.898 28.361 138.849 31.0273C139.355 35.7148 139.608 43.4452 139.608 52.8275C139.608 69.3029 137.967 87.5533 131.894 87.5533C128.352 87.5533 127.217 79.3156 127.217 68.5421C127.217 55.1099 128.988 39.1345 130.123 34.5701C126.205 35.838 114.059 37.8667 105.21 38.3737C104.451 45.8505 103.945 57.3847 103.945 66.767L103.938 66.7598ZM180.838 87.4227C194.374 87.4227 201.833 74.7513 201.833 52.5668C201.833 44.3291 201.581 39.1345 201.458 36.4682C199.181 35.3307 194.626 33.1717 190.201 30.1289C190.324 33.5486 190.706 41.0326 190.706 51.422C190.706 67.8974 188.56 77.1494 185.14 77.1494C181.474 77.1494 180.08 71.0634 180.08 52.0525C180.08 38.62 180.709 26.4483 180.838 23.1519C173.501 17.9571 163.64 9.84268 161.362 7.30691C160.097 28.093 159.844 40.6415 159.844 52.0525C159.844 73.3456 168.194 87.4155 180.838 87.4155V87.4227Z" fill="#552BEF"/>
</g>
<defs>
<clipPath id="clip0_3308_40104">
<rect width="289" height="148" fill="white" transform="translate(0 0.5)"/>
</clipPath>
</defs>
</svg>
