<svg xmlns="http://www.w3.org/2000/svg" viewBox="0 0 394.39 192.88"><title>big_pic_logo</title><g id="Layer_2" data-name="Layer 2"><g id="Layer_1-2" data-name="Layer 1"><path d="M0,.77H20.85C36.64.77,43.76,3.37,43.76,14c0,11-8,10-13.79,10.57v3.53c8.2.38,17.78.08,17.78,12.34,0,12.8-12.49,14.33-27,14.33H0ZM22.92,20.23c3.45,0,6.2.54,6.2-3.29,0-3.53-2.75-3.3-6.2-3.3H14.64v6.59Zm-.08,21.69c6.51,0,10.27.62,10.27-4.36,0-5.29-3.76-4.45-10.27-4.45h-8.2v8.81Z"/><path d="M78.79,13.64V41.92H91.13V54.8H51.81V41.92H64.15V13.64H51.81V.77H91.13V13.64Z"/><path d="M120.86,0C134.43,0,146,8.28,147.77,20.08H133.13c-1.38-5.36-5-7.2-12.27-7.2-8.2,0-13.33,4.52-13.33,14.87s4.14,14.94,13,14.94c6.82,0,15-2.68,15-7.66h-13V24.14H143c4.6,0,7.29,2.69,7.29,7.44V54.8H135.58V51.2l2.76-9.81h-3.6c.3,2.22.15,14.18-16.79,14.18-15.71,0-25.06-11-25.06-27.82S105.23,0,120.86,0Z"/><path d="M45.83,88.89c0,17.24-11.11,19.47-24.75,19.47H14.64v15.1H0v-54H21.08C34.72,69.42,45.83,71.64,45.83,88.89Zm-14.64,0c0-6.21-2.68-6.59-9.12-6.59H14.64V95.48h7.43C28.51,95.48,31.19,95.1,31.19,88.89Z"/><path d="M75.11,82.3v28.28H87.45v12.88H48.13V110.58H60.47V82.3H48.13V69.42H87.45V82.3Z"/><path d="M118,68.65c15.56,0,25.91,8.28,27.52,21.62H130.83c-1.23-5.83-6.52-8.74-12.73-8.74-8.2,0-14.25,4.52-14.25,14.87s6.05,14.94,14.25,14.94c6.21,0,11.5-3,12.73-8.81h14.64c-1.61,13.41-12,21.69-27.52,21.69-17.7,0-28.74-12-28.74-27.82S100.25,68.65,118,68.65Z"/><path d="M195.36,82.3H178.11v41.16H163.47V82.3H146.23V69.42h49.13Z"/><path d="M199.88,69.42h14.63V96.17c0,9.12-.38,15.17,10.89,15.17s11-6,11-15.17V69.42h14.64v34c0,13.49-9.13,20.85-25.68,20.85s-25.52-7.36-25.52-20.85Z"/><path d="M257,69.42h22.08c12.87,0,25.29,3,25.29,15.1,0,9.2-8.43,11.19-15.18,11.88v3.52h8.43c4.68,0,7.44,2.76,7.44,7.52v16H290.39V105.52H271.61v17.94H257Zm22.08,23.22c6.51,0,10.65.39,10.65-5.13s-4.14-5.21-10.65-5.21h-7.44V92.64Z"/><path d="M311.7,69.42h40.54V82.3H326.33V90h22.08v12.88H326.33v7.74h25.91v12.88H311.7Z"/><path d="M0,138.07H39.78V151H14.64v13.18l24.14-1.53v13l-24.14,1.53v15H0Z"/><path d="M44.91,138.07H85.46V151H59.55v7.66H81.62v12.88H59.55v7.74H85.46v12.88H44.91Z"/><path d="M116.19,192.88c-19.7,0-27.67-7.82-27.67-21.85h14.64c0,6.52,3,9,13.56,9,7.36,0,8.9-1.07,8.9-2.84,0-2.6-5.45-4.21-13-6.9C100.86,166.2,91,163.06,91,152c0-9.58,7.82-14.71,22.07-14.71,16.79,0,25,7.89,25,19.39H123.39c0-5.52-4.37-6.52-10.35-6.52-4.75,0-7.43.69-7.43,2.46,0,1.53-.08,1.84,8.51,4.82,9.73,3.38,26.13,7.9,26.13,19.24C140.25,186.51,133.05,192.88,116.19,192.88Z"/><path d="M187.85,151H170.6v41.16H156V151H138.72V138.07h49.13Z"/><path d="M220.11,151v28.28h12.34v12.88H193.13V179.23h12.34V151H193.13V138.07h39.32V151Z"/><path d="M251.91,138.07l13.26,50.44h3.61l13.33-50.44H297l-14.87,54H251.84l-14.8-54Z"/><path d="M330.24,176.32H308.32l-4.14,15.79H289.31l14.8-54h30.27l14.87,54H334.38Zm-3.45-12.88-5.74-21.76h-3.61l-5.74,21.76Z"/><path d="M353.85,185.67v-47.6h14.63V180l25.91-.77v12.88l-33.19.77C356.45,193,353.85,190.42,353.85,185.67Z"/></g></g></svg>