<svg width="250" height="158" viewBox="0 0 250 158" fill="none" xmlns="http://www.w3.org/2000/svg">
<path d="M0.03125 0.480469H13.1932C23.1781 0.480469 27.6865 2.10192 27.6865 8.7979C27.6865 15.4939 22.6335 15.1035 18.9724 15.4338V17.6558C24.1464 17.896 30.1979 17.7159 30.1979 25.4027C30.1979 33.0896 22.3007 34.3807 13.163 34.3807H0.03125V0.510502V0.480469ZM14.5245 12.7014C16.7031 12.7014 18.458 13.0317 18.458 10.6295C18.458 8.40755 16.7031 8.55769 14.5245 8.55769H9.29V12.7014H14.5245ZM14.464 26.3035C18.579 26.3035 20.9391 26.6939 20.9391 23.5711C20.9391 20.2681 18.579 20.7786 14.464 20.7786H9.29V26.3035H14.464Z" fill="#131313"/>
<path d="M49.8044 8.55769V26.3035H57.6108V34.3807H32.7695V26.3035H40.5759V8.55769H32.7695V0.480469H57.6108V8.55769H49.8044Z" fill="#131313"/>
<path d="M76.3393 0C84.9021 0 92.2849 5.19465 93.2834 12.5812H84.0247C83.238 9.21824 80.8174 8.07722 76.3393 8.07722C71.1653 8.07722 67.958 10.2992 67.958 17.4155C67.958 24.5319 70.5904 26.7839 75.3105 26.7839C79.0927 26.7839 81.7856 25.1625 81.8461 21.9796H75.5526V15.1635H93.7978C96.7025 15.1635 98.3969 16.845 98.3969 19.8177V34.3807H89.1079V23.0906L90.8931 17.4155H88.6238C88.5632 27.5646 84.5088 34.8611 74.9172 34.8611C64.5994 34.8611 58.6992 27.955 58.6992 17.4155C58.6992 6.87614 66.4451 0.0300332 76.3393 0.0300332V0Z" fill="#131313"/>
<path d="M28.9866 54.7387C28.9866 65.5484 21.9669 66.9596 13.3435 66.9596H9.25877V76.4181H0V42.5479H13.3133C21.9366 42.5479 28.9563 43.9291 28.9563 54.7688L28.9866 54.7387ZM19.7278 54.7387C19.7278 50.8352 18.0334 50.595 13.9487 50.595H9.25877V58.8524H13.9487C18.0334 58.8524 19.7278 58.6122 19.7278 54.7087V54.7387Z" fill="#131313"/>
<path d="M47.4724 50.5948V68.3406H55.2788V76.4178H30.4375V68.3406H38.2439V50.5948H30.4375V42.5176H55.2788V50.5948H47.4724Z" fill="#131313"/>
<path d="M74.5529 42.0371C84.3865 42.0371 90.9221 47.2317 91.9509 55.5792H82.6921C81.9054 51.9159 78.5771 50.0843 74.6436 50.0843C69.4696 50.0843 65.6269 52.9068 65.6269 59.4226C65.6269 65.9384 69.4394 68.791 74.6436 68.791C78.5771 68.791 81.9054 66.9293 82.6921 63.2661H91.9509C90.9221 71.6736 84.3865 76.8682 74.5529 76.8682C63.3576 76.8682 56.3984 69.3315 56.3984 59.4226C56.3984 49.5138 63.3879 42.0371 74.5529 42.0371Z" fill="#131313"/>
<path d="M123.45 50.5948H112.558V76.4178H103.299V50.5948H92.4062V42.5176H123.45V50.5948Z" fill="#131313"/>
<path d="M126.293 42.5176H135.552V59.3026C135.552 65.0077 135.31 68.8211 142.42 68.8211C149.531 68.8211 149.41 65.0377 149.41 59.3026V42.5176H158.668V63.8066C158.668 72.2742 152.919 76.8683 142.45 76.8683C131.981 76.8683 126.323 72.2441 126.323 63.8066V42.5176H126.293Z" fill="#131313"/>
<path d="M162.362 42.5176H176.311C184.45 42.5176 192.287 44.3792 192.287 51.976C192.287 57.7412 186.962 59.0023 182.695 59.4227V61.6447H188.021C190.986 61.6447 192.71 63.3862 192.71 66.3589V76.4178H183.452V65.1578H171.591V76.4178H162.332V42.5476L162.362 42.5176ZM176.311 57.0806C180.426 57.0806 183.028 57.3208 183.028 53.8677C183.028 50.4146 180.426 50.5948 176.311 50.5948H171.621V57.0806H176.311Z" fill="#131313"/>
<path d="M196.914 42.5176H222.542V50.5948H206.173V55.3991H220.121V63.4763H206.173V68.3406H222.542V76.4178H196.914V42.5476V42.5176Z" fill="#131313"/>
<path d="M0.03125 84.5557H25.1751V92.6329H9.29V100.89L24.5397 99.9294V108.097L9.29 109.058V118.426H0.03125V84.5557Z" fill="#131313"/>
<path d="M28.4102 84.5557H54.0381V92.6329H37.6689V97.4372H51.6176V105.514H37.6689V110.379H54.0381V118.456H28.4102V84.5857V84.5557Z" fill="#131313"/>
<path d="M73.4341 118.937C60.9983 118.937 55.9453 114.042 55.9453 105.244H65.2041C65.2041 109.328 67.08 110.859 73.7669 110.859C78.4265 110.859 79.3948 110.199 79.3948 109.088C79.3948 107.466 75.9454 106.445 71.1648 104.764C63.7517 102.212 57.5187 100.26 57.5187 93.3237C57.5187 87.3183 62.4506 84.1055 71.4673 84.1055C82.0877 84.1055 87.2617 89.0599 87.2617 96.2663H78.0029C78.0029 92.8133 75.2495 92.1827 71.4673 92.1827C68.4719 92.1827 66.7774 92.6031 66.7774 93.7141C66.7774 94.6749 66.7169 94.8551 72.1633 96.7468C78.3055 98.8787 88.6838 101.701 88.6838 108.818C88.6838 114.973 84.1452 118.967 73.4643 118.967L73.4341 118.937Z" fill="#131313"/>
<path d="M118.7 92.6329H107.808V118.456H98.5489V92.6329H87.6562V84.5557H118.7V92.6329Z" fill="#131313"/>
<path d="M139.062 92.6329V110.379H146.869V118.456H122.027V110.379H129.834V92.6329H122.027V84.5557H146.869V92.6329H139.062Z" fill="#131313"/>
<path d="M159.153 84.5557L167.535 116.174H169.804L178.246 84.5557H187.656L178.246 118.426H159.123L149.773 84.5557H159.153Z" fill="#131313"/>
<path d="M208.655 108.547H194.797L192.165 118.456H182.785L192.135 84.5859H211.257L220.667 118.456H211.257L208.655 108.547ZM206.477 100.47L202.846 86.8079H200.576L196.946 100.47H206.477Z" fill="#131313"/>
<path d="M223.543 114.402V84.5557H232.802V110.829L249.171 110.349V118.426L228.203 118.906C225.207 118.966 223.543 117.375 223.543 114.402Z" fill="#131313"/>
<path d="M107.23 137.584H111.255V142.628L110.468 144.79H111.467C112.041 143.499 112.889 142.118 115.612 142.118C118.759 142.118 120.12 144.7 120.12 147.613C120.12 150.526 118.759 153.168 115.612 153.168C112.889 153.168 112.041 151.817 111.467 150.495H110.468L111.255 152.687V152.988H107.23V137.614V137.584ZM113.615 149.655C115.339 149.655 116.096 149.024 116.096 147.613C116.096 146.202 115.339 145.631 113.615 145.631C111.89 145.631 111.255 146.232 111.255 147.613C111.255 148.994 111.92 149.655 113.615 149.655Z" fill="#131313"/>
<path d="M133.493 142.328L128.5 152.117V155.54C128.5 156.861 127.774 157.552 126.533 157.522L120.845 157.402V153.888H124.446V152.147L119.453 142.358H124.022L125.989 147.283V149.324H126.957V147.283L128.893 142.358H133.493V142.328Z" fill="#131313"/>
<path d="M200.822 137.073C199.007 135.331 196.556 134.25 193.802 134.25C188.296 134.25 183.848 138.634 183.848 144.009C183.848 149.384 188.296 153.767 193.802 153.767C196.526 153.767 199.007 152.686 200.822 150.945V153.257H204.453V134.73H200.822V137.042V137.073ZM194.135 150.675C190.444 150.675 187.448 147.702 187.448 144.039C187.448 140.375 190.444 137.403 194.135 137.403C197.827 137.403 200.822 140.375 200.822 144.039C200.822 147.702 197.827 150.675 194.135 150.675Z" fill="#131313"/>
<path d="M181.789 140.135C181.789 137.163 179.338 134.73 176.343 134.73H163.09V153.257H166.721V145.54H172.318L178.672 153.257H183.302L176.766 145.54C179.58 145.33 181.789 142.988 181.789 140.165V140.135ZM166.721 137.823H175.798C177.099 137.823 178.128 138.874 178.128 140.135C178.128 141.396 177.069 142.447 175.798 142.447H166.721V137.823Z" fill="#131313"/>
<path d="M221.272 134.73H208.02V153.257H211.65V145.54H221.272C224.268 145.54 226.719 143.108 226.719 140.135C226.719 137.163 224.268 134.73 221.272 134.73ZM220.758 142.447H211.681V137.823H220.758C222.059 137.823 223.088 138.874 223.088 140.135C223.088 141.396 222.029 142.447 220.758 142.447Z" fill="#131313"/>
<path d="M148.324 142.479V145.571H156.523C155.827 148.484 153.165 150.676 150.018 150.676C146.327 150.676 143.331 147.703 143.331 144.04C143.331 140.377 146.327 137.404 150.018 137.404C152.257 137.404 154.254 138.515 155.464 140.197H159.458C157.885 136.713 154.254 134.281 150.018 134.281C144.33 134.281 139.73 138.665 139.73 144.04C139.73 149.415 144.33 153.799 150.018 153.799C155.706 153.799 160.305 149.415 160.305 144.04C160.305 143.53 160.275 142.989 160.184 142.509H148.354L148.324 142.479Z" fill="#131313"/>
<path d="M248.626 144.009C248.626 138.604 244.027 134.25 238.338 134.25C232.65 134.25 228.051 138.634 228.051 144.009C228.051 149.384 232.65 153.767 238.338 153.767C242.574 153.767 246.205 151.335 247.779 147.852H243.785C242.574 149.534 240.577 150.645 238.338 150.645C235.161 150.645 232.529 148.483 231.833 145.54H248.505C248.596 145.03 248.626 144.519 248.626 144.009ZM231.833 142.477C232.529 139.565 235.192 137.373 238.338 137.373C241.485 137.373 244.148 139.535 244.844 142.477H231.833Z" fill="#131313"/>
</svg>
